<mxfile host="app.diagrams.net" agent="Mozilla/5.0 (Windows NT 10.0; Win64; x64; rv:140.0) Gecko/20100101 Firefox/140.0" version="28.0.6" pages="5">
  <diagram name="Main" id="j6d8OxKD7-KdZzmHBZLv">
    <mxGraphModel grid="1" page="1" gridSize="10" guides="1" tooltips="1" connect="1" arrows="1" fold="1" pageScale="1" pageWidth="850" pageHeight="1100" math="0" shadow="0">
      <root>
        <mxCell id="0" />
        <mxCell id="1" parent="0" />
        <mxCell id="MWmhtrtinUHRbzSizrA6-1" value="Sayyarat Canada" style="swimlane;childLayout=stackLayout;resizeParent=1;resizeParentMax=0;horizontal=0;startSize=20;horizontalStack=0;html=1;" vertex="1" parent="1">
          <mxGeometry x="-580" y="240" width="3030" height="1020" as="geometry" />
        </mxCell>
        <mxCell id="MWmhtrtinUHRbzSizrA6-2" value="Employee" style="swimlane;startSize=20;horizontal=0;html=1;" vertex="1" parent="MWmhtrtinUHRbzSizrA6-1">
          <mxGeometry x="20" width="3010" height="630" as="geometry" />
        </mxCell>
        <mxCell id="MWmhtrtinUHRbzSizrA6-5" value="" style="points=[[0.145,0.145,0],[0.5,0,0],[0.855,0.145,0],[1,0.5,0],[0.855,0.855,0],[0.5,1,0],[0.145,0.855,0],[0,0.5,0]];shape=mxgraph.bpmn.event;html=1;verticalLabelPosition=bottom;labelBackgroundColor=#ffffff;verticalAlign=top;align=center;perimeter=ellipsePerimeter;outlineConnect=0;aspect=fixed;outline=standard;symbol=general;" vertex="1" parent="MWmhtrtinUHRbzSizrA6-2">
          <mxGeometry x="95" y="280" width="50" height="50" as="geometry" />
        </mxCell>
        <mxCell id="MWmhtrtinUHRbzSizrA6-6" value="Open DMS" style="text;html=1;align=center;verticalAlign=middle;resizable=0;points=[];autosize=1;strokeColor=none;fillColor=none;" vertex="1" parent="MWmhtrtinUHRbzSizrA6-2">
          <mxGeometry x="80" y="330" width="80" height="30" as="geometry" />
        </mxCell>
        <mxCell id="rkdoL_6pFlCUm2VxU6gj-6" value="Enter login details" style="points=[[0.25,0,0],[0.5,0,0],[0.75,0,0],[1,0.25,0],[1,0.5,0],[1,0.75,0],[0.75,1,0],[0.5,1,0],[0.25,1,0],[0,0.75,0],[0,0.5,0],[0,0.25,0]];shape=mxgraph.bpmn.task2;whiteSpace=wrap;rectStyle=rounded;size=10;html=1;container=1;expand=0;collapsible=0;taskMarker=abstract;" vertex="1" parent="MWmhtrtinUHRbzSizrA6-2">
          <mxGeometry x="230" y="280" width="120" height="80" as="geometry" />
        </mxCell>
        <mxCell id="mUMCB61DMBlVGCCKmBZl-9" value="Select Desired task" style="points=[[0.25,0,0],[0.5,0,0],[0.75,0,0],[1,0.25,0],[1,0.5,0],[1,0.75,0],[0.75,1,0],[0.5,1,0],[0.25,1,0],[0,0.75,0],[0,0.5,0],[0,0.25,0]];shape=mxgraph.bpmn.task2;whiteSpace=wrap;rectStyle=rounded;size=10;html=1;container=1;expand=0;collapsible=0;taskMarker=abstract;" vertex="1" parent="MWmhtrtinUHRbzSizrA6-2">
          <mxGeometry x="760" y="280" width="120" height="80" as="geometry" />
        </mxCell>
        <mxCell id="mUMCB61DMBlVGCCKmBZl-11" value="" style="points=[[0.25,0.25,0],[0.5,0,0],[0.75,0.25,0],[1,0.5,0],[0.75,0.75,0],[0.5,1,0],[0.25,0.75,0],[0,0.5,0]];shape=mxgraph.bpmn.gateway2;html=1;verticalLabelPosition=bottom;labelBackgroundColor=#ffffff;verticalAlign=top;align=center;perimeter=rhombusPerimeter;outlineConnect=0;outline=end;symbol=general;" vertex="1" parent="MWmhtrtinUHRbzSizrA6-2">
          <mxGeometry x="970" y="295" width="50" height="50" as="geometry" />
        </mxCell>
        <mxCell id="mUMCB61DMBlVGCCKmBZl-12" style="edgeStyle=orthogonalEdgeStyle;rounded=0;orthogonalLoop=1;jettySize=auto;html=1;exitX=1;exitY=0.5;exitDx=0;exitDy=0;exitPerimeter=0;entryX=0;entryY=0.5;entryDx=0;entryDy=0;entryPerimeter=0;" edge="1" parent="MWmhtrtinUHRbzSizrA6-2" source="mUMCB61DMBlVGCCKmBZl-9" target="mUMCB61DMBlVGCCKmBZl-11">
          <mxGeometry relative="1" as="geometry" />
        </mxCell>
        <mxCell id="07_afh0jCamBsGeZw1cS-3" value="Select Sales tab" style="points=[[0.25,0,0],[0.5,0,0],[0.75,0,0],[1,0.25,0],[1,0.5,0],[1,0.75,0],[0.75,1,0],[0.5,1,0],[0.25,1,0],[0,0.75,0],[0,0.5,0],[0,0.25,0]];shape=mxgraph.bpmn.task2;whiteSpace=wrap;rectStyle=rounded;size=10;html=1;container=1;expand=0;collapsible=0;taskMarker=abstract;" vertex="1" parent="MWmhtrtinUHRbzSizrA6-2">
          <mxGeometry x="1120" y="295" width="120" height="80" as="geometry" />
        </mxCell>
        <mxCell id="jpyRx9GQkCqpCdzBoxPy-20" style="edgeStyle=orthogonalEdgeStyle;rounded=0;orthogonalLoop=1;jettySize=auto;html=1;exitX=1;exitY=0.5;exitDx=0;exitDy=0;exitPerimeter=0;" edge="1" parent="MWmhtrtinUHRbzSizrA6-2" source="07_afh0jCamBsGeZw1cS-5" target="jpyRx9GQkCqpCdzBoxPy-19">
          <mxGeometry relative="1" as="geometry" />
        </mxCell>
        <mxCell id="07_afh0jCamBsGeZw1cS-5" value="Select reports tab" style="points=[[0.25,0,0],[0.5,0,0],[0.75,0,0],[1,0.25,0],[1,0.5,0],[1,0.75,0],[0.75,1,0],[0.5,1,0],[0.25,1,0],[0,0.75,0],[0,0.5,0],[0,0.25,0]];shape=mxgraph.bpmn.task2;whiteSpace=wrap;rectStyle=rounded;size=10;html=1;container=1;expand=0;collapsible=0;taskMarker=abstract;" vertex="1" parent="MWmhtrtinUHRbzSizrA6-2">
          <mxGeometry x="1110" y="120" width="120" height="80" as="geometry" />
        </mxCell>
        <mxCell id="07_afh0jCamBsGeZw1cS-6" style="edgeStyle=orthogonalEdgeStyle;rounded=0;orthogonalLoop=1;jettySize=auto;html=1;exitX=0.5;exitY=1;exitDx=0;exitDy=0;exitPerimeter=0;entryX=0;entryY=0.5;entryDx=0;entryDy=0;entryPerimeter=0;" edge="1" parent="MWmhtrtinUHRbzSizrA6-2" source="mUMCB61DMBlVGCCKmBZl-11" target="07_afh0jCamBsGeZw1cS-2">
          <mxGeometry relative="1" as="geometry" />
        </mxCell>
        <mxCell id="07_afh0jCamBsGeZw1cS-10" value="Manage vehicles" style="edgeLabel;html=1;align=center;verticalAlign=middle;resizable=0;points=[];" connectable="0" vertex="1" parent="07_afh0jCamBsGeZw1cS-6">
          <mxGeometry x="-0.0966" relative="1" as="geometry">
            <mxPoint as="offset" />
          </mxGeometry>
        </mxCell>
        <mxCell id="07_afh0jCamBsGeZw1cS-7" style="edgeStyle=orthogonalEdgeStyle;rounded=0;orthogonalLoop=1;jettySize=auto;html=1;exitX=0.75;exitY=0.75;exitDx=0;exitDy=0;exitPerimeter=0;entryX=0;entryY=0.5;entryDx=0;entryDy=0;entryPerimeter=0;" edge="1" parent="MWmhtrtinUHRbzSizrA6-2" source="mUMCB61DMBlVGCCKmBZl-11" target="07_afh0jCamBsGeZw1cS-3">
          <mxGeometry relative="1" as="geometry" />
        </mxCell>
        <mxCell id="07_afh0jCamBsGeZw1cS-52" value="Record sale" style="edgeLabel;html=1;align=center;verticalAlign=middle;resizable=0;points=[];" connectable="0" vertex="1" parent="07_afh0jCamBsGeZw1cS-7">
          <mxGeometry x="0.075" y="1" relative="1" as="geometry">
            <mxPoint as="offset" />
          </mxGeometry>
        </mxCell>
        <mxCell id="07_afh0jCamBsGeZw1cS-9" style="edgeStyle=orthogonalEdgeStyle;rounded=0;orthogonalLoop=1;jettySize=auto;html=1;exitX=0.75;exitY=0.25;exitDx=0;exitDy=0;exitPerimeter=0;entryX=0;entryY=0.5;entryDx=0;entryDy=0;entryPerimeter=0;" edge="1" parent="MWmhtrtinUHRbzSizrA6-2" source="mUMCB61DMBlVGCCKmBZl-11" target="07_afh0jCamBsGeZw1cS-5">
          <mxGeometry relative="1" as="geometry">
            <Array as="points">
              <mxPoint x="1050" y="308" />
              <mxPoint x="1050" y="160" />
            </Array>
          </mxGeometry>
        </mxCell>
        <mxCell id="jpyRx9GQkCqpCdzBoxPy-18" value="view reports" style="edgeLabel;html=1;align=center;verticalAlign=middle;resizable=0;points=[];" connectable="0" vertex="1" parent="07_afh0jCamBsGeZw1cS-9">
          <mxGeometry x="0.152" y="1" relative="1" as="geometry">
            <mxPoint as="offset" />
          </mxGeometry>
        </mxCell>
        <mxCell id="Y5FHhcNUL7N1fTBEOwIa-1" value="Record Sale" style="points=[[0.25,0,0],[0.5,0,0],[0.75,0,0],[1,0.25,0],[1,0.5,0],[1,0.75,0],[0.75,1,0],[0.5,1,0],[0.25,1,0],[0,0.75,0],[0,0.5,0],[0,0.25,0]];shape=mxgraph.bpmn.task2;whiteSpace=wrap;rectStyle=rounded;size=10;html=1;container=1;expand=0;collapsible=0;taskMarker=abstract;isLoopSub=1;" vertex="1" parent="MWmhtrtinUHRbzSizrA6-2">
          <mxGeometry x="1350" y="295" width="120" height="80" as="geometry" />
        </mxCell>
        <mxCell id="Y5FHhcNUL7N1fTBEOwIa-2" style="edgeStyle=orthogonalEdgeStyle;rounded=0;orthogonalLoop=1;jettySize=auto;html=1;exitX=1;exitY=0.5;exitDx=0;exitDy=0;exitPerimeter=0;entryX=0;entryY=0.5;entryDx=0;entryDy=0;entryPerimeter=0;" edge="1" parent="MWmhtrtinUHRbzSizrA6-2" source="07_afh0jCamBsGeZw1cS-3" target="Y5FHhcNUL7N1fTBEOwIa-1">
          <mxGeometry relative="1" as="geometry" />
        </mxCell>
        <mxCell id="hbwDfbNrnLhGidhF4IZn-1" value="Add Vehicle" style="points=[[0.25,0,0],[0.5,0,0],[0.75,0,0],[1,0.25,0],[1,0.5,0],[1,0.75,0],[0.75,1,0],[0.5,1,0],[0.25,1,0],[0,0.75,0],[0,0.5,0],[0,0.25,0]];shape=mxgraph.bpmn.task2;whiteSpace=wrap;rectStyle=rounded;size=10;html=1;container=1;expand=0;collapsible=0;taskMarker=abstract;isLoopSub=1;" vertex="1" parent="MWmhtrtinUHRbzSizrA6-2">
          <mxGeometry x="1770" y="265" width="120" height="80" as="geometry" />
        </mxCell>
        <mxCell id="jpyRx9GQkCqpCdzBoxPy-19" value="Generate reports" style="points=[[0.25,0,0],[0.5,0,0],[0.75,0,0],[1,0.25,0],[1,0.5,0],[1,0.75,0],[0.75,1,0],[0.5,1,0],[0.25,1,0],[0,0.75,0],[0,0.5,0],[0,0.25,0]];shape=mxgraph.bpmn.task2;whiteSpace=wrap;rectStyle=rounded;size=10;html=1;container=1;expand=0;collapsible=0;taskMarker=abstract;isLoopSub=1;" vertex="1" parent="MWmhtrtinUHRbzSizrA6-2">
          <mxGeometry x="1340" y="120" width="120" height="80" as="geometry" />
        </mxCell>
        <mxCell id="07_afh0jCamBsGeZw1cS-2" value="Select Vehicle tab" style="points=[[0.25,0,0],[0.5,0,0],[0.75,0,0],[1,0.25,0],[1,0.5,0],[1,0.75,0],[0.75,1,0],[0.5,1,0],[0.25,1,0],[0,0.75,0],[0,0.5,0],[0,0.25,0]];shape=mxgraph.bpmn.task2;whiteSpace=wrap;rectStyle=rounded;size=10;html=1;container=1;expand=0;collapsible=0;taskMarker=abstract;" vertex="1" parent="MWmhtrtinUHRbzSizrA6-2">
          <mxGeometry x="1110" y="465" width="120" height="80" as="geometry" />
        </mxCell>
        <mxCell id="jpyRx9GQkCqpCdzBoxPy-4" style="edgeStyle=orthogonalEdgeStyle;rounded=0;orthogonalLoop=1;jettySize=auto;html=1;exitX=1;exitY=0.5;exitDx=0;exitDy=0;exitPerimeter=0;" edge="1" parent="MWmhtrtinUHRbzSizrA6-2" source="jpyRx9GQkCqpCdzBoxPy-1" target="jpyRx9GQkCqpCdzBoxPy-3">
          <mxGeometry relative="1" as="geometry" />
        </mxCell>
        <mxCell id="jpyRx9GQkCqpCdzBoxPy-1" value="Select desired task" style="points=[[0.25,0,0],[0.5,0,0],[0.75,0,0],[1,0.25,0],[1,0.5,0],[1,0.75,0],[0.75,1,0],[0.5,1,0],[0.25,1,0],[0,0.75,0],[0,0.5,0],[0,0.25,0]];shape=mxgraph.bpmn.task2;whiteSpace=wrap;rectStyle=rounded;size=10;html=1;container=1;expand=0;collapsible=0;taskMarker=abstract;" vertex="1" parent="MWmhtrtinUHRbzSizrA6-2">
          <mxGeometry x="1340" y="465" width="120" height="80" as="geometry" />
        </mxCell>
        <mxCell id="jpyRx9GQkCqpCdzBoxPy-3" value="" style="points=[[0.25,0.25,0],[0.5,0,0],[0.75,0.25,0],[1,0.5,0],[0.75,0.75,0],[0.5,1,0],[0.25,0.75,0],[0,0.5,0]];shape=mxgraph.bpmn.gateway2;html=1;verticalLabelPosition=bottom;labelBackgroundColor=#ffffff;verticalAlign=top;align=center;perimeter=rhombusPerimeter;outlineConnect=0;outline=none;symbol=none;gwType=exclusive;" vertex="1" parent="MWmhtrtinUHRbzSizrA6-2">
          <mxGeometry x="1570" y="480" width="50" height="50" as="geometry" />
        </mxCell>
        <mxCell id="jpyRx9GQkCqpCdzBoxPy-5" style="edgeStyle=orthogonalEdgeStyle;rounded=0;orthogonalLoop=1;jettySize=auto;html=1;exitX=0.5;exitY=0;exitDx=0;exitDy=0;exitPerimeter=0;entryX=0;entryY=0.5;entryDx=0;entryDy=0;entryPerimeter=0;" edge="1" parent="MWmhtrtinUHRbzSizrA6-2" source="jpyRx9GQkCqpCdzBoxPy-3" target="hbwDfbNrnLhGidhF4IZn-1">
          <mxGeometry relative="1" as="geometry">
            <mxPoint x="1770" y="330" as="targetPoint" />
          </mxGeometry>
        </mxCell>
        <mxCell id="jpyRx9GQkCqpCdzBoxPy-6" value="Add new vehicle" style="edgeLabel;html=1;align=center;verticalAlign=middle;resizable=0;points=[];" connectable="0" vertex="1" parent="jpyRx9GQkCqpCdzBoxPy-5">
          <mxGeometry x="-0.1019" y="-1" relative="1" as="geometry">
            <mxPoint as="offset" />
          </mxGeometry>
        </mxCell>
        <mxCell id="jpyRx9GQkCqpCdzBoxPy-8" value="Update Vehicle details" style="points=[[0.25,0,0],[0.5,0,0],[0.75,0,0],[1,0.25,0],[1,0.5,0],[1,0.75,0],[0.75,1,0],[0.5,1,0],[0.25,1,0],[0,0.75,0],[0,0.5,0],[0,0.25,0]];shape=mxgraph.bpmn.task2;whiteSpace=wrap;rectStyle=rounded;size=10;html=1;container=1;expand=0;collapsible=0;taskMarker=abstract;isLoopSub=1;" vertex="1" parent="MWmhtrtinUHRbzSizrA6-2">
          <mxGeometry x="1770" y="400" width="120" height="80" as="geometry" />
        </mxCell>
        <mxCell id="jpyRx9GQkCqpCdzBoxPy-9" style="edgeStyle=orthogonalEdgeStyle;rounded=0;orthogonalLoop=1;jettySize=auto;html=1;exitX=1;exitY=0.5;exitDx=0;exitDy=0;exitPerimeter=0;entryX=0;entryY=0.5;entryDx=0;entryDy=0;entryPerimeter=0;" edge="1" parent="MWmhtrtinUHRbzSizrA6-2" source="jpyRx9GQkCqpCdzBoxPy-3" target="jpyRx9GQkCqpCdzBoxPy-8">
          <mxGeometry relative="1" as="geometry" />
        </mxCell>
        <mxCell id="jpyRx9GQkCqpCdzBoxPy-10" value="Update vehicle" style="edgeLabel;html=1;align=center;verticalAlign=middle;resizable=0;points=[];" connectable="0" vertex="1" parent="jpyRx9GQkCqpCdzBoxPy-9">
          <mxGeometry x="-0.05" y="2" relative="1" as="geometry">
            <mxPoint as="offset" />
          </mxGeometry>
        </mxCell>
        <mxCell id="fMNfzONADS8vu6ALSTbc-7" style="edgeStyle=orthogonalEdgeStyle;rounded=0;orthogonalLoop=1;jettySize=auto;html=1;exitX=1;exitY=0.5;exitDx=0;exitDy=0;exitPerimeter=0;entryX=0.5;entryY=0;entryDx=0;entryDy=0;entryPerimeter=0;" edge="1" parent="MWmhtrtinUHRbzSizrA6-2" source="hbwDfbNrnLhGidhF4IZn-1" target="fEtbqp9obuI-Wb2hrXB6-2">
          <mxGeometry relative="1" as="geometry">
            <mxPoint x="2100" y="400" as="targetPoint" />
          </mxGeometry>
        </mxCell>
        <mxCell id="fMNfzONADS8vu6ALSTbc-8" style="edgeStyle=orthogonalEdgeStyle;rounded=0;orthogonalLoop=1;jettySize=auto;html=1;exitX=1;exitY=0.5;exitDx=0;exitDy=0;exitPerimeter=0;entryX=0;entryY=0.5;entryDx=0;entryDy=0;entryPerimeter=0;" edge="1" parent="MWmhtrtinUHRbzSizrA6-2" source="jpyRx9GQkCqpCdzBoxPy-8" target="fEtbqp9obuI-Wb2hrXB6-2">
          <mxGeometry relative="1" as="geometry">
            <mxPoint x="2040" y="440" as="targetPoint" />
          </mxGeometry>
        </mxCell>
        <mxCell id="fMNfzONADS8vu6ALSTbc-13" style="edgeStyle=orthogonalEdgeStyle;rounded=0;orthogonalLoop=1;jettySize=auto;html=1;exitX=1;exitY=0.5;exitDx=0;exitDy=0;exitPerimeter=0;entryX=0;entryY=0.5;entryDx=0;entryDy=0;entryPerimeter=0;" edge="1" parent="MWmhtrtinUHRbzSizrA6-2" source="Y5FHhcNUL7N1fTBEOwIa-1" target="fEtbqp9obuI-Wb2hrXB6-4">
          <mxGeometry relative="1" as="geometry">
            <Array as="points">
              <mxPoint x="1490" y="335" />
              <mxPoint x="1490" y="230" />
              <mxPoint x="2130" y="230" />
              <mxPoint x="2130" y="335" />
            </Array>
            <mxPoint x="2210" y="220" as="targetPoint" />
          </mxGeometry>
        </mxCell>
        <mxCell id="fMNfzONADS8vu6ALSTbc-14" style="edgeStyle=orthogonalEdgeStyle;rounded=0;orthogonalLoop=1;jettySize=auto;html=1;exitX=1;exitY=0.5;exitDx=0;exitDy=0;exitPerimeter=0;entryX=0.5;entryY=0;entryDx=0;entryDy=0;entryPerimeter=0;" edge="1" parent="MWmhtrtinUHRbzSizrA6-2" source="jpyRx9GQkCqpCdzBoxPy-19" target="fEtbqp9obuI-Wb2hrXB6-4">
          <mxGeometry relative="1" as="geometry">
            <mxPoint x="2190" y="160" as="targetPoint" />
          </mxGeometry>
        </mxCell>
        <mxCell id="fEtbqp9obuI-Wb2hrXB6-2" value="" style="points=[[0.25,0.25,0],[0.5,0,0],[0.75,0.25,0],[1,0.5,0],[0.75,0.75,0],[0.5,1,0],[0.25,0.75,0],[0,0.5,0]];shape=mxgraph.bpmn.gateway2;html=1;verticalLabelPosition=bottom;labelBackgroundColor=#ffffff;verticalAlign=top;align=center;perimeter=rhombusPerimeter;outlineConnect=0;outline=none;symbol=none;gwType=exclusive;" vertex="1" parent="MWmhtrtinUHRbzSizrA6-2">
          <mxGeometry x="2080" y="400" width="50" height="50" as="geometry" />
        </mxCell>
        <mxCell id="fEtbqp9obuI-Wb2hrXB6-4" value="" style="points=[[0.25,0.25,0],[0.5,0,0],[0.75,0.25,0],[1,0.5,0],[0.75,0.75,0],[0.5,1,0],[0.25,0.75,0],[0,0.5,0]];shape=mxgraph.bpmn.gateway2;html=1;verticalLabelPosition=bottom;labelBackgroundColor=#ffffff;verticalAlign=top;align=center;perimeter=rhombusPerimeter;outlineConnect=0;outline=end;symbol=general;" vertex="1" parent="MWmhtrtinUHRbzSizrA6-2">
          <mxGeometry x="2360" y="310" width="50" height="50" as="geometry" />
        </mxCell>
        <mxCell id="fEtbqp9obuI-Wb2hrXB6-6" style="edgeStyle=orthogonalEdgeStyle;rounded=0;orthogonalLoop=1;jettySize=auto;html=1;exitX=1;exitY=0.5;exitDx=0;exitDy=0;exitPerimeter=0;entryX=0.5;entryY=1;entryDx=0;entryDy=0;entryPerimeter=0;" edge="1" parent="MWmhtrtinUHRbzSizrA6-2" source="fEtbqp9obuI-Wb2hrXB6-2" target="fEtbqp9obuI-Wb2hrXB6-4">
          <mxGeometry relative="1" as="geometry" />
        </mxCell>
        <mxCell id="fEtbqp9obuI-Wb2hrXB6-1" value="Verify all tasks complete" style="points=[[0.25,0,0],[0.5,0,0],[0.75,0,0],[1,0.25,0],[1,0.5,0],[1,0.75,0],[0.75,1,0],[0.5,1,0],[0.25,1,0],[0,0.75,0],[0,0.5,0],[0,0.25,0]];shape=mxgraph.bpmn.task2;whiteSpace=wrap;rectStyle=rounded;size=10;html=1;container=1;expand=0;collapsible=0;taskMarker=abstract;" vertex="1" parent="MWmhtrtinUHRbzSizrA6-2">
          <mxGeometry x="2480" y="295" width="120" height="80" as="geometry" />
        </mxCell>
        <mxCell id="fEtbqp9obuI-Wb2hrXB6-7" style="edgeStyle=orthogonalEdgeStyle;rounded=0;orthogonalLoop=1;jettySize=auto;html=1;exitX=1;exitY=0.5;exitDx=0;exitDy=0;exitPerimeter=0;entryX=0;entryY=0.5;entryDx=0;entryDy=0;entryPerimeter=0;" edge="1" parent="MWmhtrtinUHRbzSizrA6-2" source="fEtbqp9obuI-Wb2hrXB6-4" target="fEtbqp9obuI-Wb2hrXB6-1">
          <mxGeometry relative="1" as="geometry" />
        </mxCell>
        <mxCell id="rkdoL_6pFlCUm2VxU6gj-2" style="edgeStyle=orthogonalEdgeStyle;rounded=0;orthogonalLoop=1;jettySize=auto;html=1;exitX=0.5;exitY=1;exitDx=0;exitDy=0;exitPerimeter=0;" edge="1" parent="MWmhtrtinUHRbzSizrA6-1" source="MWmhtrtinUHRbzSizrA6-5" target="rkdoL_6pFlCUm2VxU6gj-1">
          <mxGeometry relative="1" as="geometry" />
        </mxCell>
        <mxCell id="rkdoL_6pFlCUm2VxU6gj-7" style="edgeStyle=orthogonalEdgeStyle;rounded=0;orthogonalLoop=1;jettySize=auto;html=1;exitX=0.5;exitY=0;exitDx=0;exitDy=0;exitPerimeter=0;entryX=0.5;entryY=1;entryDx=0;entryDy=0;entryPerimeter=0;" edge="1" parent="MWmhtrtinUHRbzSizrA6-1" source="rkdoL_6pFlCUm2VxU6gj-3" target="rkdoL_6pFlCUm2VxU6gj-6">
          <mxGeometry relative="1" as="geometry" />
        </mxCell>
        <mxCell id="mUMCB61DMBlVGCCKmBZl-1" style="edgeStyle=orthogonalEdgeStyle;rounded=0;orthogonalLoop=1;jettySize=auto;html=1;exitX=1;exitY=0.5;exitDx=0;exitDy=0;exitPerimeter=0;" edge="1" parent="MWmhtrtinUHRbzSizrA6-1" source="rkdoL_6pFlCUm2VxU6gj-6" target="rkdoL_6pFlCUm2VxU6gj-9">
          <mxGeometry relative="1" as="geometry" />
        </mxCell>
        <mxCell id="mUMCB61DMBlVGCCKmBZl-10" style="edgeStyle=orthogonalEdgeStyle;rounded=0;orthogonalLoop=1;jettySize=auto;html=1;exitX=0.5;exitY=0;exitDx=0;exitDy=0;exitPerimeter=0;entryX=0.5;entryY=1;entryDx=0;entryDy=0;entryPerimeter=0;" edge="1" parent="MWmhtrtinUHRbzSizrA6-1" source="mUMCB61DMBlVGCCKmBZl-8" target="mUMCB61DMBlVGCCKmBZl-9">
          <mxGeometry relative="1" as="geometry" />
        </mxCell>
        <mxCell id="0wB_IlUKWWM5bbmLbd-1-2" style="edgeStyle=orthogonalEdgeStyle;rounded=0;orthogonalLoop=1;jettySize=auto;html=1;exitX=0.5;exitY=1;exitDx=0;exitDy=0;exitPerimeter=0;entryX=0.5;entryY=0;entryDx=0;entryDy=0;entryPerimeter=0;" edge="1" parent="MWmhtrtinUHRbzSizrA6-1" source="07_afh0jCamBsGeZw1cS-2" target="0wB_IlUKWWM5bbmLbd-1-1">
          <mxGeometry relative="1" as="geometry">
            <mxPoint x="1190" y="625" as="targetPoint" />
          </mxGeometry>
        </mxCell>
        <mxCell id="HWSYuRivCXSK3LJA_UyK-1" style="edgeStyle=orthogonalEdgeStyle;rounded=0;orthogonalLoop=1;jettySize=auto;html=1;exitX=1;exitY=0.5;exitDx=0;exitDy=0;exitPerimeter=0;entryX=0;entryY=0.5;entryDx=0;entryDy=0;entryPerimeter=0;" edge="1" parent="MWmhtrtinUHRbzSizrA6-1" source="0wB_IlUKWWM5bbmLbd-1-1" target="jpyRx9GQkCqpCdzBoxPy-1">
          <mxGeometry relative="1" as="geometry" />
        </mxCell>
        <mxCell id="MWmhtrtinUHRbzSizrA6-3" value="Dealership managment system&amp;nbsp;" style="swimlane;startSize=20;horizontal=0;html=1;" vertex="1" parent="MWmhtrtinUHRbzSizrA6-1">
          <mxGeometry x="20" y="630" width="3010" height="390" as="geometry" />
        </mxCell>
        <mxCell id="rkdoL_6pFlCUm2VxU6gj-1" value="Initialize system" style="points=[[0.25,0,0],[0.5,0,0],[0.75,0,0],[1,0.25,0],[1,0.5,0],[1,0.75,0],[0.75,1,0],[0.5,1,0],[0.25,1,0],[0,0.75,0],[0,0.5,0],[0,0.25,0]];shape=mxgraph.bpmn.task2;whiteSpace=wrap;rectStyle=rounded;size=10;html=1;container=1;expand=0;collapsible=0;taskMarker=abstract;" vertex="1" parent="MWmhtrtinUHRbzSizrA6-3">
          <mxGeometry x="60" y="100" width="120" height="80" as="geometry" />
        </mxCell>
        <mxCell id="rkdoL_6pFlCUm2VxU6gj-3" value="Request login details" style="points=[[0.25,0,0],[0.5,0,0],[0.75,0,0],[1,0.25,0],[1,0.5,0],[1,0.75,0],[0.75,1,0],[0.5,1,0],[0.25,1,0],[0,0.75,0],[0,0.5,0],[0,0.25,0]];shape=mxgraph.bpmn.task2;whiteSpace=wrap;rectStyle=rounded;size=10;html=1;container=1;expand=0;collapsible=0;taskMarker=abstract;" vertex="1" parent="MWmhtrtinUHRbzSizrA6-3">
          <mxGeometry x="230" y="100" width="120" height="80" as="geometry" />
        </mxCell>
        <mxCell id="rkdoL_6pFlCUm2VxU6gj-4" style="edgeStyle=orthogonalEdgeStyle;rounded=0;orthogonalLoop=1;jettySize=auto;html=1;exitX=1;exitY=0.5;exitDx=0;exitDy=0;exitPerimeter=0;entryX=0;entryY=0.5;entryDx=0;entryDy=0;entryPerimeter=0;" edge="1" parent="MWmhtrtinUHRbzSizrA6-3" source="rkdoL_6pFlCUm2VxU6gj-1" target="rkdoL_6pFlCUm2VxU6gj-3">
          <mxGeometry relative="1" as="geometry" />
        </mxCell>
        <mxCell id="rkdoL_6pFlCUm2VxU6gj-9" value="validate login credentials" style="points=[[0.25,0,0],[0.5,0,0],[0.75,0,0],[1,0.25,0],[1,0.5,0],[1,0.75,0],[0.75,1,0],[0.5,1,0],[0.25,1,0],[0,0.75,0],[0,0.5,0],[0,0.25,0]];shape=mxgraph.bpmn.task2;whiteSpace=wrap;rectStyle=rounded;size=10;html=1;container=1;expand=0;collapsible=0;taskMarker=abstract;" vertex="1" parent="MWmhtrtinUHRbzSizrA6-3">
          <mxGeometry x="420" y="100" width="120" height="80" as="geometry" />
        </mxCell>
        <mxCell id="mUMCB61DMBlVGCCKmBZl-4" style="edgeStyle=orthogonalEdgeStyle;rounded=0;orthogonalLoop=1;jettySize=auto;html=1;exitX=1;exitY=0.5;exitDx=0;exitDy=0;exitPerimeter=0;" edge="1" parent="MWmhtrtinUHRbzSizrA6-3" source="mUMCB61DMBlVGCCKmBZl-2">
          <mxGeometry relative="1" as="geometry">
            <mxPoint x="760" y="140" as="targetPoint" />
          </mxGeometry>
        </mxCell>
        <mxCell id="07_afh0jCamBsGeZw1cS-38" value="Valid" style="edgeLabel;html=1;align=center;verticalAlign=middle;resizable=0;points=[];" connectable="0" vertex="1" parent="mUMCB61DMBlVGCCKmBZl-4">
          <mxGeometry x="-0.1045" y="-3" relative="1" as="geometry">
            <mxPoint as="offset" />
          </mxGeometry>
        </mxCell>
        <mxCell id="mUMCB61DMBlVGCCKmBZl-2" value="" style="points=[[0.25,0.25,0],[0.5,0,0],[0.75,0.25,0],[1,0.5,0],[0.75,0.75,0],[0.5,1,0],[0.25,0.75,0],[0,0.5,0]];shape=mxgraph.bpmn.gateway2;html=1;verticalLabelPosition=bottom;labelBackgroundColor=#ffffff;verticalAlign=top;align=center;perimeter=rhombusPerimeter;outlineConnect=0;outline=none;symbol=none;gwType=exclusive;" vertex="1" parent="MWmhtrtinUHRbzSizrA6-3">
          <mxGeometry x="610" y="115" width="50" height="50" as="geometry" />
        </mxCell>
        <mxCell id="mUMCB61DMBlVGCCKmBZl-3" style="edgeStyle=orthogonalEdgeStyle;rounded=0;orthogonalLoop=1;jettySize=auto;html=1;exitX=1;exitY=0.5;exitDx=0;exitDy=0;exitPerimeter=0;entryX=0;entryY=0.5;entryDx=0;entryDy=0;entryPerimeter=0;" edge="1" parent="MWmhtrtinUHRbzSizrA6-3" source="rkdoL_6pFlCUm2VxU6gj-9" target="mUMCB61DMBlVGCCKmBZl-2">
          <mxGeometry relative="1" as="geometry" />
        </mxCell>
        <mxCell id="mUMCB61DMBlVGCCKmBZl-6" style="edgeStyle=orthogonalEdgeStyle;rounded=0;orthogonalLoop=1;jettySize=auto;html=1;exitX=0.5;exitY=1;exitDx=0;exitDy=0;exitPerimeter=0;entryX=0.5;entryY=1;entryDx=0;entryDy=0;entryPerimeter=0;" edge="1" parent="MWmhtrtinUHRbzSizrA6-3" source="mUMCB61DMBlVGCCKmBZl-2" target="rkdoL_6pFlCUm2VxU6gj-3">
          <mxGeometry relative="1" as="geometry" />
        </mxCell>
        <mxCell id="07_afh0jCamBsGeZw1cS-37" value="Invalid" style="edgeLabel;html=1;align=center;verticalAlign=middle;resizable=0;points=[];" connectable="0" vertex="1" parent="mUMCB61DMBlVGCCKmBZl-6">
          <mxGeometry x="-0.58" y="3" relative="1" as="geometry">
            <mxPoint as="offset" />
          </mxGeometry>
        </mxCell>
        <mxCell id="mUMCB61DMBlVGCCKmBZl-8" value="Display Dashboard" style="points=[[0.25,0,0],[0.5,0,0],[0.75,0,0],[1,0.25,0],[1,0.5,0],[1,0.75,0],[0.75,1,0],[0.5,1,0],[0.25,1,0],[0,0.75,0],[0,0.5,0],[0,0.25,0]];shape=mxgraph.bpmn.task2;whiteSpace=wrap;rectStyle=rounded;size=10;html=1;container=1;expand=0;collapsible=0;taskMarker=abstract;" vertex="1" parent="MWmhtrtinUHRbzSizrA6-3">
          <mxGeometry x="760" y="100" width="120" height="80" as="geometry" />
        </mxCell>
        <mxCell id="0wB_IlUKWWM5bbmLbd-1-1" value="Open Vehicles overview" style="points=[[0.25,0,0],[0.5,0,0],[0.75,0,0],[1,0.25,0],[1,0.5,0],[1,0.75,0],[0.75,1,0],[0.5,1,0],[0.25,1,0],[0,0.75,0],[0,0.5,0],[0,0.25,0]];shape=mxgraph.bpmn.task2;whiteSpace=wrap;rectStyle=rounded;size=10;html=1;container=1;expand=0;collapsible=0;taskMarker=abstract;" vertex="1" parent="MWmhtrtinUHRbzSizrA6-3">
          <mxGeometry x="1110" y="100" width="120" height="80" as="geometry" />
        </mxCell>
        <mxCell id="KpPgZgr30068J4HQ6RfN-1" value="Search for vehicle using Keys" style="points=[[0.25,0,0],[0.5,0,0],[0.75,0,0],[1,0.25,0],[1,0.5,0],[1,0.75,0],[0.75,1,0],[0.5,1,0],[0.25,1,0],[0,0.75,0],[0,0.5,0],[0,0.25,0]];shape=mxgraph.bpmn.task2;whiteSpace=wrap;rectStyle=rounded;size=10;html=1;container=1;expand=0;collapsible=0;taskMarker=abstract;" vertex="1" parent="MWmhtrtinUHRbzSizrA6-3">
          <mxGeometry x="1715" y="-100" width="120" height="80" as="geometry" />
        </mxCell>
        <mxCell id="yOzApY0b3A9TunU-Ot8D-2" style="edgeStyle=orthogonalEdgeStyle;rounded=0;orthogonalLoop=1;jettySize=auto;html=1;exitX=0.5;exitY=1;exitDx=0;exitDy=0;exitPerimeter=0;entryX=0.5;entryY=0;entryDx=0;entryDy=0;entryPerimeter=0;" edge="1" parent="MWmhtrtinUHRbzSizrA6-3" source="KpPgZgr30068J4HQ6RfN-1" target="yOzApY0b3A9TunU-Ot8D-1">
          <mxGeometry relative="1" as="geometry" />
        </mxCell>
        <mxCell id="yOzApY0b3A9TunU-Ot8D-1" value="search database for vehicles matching key" style="points=[[0.25,0,0],[0.5,0,0],[0.75,0,0],[1,0.25,0],[1,0.5,0],[1,0.75,0],[0.75,1,0],[0.5,1,0],[0.25,1,0],[0,0.75,0],[0,0.5,0],[0,0.25,0]];shape=mxgraph.bpmn.task2;whiteSpace=wrap;rectStyle=rounded;size=10;html=1;container=1;expand=0;collapsible=0;taskMarker=abstract;" vertex="1" parent="MWmhtrtinUHRbzSizrA6-3">
          <mxGeometry x="1710" y="180" width="130" height="85" as="geometry" />
        </mxCell>
        <mxCell id="yOzApY0b3A9TunU-Ot8D-3" value="" style="points=[[0.25,0.25,0],[0.5,0,0],[0.75,0.25,0],[1,0.5,0],[0.75,0.75,0],[0.5,1,0],[0.25,0.75,0],[0,0.5,0]];shape=mxgraph.bpmn.gateway2;html=1;verticalLabelPosition=bottom;labelBackgroundColor=#ffffff;verticalAlign=top;align=center;perimeter=rhombusPerimeter;outlineConnect=0;outline=none;symbol=none;gwType=exclusive;" vertex="1" parent="MWmhtrtinUHRbzSizrA6-3">
          <mxGeometry x="1975" y="197.5" width="50" height="50" as="geometry" />
        </mxCell>
        <mxCell id="yOzApY0b3A9TunU-Ot8D-4" style="edgeStyle=orthogonalEdgeStyle;rounded=0;orthogonalLoop=1;jettySize=auto;html=1;exitX=1;exitY=0.5;exitDx=0;exitDy=0;exitPerimeter=0;entryX=0;entryY=0.5;entryDx=0;entryDy=0;entryPerimeter=0;" edge="1" parent="MWmhtrtinUHRbzSizrA6-3" source="yOzApY0b3A9TunU-Ot8D-1" target="yOzApY0b3A9TunU-Ot8D-3">
          <mxGeometry relative="1" as="geometry" />
        </mxCell>
        <mxCell id="yOzApY0b3A9TunU-Ot8D-5" value="Display list of matching vehicles" style="points=[[0.25,0,0],[0.5,0,0],[0.75,0,0],[1,0.25,0],[1,0.5,0],[1,0.75,0],[0.75,1,0],[0.5,1,0],[0.25,1,0],[0,0.75,0],[0,0.5,0],[0,0.25,0]];shape=mxgraph.bpmn.task2;whiteSpace=wrap;rectStyle=rounded;size=10;html=1;container=1;expand=0;collapsible=0;taskMarker=abstract;" vertex="1" parent="MWmhtrtinUHRbzSizrA6-3">
          <mxGeometry x="2185" y="182.5" width="120" height="80" as="geometry" />
        </mxCell>
        <mxCell id="yOzApY0b3A9TunU-Ot8D-6" style="edgeStyle=orthogonalEdgeStyle;rounded=0;orthogonalLoop=1;jettySize=auto;html=1;exitX=1;exitY=0.5;exitDx=0;exitDy=0;exitPerimeter=0;entryX=0;entryY=0.5;entryDx=0;entryDy=0;entryPerimeter=0;" edge="1" parent="MWmhtrtinUHRbzSizrA6-3" source="yOzApY0b3A9TunU-Ot8D-3" target="yOzApY0b3A9TunU-Ot8D-5">
          <mxGeometry relative="1" as="geometry" />
        </mxCell>
        <mxCell id="yOzApY0b3A9TunU-Ot8D-7" value="Match found" style="edgeLabel;html=1;align=center;verticalAlign=middle;resizable=0;points=[];" connectable="0" vertex="1" parent="yOzApY0b3A9TunU-Ot8D-6">
          <mxGeometry x="-0.15" y="1" relative="1" as="geometry">
            <mxPoint y="1" as="offset" />
          </mxGeometry>
        </mxCell>
        <mxCell id="yOzApY0b3A9TunU-Ot8D-10" value="Display error&amp;nbsp;" style="points=[[0.25,0,0],[0.5,0,0],[0.75,0,0],[1,0.25,0],[1,0.5,0],[1,0.75,0],[0.75,1,0],[0.5,1,0],[0.25,1,0],[0,0.75,0],[0,0.5,0],[0,0.25,0]];shape=mxgraph.bpmn.task2;whiteSpace=wrap;rectStyle=rounded;size=10;html=1;container=1;expand=0;collapsible=0;taskMarker=abstract;" vertex="1" parent="MWmhtrtinUHRbzSizrA6-3">
          <mxGeometry x="1940" y="20" width="120" height="80" as="geometry" />
        </mxCell>
        <mxCell id="yOzApY0b3A9TunU-Ot8D-11" style="edgeStyle=orthogonalEdgeStyle;rounded=0;orthogonalLoop=1;jettySize=auto;html=1;exitX=0.5;exitY=0;exitDx=0;exitDy=0;exitPerimeter=0;entryX=0.5;entryY=1;entryDx=0;entryDy=0;entryPerimeter=0;" edge="1" parent="MWmhtrtinUHRbzSizrA6-3" source="yOzApY0b3A9TunU-Ot8D-3" target="yOzApY0b3A9TunU-Ot8D-10">
          <mxGeometry relative="1" as="geometry" />
        </mxCell>
        <mxCell id="yOzApY0b3A9TunU-Ot8D-12" value="Not found" style="edgeLabel;html=1;align=center;verticalAlign=middle;resizable=0;points=[];" connectable="0" vertex="1" parent="yOzApY0b3A9TunU-Ot8D-11">
          <mxGeometry x="0.0359" y="2" relative="1" as="geometry">
            <mxPoint y="1" as="offset" />
          </mxGeometry>
        </mxCell>
        <mxCell id="yOzApY0b3A9TunU-Ot8D-13" style="edgeStyle=orthogonalEdgeStyle;rounded=0;orthogonalLoop=1;jettySize=auto;html=1;exitX=0;exitY=0.5;exitDx=0;exitDy=0;exitPerimeter=0;entryX=1;entryY=0.5;entryDx=0;entryDy=0;entryPerimeter=0;" edge="1" parent="MWmhtrtinUHRbzSizrA6-3" source="yOzApY0b3A9TunU-Ot8D-10" target="KpPgZgr30068J4HQ6RfN-1">
          <mxGeometry relative="1" as="geometry" />
        </mxCell>
        <mxCell id="jpyRx9GQkCqpCdzBoxPy-15" style="edgeStyle=orthogonalEdgeStyle;rounded=0;orthogonalLoop=1;jettySize=auto;html=1;exitX=0.5;exitY=1;exitDx=0;exitDy=0;exitPerimeter=0;entryX=0;entryY=0.5;entryDx=0;entryDy=0;entryPerimeter=0;" edge="1" parent="MWmhtrtinUHRbzSizrA6-1" source="jpyRx9GQkCqpCdzBoxPy-3" target="KpPgZgr30068J4HQ6RfN-1">
          <mxGeometry relative="1" as="geometry">
            <mxPoint x="1790" y="575" as="targetPoint" />
          </mxGeometry>
        </mxCell>
        <mxCell id="jpyRx9GQkCqpCdzBoxPy-16" value="View Vehicle information" style="edgeLabel;html=1;align=center;verticalAlign=middle;resizable=0;points=[];" connectable="0" vertex="1" parent="jpyRx9GQkCqpCdzBoxPy-15">
          <mxGeometry x="-0.1789" y="-1" relative="1" as="geometry">
            <mxPoint as="offset" />
          </mxGeometry>
        </mxCell>
        <mxCell id="fEtbqp9obuI-Wb2hrXB6-11" style="edgeStyle=orthogonalEdgeStyle;rounded=0;orthogonalLoop=1;jettySize=auto;html=1;exitX=0.5;exitY=0;exitDx=0;exitDy=0;exitPerimeter=0;entryX=0.5;entryY=1;entryDx=0;entryDy=0;entryPerimeter=0;" edge="1" parent="MWmhtrtinUHRbzSizrA6-1" source="yOzApY0b3A9TunU-Ot8D-5" target="fEtbqp9obuI-Wb2hrXB6-2">
          <mxGeometry relative="1" as="geometry" />
        </mxCell>
        <mxCell id="fEtbqp9obuI-Wb2hrXB6-12" style="edgeStyle=orthogonalEdgeStyle;rounded=0;orthogonalLoop=1;jettySize=auto;html=1;exitX=0.5;exitY=1;exitDx=0;exitDy=0;exitPerimeter=0;entryX=0.5;entryY=1;entryDx=0;entryDy=0;entryPerimeter=0;" edge="1" parent="MWmhtrtinUHRbzSizrA6-1" source="fEtbqp9obuI-Wb2hrXB6-1" target="mUMCB61DMBlVGCCKmBZl-8">
          <mxGeometry relative="1" as="geometry">
            <Array as="points">
              <mxPoint x="2560" y="930" />
              <mxPoint x="840" y="930" />
            </Array>
          </mxGeometry>
        </mxCell>
        <mxCell id="fEtbqp9obuI-Wb2hrXB6-13" value="tasks remaining" style="edgeLabel;html=1;align=center;verticalAlign=middle;resizable=0;points=[];" connectable="0" vertex="1" parent="fEtbqp9obuI-Wb2hrXB6-12">
          <mxGeometry x="-0.8978" y="3" relative="1" as="geometry">
            <mxPoint as="offset" />
          </mxGeometry>
        </mxCell>
        <mxCell id="fMNfzONADS8vu6ALSTbc-4" style="edgeStyle=orthogonalEdgeStyle;rounded=0;orthogonalLoop=1;jettySize=auto;html=1;exitX=1;exitY=0.5;exitDx=0;exitDy=0;exitPerimeter=0;" edge="1" parent="1" source="fMNfzONADS8vu6ALSTbc-2">
          <mxGeometry relative="1" as="geometry">
            <mxPoint x="2315" y="575" as="targetPoint" />
          </mxGeometry>
        </mxCell>
        <mxCell id="fMNfzONADS8vu6ALSTbc-5" value="All tasks complete" style="edgeLabel;html=1;align=center;verticalAlign=middle;resizable=0;points=[];" connectable="0" vertex="1" parent="fMNfzONADS8vu6ALSTbc-4">
          <mxGeometry x="-0.1174" y="-2" relative="1" as="geometry">
            <mxPoint as="offset" />
          </mxGeometry>
        </mxCell>
        <mxCell id="fMNfzONADS8vu6ALSTbc-2" value="" style="points=[[0.25,0.25,0],[0.5,0,0],[0.75,0.25,0],[1,0.5,0],[0.75,0.75,0],[0.5,1,0],[0.25,0.75,0],[0,0.5,0]];shape=mxgraph.bpmn.gateway2;html=1;verticalLabelPosition=bottom;labelBackgroundColor=#ffffff;verticalAlign=top;align=center;perimeter=rhombusPerimeter;outlineConnect=0;outline=none;symbol=none;gwType=exclusive;" vertex="1" parent="1">
          <mxGeometry x="2125" y="550" width="50" height="50" as="geometry" />
        </mxCell>
        <mxCell id="fMNfzONADS8vu6ALSTbc-10" value="Log out" style="points=[[0.145,0.145,0],[0.5,0,0],[0.855,0.145,0],[1,0.5,0],[0.855,0.855,0],[0.5,1,0],[0.145,0.855,0],[0,0.5,0]];shape=mxgraph.bpmn.event;html=1;verticalLabelPosition=bottom;labelBackgroundColor=#ffffff;verticalAlign=top;align=center;perimeter=ellipsePerimeter;outlineConnect=0;aspect=fixed;outline=end;symbol=terminate2;" vertex="1" parent="1">
          <mxGeometry x="2315" y="550" width="50" height="50" as="geometry" />
        </mxCell>
        <mxCell id="fEtbqp9obuI-Wb2hrXB6-8" style="edgeStyle=orthogonalEdgeStyle;rounded=0;orthogonalLoop=1;jettySize=auto;html=1;exitX=1;exitY=0.5;exitDx=0;exitDy=0;exitPerimeter=0;" edge="1" parent="1" source="fEtbqp9obuI-Wb2hrXB6-1" target="fMNfzONADS8vu6ALSTbc-2">
          <mxGeometry relative="1" as="geometry" />
        </mxCell>
      </root>
    </mxGraphModel>
  </diagram>
  <diagram id="qUBsMVRC8wYZSPG_frga" name="Add Vehicle subprocess">
    <mxGraphModel grid="1" page="1" gridSize="10" guides="1" tooltips="1" connect="1" arrows="1" fold="1" pageScale="1" pageWidth="850" pageHeight="1100" math="0" shadow="0">
      <root>
        <mxCell id="0" />
        <mxCell id="1" parent="0" />
        <mxCell id="Ln7kNrgSPzTDcE8gs-kt-3" value="" style="shape=image;verticalLabelPosition=bottom;labelBackgroundColor=default;verticalAlign=top;aspect=fixed;imageAspect=0;editableCssRules=.*;image=data:image/svg+xml,PHN2ZyB2ZXJzaW9uPSIxLjEiIHZpZXdCb3g9IjE1MSA3NSAyNTYyIDU3MCIgaGVpZ2h0PSI1NzAiIHdpZHRoPSIyNTYyIiB4bWxuczp4bGluaz0iaHR0cDovL3d3dy53My5vcmcvMTk5OS94bGluayIgeG1sbnM9Imh0dHA6Ly93d3cudzMub3JnLzIwMDAvc3ZnIj48ZGVmcz48cGF0dGVybiBwYXR0ZXJuVW5pdHM9InVzZXJTcGFjZU9uVXNlIiBoZWlnaHQ9IjEwIiB3aWR0aD0iMTAiIGlkPSJkanMtZ3JpZC1wYXR0ZXJuLTg2MzQyMyI+PGNpcmNsZSBzdHlsZT0iZmlsbDogcmdiKDIwNCwgMjA0LCAyMDQpOyIgcj0iMC41IiBjeT0iMC41IiBjeD0iMC41Ii8+PC9wYXR0ZXJuPjwvZGVmcz48ZyBjbGFzcz0iZGpzLWdyb3VwIj48ZyBzdHlsZT0iZGlzcGxheTogYmxvY2s7IiB0cmFuc2Zvcm09Im1hdHJpeCgxLCAwLCAwLCAxLCAxNTYsIDgwKSIgZGF0YS1lbGVtZW50LWlkPSJQYXJ0aWNpcGFudF8wM2FzMGRhIiBjbGFzcz0iZGpzLWVsZW1lbnQgZGpzLXNoYXBlIj48ZyBjbGFzcz0iZGpzLXZpc3VhbCI+PHJlY3Qgc3R5bGU9InN0cm9rZS1saW5lY2FwOiByb3VuZDsgc3Ryb2tlLWxpbmVqb2luOiByb3VuZDsgc3Ryb2tlOiByZ2IoMzQsIDM2LCA0Mik7IHN0cm9rZS13aWR0aDogMS41cHg7IGZpbGw6IHdoaXRlOyBmaWxsLW9wYWNpdHk6IDAuOTU7IiByeT0iMCIgcng9IjAiIGhlaWdodD0iNTYwIiB3aWR0aD0iMjU1MiIgeT0iMCIgeD0iMCIvPjxwYXRoIGQ9Ik0zMCwwTDMwLDU2MCIgc3R5bGU9ImZpbGw6IG5vbmU7IHN0cm9rZS1saW5lY2FwOiByb3VuZDsgc3Ryb2tlLWxpbmVqb2luOiByb3VuZDsgc3Ryb2tlOiByZ2IoMzQsIDM2LCA0Mik7IHN0cm9rZS13aWR0aDogMS41cHg7Ii8+PHRleHQgdHJhbnNmb3JtPSJtYXRyaXgoLTEuODM2OTdlLTE2LCAtMSwgMSwgLTEuODM2OTdlLTE2LCAwLCA1NjApIiBjbGFzcz0iZGpzLWxhYmVsIiBzdHlsZT0iZm9udC1mYW1pbHk6IEFyaWFsLCBzYW5zLXNlcmlmOyBmb250LXNpemU6IDEycHg7IGZvbnQtd2VpZ2h0OiBub3JtYWw7IGZpbGw6IHJnYigzNCwgMzYsIDQyKTsiPjx0c3BhbiB5PSIxOC42IiB4PSIyMzMuNjY2NjY3OTM4MjMyNDIiPlNheXlhcmF0IENhbmFkYTwvdHNwYW4+PC90ZXh0PjwvZz48cmVjdCBoZWlnaHQ9IjU2MCIgd2lkdGg9IjI1NTIiIHk9IjAiIHg9IjAiIGNsYXNzPSJkanMtaGl0IGRqcy1oaXQtbm8tbW92ZSIgc3R5bGU9ImZpbGw6IG5vbmU7IHN0cm9rZS1vcGFjaXR5OiAwOyBzdHJva2U6IHdoaXRlOyBzdHJva2Utd2lkdGg6IDE1cHg7Ii8+PHJlY3QgaGVpZ2h0PSI1NjAiIHdpZHRoPSIyNTUyIiB5PSIwIiB4PSIwIiBjbGFzcz0iZGpzLWhpdCBkanMtaGl0LWNsaWNrLXN0cm9rZSIgc3R5bGU9ImZpbGw6IG5vbmU7IHN0cm9rZS1vcGFjaXR5OiAwOyBzdHJva2U6IHdoaXRlOyBzdHJva2Utd2lkdGg6IDE1cHg7Ii8+PHJlY3QgaGVpZ2h0PSI1NjAiIHdpZHRoPSIzMCIgeT0iMCIgeD0iMCIgY2xhc3M9ImRqcy1oaXQgZGpzLWhpdC1hbGwiIHN0eWxlPSJmaWxsOiBub25lOyBzdHJva2Utb3BhY2l0eTogMDsgc3Ryb2tlOiB3aGl0ZTsgc3Ryb2tlLXdpZHRoOiAxNXB4OyIvPjxyZWN0IGNsYXNzPSJkanMtb3V0bGluZSIgc3R5bGU9ImZpbGw6IG5vbmU7IiBoZWlnaHQ9IjU3MCIgd2lkdGg9IjI1NjIiIHJ4PSI0IiB5PSItNSIgeD0iLTUiLz48L2c+PGcgY2xhc3M9ImRqcy1jaGlsZHJlbiI+PGcgY2xhc3M9ImRqcy1ncm91cCI+PGcgc3R5bGU9ImRpc3BsYXk6IGJsb2NrOyIgdHJhbnNmb3JtPSJtYXRyaXgoMSwgMCwgMCwgMSwgMTg2LCAzMjApIiBkYXRhLWVsZW1lbnQtaWQ9IkxhbmVfMGE1d3duZyIgY2xhc3M9ImRqcy1lbGVtZW50IGRqcy1zaGFwZSI+PGcgY2xhc3M9ImRqcy12aXN1YWwiPjxyZWN0IHN0eWxlPSJzdHJva2UtbGluZWNhcDogcm91bmQ7IHN0cm9rZS1saW5lam9pbjogcm91bmQ7IHN0cm9rZTogcmdiKDM0LCAzNiwgNDIpOyBzdHJva2Utd2lkdGg6IDEuNXB4OyBmaWxsOiB3aGl0ZTsgZmlsbC1vcGFjaXR5OiAwLjI1OyIgcnk9IjAiIHJ4PSIwIiBoZWlnaHQ9IjMyMCIgd2lkdGg9IjI1MjIiIHk9IjAiIHg9IjAiLz48dGV4dCB0cmFuc2Zvcm09Im1hdHJpeCgtMS44MzY5N2UtMTYsIC0xLCAxLCAtMS44MzY5N2UtMTYsIDAsIDMyMCkiIGNsYXNzPSJkanMtbGFiZWwiIHN0eWxlPSJmb250LWZhbWlseTogQXJpYWwsIHNhbnMtc2VyaWY7IGZvbnQtc2l6ZTogMTJweDsgZm9udC13ZWlnaHQ6IG5vcm1hbDsgZmlsbDogcmdiKDM0LCAzNiwgNDIpOyI+PHRzcGFuIHk9IjE4LjYiIHg9IjE0Ni42NjY2NjY5ODQ1NTgxIj5ETVM8L3RzcGFuPjwvdGV4dD48L2c+PHJlY3QgaGVpZ2h0PSIzMjAiIHdpZHRoPSIyNTIyIiB5PSIwIiB4PSIwIiBjbGFzcz0iZGpzLWhpdCBkanMtaGl0LW5vLW1vdmUiIHN0eWxlPSJmaWxsOiBub25lOyBzdHJva2Utb3BhY2l0eTogMDsgc3Ryb2tlOiB3aGl0ZTsgc3Ryb2tlLXdpZHRoOiAxNXB4OyIvPjxyZWN0IGhlaWdodD0iMzIwIiB3aWR0aD0iMjUyMiIgeT0iMCIgeD0iMCIgY2xhc3M9ImRqcy1oaXQgZGpzLWhpdC1jbGljay1zdHJva2UiIHN0eWxlPSJmaWxsOiBub25lOyBzdHJva2Utb3BhY2l0eTogMDsgc3Ryb2tlOiB3aGl0ZTsgc3Ryb2tlLXdpZHRoOiAxNXB4OyIvPjxyZWN0IGhlaWdodD0iMzIwIiB3aWR0aD0iMzAiIHk9IjAiIHg9IjAiIGNsYXNzPSJkanMtaGl0IGRqcy1oaXQtYWxsIiBzdHlsZT0iZmlsbDogbm9uZTsgc3Ryb2tlLW9wYWNpdHk6IDA7IHN0cm9rZTogd2hpdGU7IHN0cm9rZS13aWR0aDogMTVweDsiLz48cmVjdCBjbGFzcz0iZGpzLW91dGxpbmUiIHN0eWxlPSJmaWxsOiBub25lOyIgaGVpZ2h0PSIzMzAiIHdpZHRoPSIyNTMyIiByeD0iNCIgeT0iLTUiIHg9Ii01Ii8+PC9nPjwvZz48ZyBjbGFzcz0iZGpzLWdyb3VwIj48ZyBzdHlsZT0iZGlzcGxheTogYmxvY2s7IiB0cmFuc2Zvcm09Im1hdHJpeCgxLCAwLCAwLCAxLCAxODYsIDgwKSIgZGF0YS1lbGVtZW50LWlkPSJMYW5lXzA3c3JzcTIiIGNsYXNzPSJkanMtZWxlbWVudCBkanMtc2hhcGUiPjxnIGNsYXNzPSJkanMtdmlzdWFsIj48cmVjdCBzdHlsZT0ic3Ryb2tlLWxpbmVjYXA6IHJvdW5kOyBzdHJva2UtbGluZWpvaW46IHJvdW5kOyBzdHJva2U6IHJnYigzNCwgMzYsIDQyKTsgc3Ryb2tlLXdpZHRoOiAxLjVweDsgZmlsbDogd2hpdGU7IGZpbGwtb3BhY2l0eTogMC4yNTsiIHJ5PSIwIiByeD0iMCIgaGVpZ2h0PSIyNDAiIHdpZHRoPSIyNTIyIiB5PSIwIiB4PSIwIi8+PHRleHQgdHJhbnNmb3JtPSJtYXRyaXgoLTEuODM2OTdlLTE2LCAtMSwgMSwgLTEuODM2OTdlLTE2LCAwLCAyNDApIiBjbGFzcz0iZGpzLWxhYmVsIiBzdHlsZT0iZm9udC1mYW1pbHk6IEFyaWFsLCBzYW5zLXNlcmlmOyBmb250LXNpemU6IDEycHg7IGZvbnQtd2VpZ2h0OiBub3JtYWw7IGZpbGw6IHJnYigzNCwgMzYsIDQyKTsiPjx0c3BhbiB5PSIxOC42IiB4PSI5My4zMzMzMzM5NjkxMTYyMSI+RW1wbG95ZWU8L3RzcGFuPjwvdGV4dD48L2c+PHJlY3QgaGVpZ2h0PSIyNDAiIHdpZHRoPSIyNTIyIiB5PSIwIiB4PSIwIiBjbGFzcz0iZGpzLWhpdCBkanMtaGl0LW5vLW1vdmUiIHN0eWxlPSJmaWxsOiBub25lOyBzdHJva2Utb3BhY2l0eTogMDsgc3Ryb2tlOiB3aGl0ZTsgc3Ryb2tlLXdpZHRoOiAxNXB4OyIvPjxyZWN0IGhlaWdodD0iMjQwIiB3aWR0aD0iMjUyMiIgeT0iMCIgeD0iMCIgY2xhc3M9ImRqcy1oaXQgZGpzLWhpdC1jbGljay1zdHJva2UiIHN0eWxlPSJmaWxsOiBub25lOyBzdHJva2Utb3BhY2l0eTogMDsgc3Ryb2tlOiB3aGl0ZTsgc3Ryb2tlLXdpZHRoOiAxNXB4OyIvPjxyZWN0IGhlaWdodD0iMjQwIiB3aWR0aD0iMzAiIHk9IjAiIHg9IjAiIGNsYXNzPSJkanMtaGl0IGRqcy1oaXQtYWxsIiBzdHlsZT0iZmlsbDogbm9uZTsgc3Ryb2tlLW9wYWNpdHk6IDA7IHN0cm9rZTogd2hpdGU7IHN0cm9rZS13aWR0aDogMTVweDsiLz48cmVjdCBjbGFzcz0iZGpzLW91dGxpbmUiIHN0eWxlPSJmaWxsOiBub25lOyIgaGVpZ2h0PSIyNTAiIHdpZHRoPSIyNTMyIiByeD0iNCIgeT0iLTUiIHg9Ii01Ii8+PC9nPjwvZz48ZyBjbGFzcz0iZGpzLWdyb3VwIj48ZyBzdHlsZT0iZGlzcGxheTogYmxvY2s7IiB0cmFuc2Zvcm09Im1hdHJpeCgxLCAwLCAwLCAxLCAyNjIsIDE2MikiIGRhdGEtZWxlbWVudC1pZD0iU3RhcnRFdmVudF8xZ2NheHo2IiBjbGFzcz0iZGpzLWVsZW1lbnQgZGpzLXNoYXBlIj48ZyBjbGFzcz0iZGpzLXZpc3VhbCI+PGNpcmNsZSBzdHlsZT0ic3Ryb2tlLWxpbmVjYXA6IHJvdW5kOyBzdHJva2UtbGluZWpvaW46IHJvdW5kOyBzdHJva2U6IHJnYigzNCwgMzYsIDQyKTsgc3Ryb2tlLXdpZHRoOiAycHg7IGZpbGw6IHdoaXRlOyBmaWxsLW9wYWNpdHk6IDAuOTU7IiByPSIxOCIgY3k9IjE4IiBjeD0iMTgiLz48L2c+PHJlY3QgaGVpZ2h0PSIzNiIgd2lkdGg9IjM2IiB5PSIwIiB4PSIwIiBjbGFzcz0iZGpzLWhpdCBkanMtaGl0LWFsbCIgc3R5bGU9ImZpbGw6IG5vbmU7IHN0cm9rZS1vcGFjaXR5OiAwOyBzdHJva2U6IHdoaXRlOyBzdHJva2Utd2lkdGg6IDE1cHg7Ii8+PGNpcmNsZSBjbGFzcz0iZGpzLW91dGxpbmUiIHN0eWxlPSJmaWxsOiBub25lOyIgcj0iMjMiIGN5PSIxOCIgY3g9IjE4Ii8+PC9nPjwvZz48ZyBjbGFzcz0iZGpzLWdyb3VwIj48ZyBzdHlsZT0iZGlzcGxheTogYmxvY2s7IiB0cmFuc2Zvcm09Im1hdHJpeCgxLCAwLCAwLCAxLCAyNTQsIDIwNSkiIGRhdGEtZWxlbWVudC1pZD0iU3RhcnRFdmVudF8xZ2NheHo2X2xhYmVsIiBjbGFzcz0iZGpzLWVsZW1lbnQgZGpzLXNoYXBlIj48ZyBjbGFzcz0iZGpzLXZpc3VhbCI+PHRleHQgY2xhc3M9ImRqcy1sYWJlbCIgc3R5bGU9ImZvbnQtZmFtaWx5OiBBcmlhbCwgc2Fucy1zZXJpZjsgZm9udC1zaXplOiAxMXB4OyBmb250LXdlaWdodDogbm9ybWFsOyBmaWxsOiByZ2IoMzQsIDM2LCA0Mik7Ij48dHNwYW4geT0iOS44OTk5OTk5OTk5OTk5OTkiIHg9IjcuMDI0OTk5NjE4NTMwMjczIj5WZWhpY2xlIDwvdHNwYW4+PHRzcGFuIHk9IjIzLjA5OTk5OTk5OTk5OTk5OCIgeD0iMCI+UHVyY2hhc2VkPC90c3Bhbj48L3RleHQ+PC9nPjxyZWN0IGhlaWdodD0iMjciIHdpZHRoPSI1MyIgeT0iMCIgeD0iMCIgY2xhc3M9ImRqcy1oaXQgZGpzLWhpdC1hbGwiIHN0eWxlPSJmaWxsOiBub25lOyBzdHJva2Utb3BhY2l0eTogMDsgc3Ryb2tlOiB3aGl0ZTsgc3Ryb2tlLXdpZHRoOiAxNXB4OyIvPjxyZWN0IGNsYXNzPSJkanMtb3V0bGluZSIgc3R5bGU9ImZpbGw6IG5vbmU7IiBoZWlnaHQ9IjM3IiB3aWR0aD0iNjMiIHJ4PSI0IiB5PSItNSIgeD0iLTUiLz48L2c+PC9nPjxnIGNsYXNzPSJkanMtZ3JvdXAiPjxnIHN0eWxlPSJkaXNwbGF5OiBibG9jazsiIHRyYW5zZm9ybT0ibWF0cml4KDEsIDAsIDAsIDEsIDM1MCwgMTQwKSIgZGF0YS1lbGVtZW50LWlkPSJBY3Rpdml0eV8xZG43NzJ5IiBjbGFzcz0iZGpzLWVsZW1lbnQgZGpzLXNoYXBlIj48ZyBjbGFzcz0iZGpzLXZpc3VhbCI+PHJlY3Qgc3R5bGU9InN0cm9rZS1saW5lY2FwOiByb3VuZDsgc3Ryb2tlLWxpbmVqb2luOiByb3VuZDsgc3Ryb2tlOiByZ2IoMzQsIDM2LCA0Mik7IHN0cm9rZS13aWR0aDogMnB4OyBmaWxsOiB3aGl0ZTsgZmlsbC1vcGFjaXR5OiAwLjk1OyIgcnk9IjEwIiByeD0iMTAiIGhlaWdodD0iODAiIHdpZHRoPSIxMDAiIHk9IjAiIHg9IjAiLz48dGV4dCBjbGFzcz0iZGpzLWxhYmVsIiBzdHlsZT0iZm9udC1mYW1pbHk6IEFyaWFsLCBzYW5zLXNlcmlmOyBmb250LXNpemU6IDEycHg7IGZvbnQtd2VpZ2h0OiBub3JtYWw7IGZpbGw6IHJnYigzNCwgMzYsIDQyKTsiPjx0c3BhbiB5PSIyOS4yMDAwMDAwMDAwMDAwMDMiIHg9IjE3LjIwMDAwMDc2MjkzOTQ1MyI+U2VsZWN0ICJBZGQgPC90c3Bhbj48dHNwYW4geT0iNDMuNiIgeD0iOC42NTgzMzI4MjQ3MDcwMzEiPk5ldyBWZWhpY2xlIHRvIDwvdHNwYW4+PHRzcGFuIHk9IjU4IiB4PSIyMy4yMDAwMDA3NjI5Mzk0NTMiPkludmVudG9yeSI8L3RzcGFuPjwvdGV4dD48L2c+PHJlY3QgaGVpZ2h0PSI4MCIgd2lkdGg9IjEwMCIgeT0iMCIgeD0iMCIgY2xhc3M9ImRqcy1oaXQgZGpzLWhpdC1hbGwiIHN0eWxlPSJmaWxsOiBub25lOyBzdHJva2Utb3BhY2l0eTogMDsgc3Ryb2tlOiB3aGl0ZTsgc3Ryb2tlLXdpZHRoOiAxNXB4OyIvPjxyZWN0IGNsYXNzPSJkanMtb3V0bGluZSIgc3R5bGU9ImZpbGw6IG5vbmU7IiBoZWlnaHQ9IjkwIiB3aWR0aD0iMTEwIiByeD0iMTQiIHk9Ii01IiB4PSItNSIvPjwvZz48L2c+PGcgY2xhc3M9ImRqcy1ncm91cCI+PGcgc3R5bGU9ImRpc3BsYXk6IGJsb2NrOyIgdHJhbnNmb3JtPSJtYXRyaXgoMSwgMCwgMCwgMSwgNzMwLCAzODApIiBkYXRhLWVsZW1lbnQtaWQ9IkFjdGl2aXR5XzBmdXU5amsiIGNsYXNzPSJkanMtZWxlbWVudCBkanMtc2hhcGUiPjxnIGNsYXNzPSJkanMtdmlzdWFsIj48cmVjdCBzdHlsZT0ic3Ryb2tlLWxpbmVjYXA6IHJvdW5kOyBzdHJva2UtbGluZWpvaW46IHJvdW5kOyBzdHJva2U6IHJnYigzNCwgMzYsIDQyKTsgc3Ryb2tlLXdpZHRoOiAycHg7IGZpbGw6IHdoaXRlOyBmaWxsLW9wYWNpdHk6IDAuOTU7IiByeT0iMTAiIHJ4PSIxMCIgaGVpZ2h0PSI4MCIgd2lkdGg9IjEwMCIgeT0iMCIgeD0iMCIvPjx0ZXh0IGNsYXNzPSJkanMtbGFiZWwiIHN0eWxlPSJmb250LWZhbWlseTogQXJpYWwsIHNhbnMtc2VyaWY7IGZvbnQtc2l6ZTogMTJweDsgZm9udC13ZWlnaHQ6IG5vcm1hbDsgZmlsbDogcmdiKDM0LCAzNiwgNDIpOyI+PHRzcGFuIHk9IjQzLjU5OTk5OTk5OTk5OTk5NCIgeD0iMTcuMTA4MzMzNTg3NjQ2NDg0Ij5WYWxpZGF0ZSBWSU48L3RzcGFuPjwvdGV4dD48L2c+PHJlY3QgaGVpZ2h0PSI4MCIgd2lkdGg9IjEwMCIgeT0iMCIgeD0iMCIgY2xhc3M9ImRqcy1oaXQgZGpzLWhpdC1hbGwiIHN0eWxlPSJmaWxsOiBub25lOyBzdHJva2Utb3BhY2l0eTogMDsgc3Ryb2tlOiB3aGl0ZTsgc3Ryb2tlLXdpZHRoOiAxNXB4OyIvPjxyZWN0IGNsYXNzPSJkanMtb3V0bGluZSIgc3R5bGU9ImZpbGw6IG5vbmU7IiBoZWlnaHQ9IjkwIiB3aWR0aD0iMTEwIiByeD0iMTQiIHk9Ii01IiB4PSItNSIvPjwvZz48L2c+PGcgY2xhc3M9ImRqcy1ncm91cCI+PGcgc3R5bGU9ImRpc3BsYXk6IGJsb2NrOyIgdHJhbnNmb3JtPSJtYXRyaXgoMSwgMCwgMCwgMSwgODg1LCAzOTUpIiBkYXRhLWVsZW1lbnQtaWQ9IkdhdGV3YXlfMXI3ZTE3ZCIgY2xhc3M9ImRqcy1lbGVtZW50IGRqcy1zaGFwZSI+PGcgY2xhc3M9ImRqcy12aXN1YWwiPjxwb2x5Z29uIHBvaW50cz0iMjUsMCA1MCwyNSAyNSw1MCAwLDI1IiBzdHlsZT0ic3Ryb2tlLWxpbmVjYXA6IHJvdW5kOyBzdHJva2UtbGluZWpvaW46IHJvdW5kOyBzdHJva2U6IHJnYigzNCwgMzYsIDQyKTsgc3Ryb2tlLXdpZHRoOiAycHg7IGZpbGw6IHdoaXRlOyBmaWxsLW9wYWNpdHk6IDAuOTU7Ii8+PHBhdGggZD0ibSAxNiwxNSA3LjQyODU3MTQyODU3MTQzLDkuNzE0Mjg1NzE0Mjg1NzE1IC03LjQyODU3MTQyODU3MTQzLDkuNzE0Mjg1NzE0Mjg1NzE1IDMuNDI4NTcxNDI4NTcxNDI5LDAgNS43MTQyODU3MTQyODU3MTUsLTcuNDY0MjI4NTcxNDI4NTcyIDUuNzE0Mjg1NzE0Mjg1NzE1LDcuNDY0MjI4NTcxNDI4NTcyIDMuNDI4NTcxNDI4NTcxNDI5LDAgLTcuNDI4NTcxNDI4NTcxNDMsLTkuNzE0Mjg1NzE0Mjg1NzE1IDcuNDI4NTcxNDI4NTcxNDMsLTkuNzE0Mjg1NzE0Mjg1NzE1IC0zLjQyODU3MTQyODU3MTQyOSwwIC01LjcxNDI4NTcxNDI4NTcxNSw3LjQ2NDIyODU3MTQyODU3MiAtNS43MTQyODU3MTQyODU3MTUsLTcuNDY0MjI4NTcxNDI4NTcyIC0zLjQyODU3MTQyODU3MTQyOSwwIHoiIHN0eWxlPSJmaWxsOiByZ2IoMzQsIDM2LCA0Mik7IHN0cm9rZS1saW5lY2FwOiByb3VuZDsgc3Ryb2tlLWxpbmVqb2luOiByb3VuZDsgc3Ryb2tlOiByZ2IoMzQsIDM2LCA0Mik7IHN0cm9rZS13aWR0aDogMXB4OyIvPjwvZz48cmVjdCBoZWlnaHQ9IjUwIiB3aWR0aD0iNTAiIHk9IjAiIHg9IjAiIGNsYXNzPSJkanMtaGl0IGRqcy1oaXQtYWxsIiBzdHlsZT0iZmlsbDogbm9uZTsgc3Ryb2tlLW9wYWNpdHk6IDA7IHN0cm9rZTogd2hpdGU7IHN0cm9rZS13aWR0aDogMTVweDsiLz48cmVjdCBjbGFzcz0iZGpzLW91dGxpbmUiIGhlaWdodD0iNDYiIHdpZHRoPSI0NiIgcng9IjQiIHk9IjIiIHg9IjIiIHN0eWxlPSJ0cmFuc2Zvcm0tYm94OiBmaWxsLWJveDsgdHJhbnNmb3JtOiByb3RhdGUoNDVkZWcpOyB0cmFuc2Zvcm0tb3JpZ2luOiBjZW50ZXIgY2VudGVyIDBweDsgZmlsbDogbm9uZTsiLz48L2c+PC9nPjxnIGNsYXNzPSJkanMtZ3JvdXAiPjxnIHN0eWxlPSJkaXNwbGF5OiBibG9jazsiIHRyYW5zZm9ybT0ibWF0cml4KDEsIDAsIDAsIDEsIDEwNTAsIDM4MCkiIGRhdGEtZWxlbWVudC1pZD0iQWN0aXZpdHlfMG92bms2MyIgY2xhc3M9ImRqcy1lbGVtZW50IGRqcy1zaGFwZSI+PGcgY2xhc3M9ImRqcy12aXN1YWwiPjxyZWN0IHN0eWxlPSJzdHJva2UtbGluZWNhcDogcm91bmQ7IHN0cm9rZS1saW5lam9pbjogcm91bmQ7IHN0cm9rZTogcmdiKDM0LCAzNiwgNDIpOyBzdHJva2Utd2lkdGg6IDJweDsgZmlsbDogd2hpdGU7IGZpbGwtb3BhY2l0eTogMC45NTsiIHJ5PSIxMCIgcng9IjEwIiBoZWlnaHQ9IjgwIiB3aWR0aD0iMTAwIiB5PSIwIiB4PSIwIi8+PHRleHQgY2xhc3M9ImRqcy1sYWJlbCIgc3R5bGU9ImZvbnQtZmFtaWx5OiBBcmlhbCwgc2Fucy1zZXJpZjsgZm9udC1zaXplOiAxMnB4OyBmb250LXdlaWdodDogbm9ybWFsOyBmaWxsOiByZ2IoMzQsIDM2LCA0Mik7Ij48dHNwYW4geT0iMjIiIHg9IjI2LjMzMzMzMzk2OTExNjIxIj5BdXRvLUZpbGwgPC90c3Bhbj48dHNwYW4geT0iMzYuNCIgeD0iMTAuOTkxNjY0ODg2NDc0NjEiPlZlaGljbGUgTWFrZSwgPC90c3Bhbj48dHNwYW4geT0iNTAuOCIgeD0iMTUuMjI0OTk4NDc0MTIxMDk0Ij5Nb2RlbCwgVHJpbSwgPC90c3Bhbj48dHNwYW4geT0iNjUuMTk5OTk5OTk5OTk5OTkiIHg9IjE3LjIxNjY2NzE3NTI5Mjk3Ij5ZZWFyLCBDb2xvdXI8L3RzcGFuPjwvdGV4dD48L2c+PHJlY3QgaGVpZ2h0PSI4MCIgd2lkdGg9IjEwMCIgeT0iMCIgeD0iMCIgY2xhc3M9ImRqcy1oaXQgZGpzLWhpdC1hbGwiIHN0eWxlPSJmaWxsOiBub25lOyBzdHJva2Utb3BhY2l0eTogMDsgc3Ryb2tlOiB3aGl0ZTsgc3Ryb2tlLXdpZHRoOiAxNXB4OyIvPjxyZWN0IGNsYXNzPSJkanMtb3V0bGluZSIgc3R5bGU9ImZpbGw6IG5vbmU7IiBoZWlnaHQ9IjkwIiB3aWR0aD0iMTEwIiByeD0iMTQiIHk9Ii01IiB4PSItNSIvPjwvZz48L2c+PGcgY2xhc3M9ImRqcy1ncm91cCI+PGcgc3R5bGU9ImRpc3BsYXk6IGJsb2NrOyIgdHJhbnNmb3JtPSJtYXRyaXgoMSwgMCwgMCwgMSwgMTIzMCwgMzgwKSIgZGF0YS1lbGVtZW50LWlkPSJBY3Rpdml0eV8xZnl0NGNiIiBjbGFzcz0iZGpzLWVsZW1lbnQgZGpzLXNoYXBlIj48ZyBjbGFzcz0iZGpzLXZpc3VhbCI+PHJlY3Qgc3R5bGU9InN0cm9rZS1saW5lY2FwOiByb3VuZDsgc3Ryb2tlLWxpbmVqb2luOiByb3VuZDsgc3Ryb2tlOiByZ2IoMzQsIDM2LCA0Mik7IHN0cm9rZS13aWR0aDogMnB4OyBmaWxsOiB3aGl0ZTsgZmlsbC1vcGFjaXR5OiAwLjk1OyIgcnk9IjEwIiByeD0iMTAiIGhlaWdodD0iODAiIHdpZHRoPSIxMDAiIHk9IjAiIHg9IjAiLz48dGV4dCBjbGFzcz0iZGpzLWxhYmVsIiBzdHlsZT0iZm9udC1mYW1pbHk6IEFyaWFsLCBzYW5zLXNlcmlmOyBmb250LXNpemU6IDEycHg7IGZvbnQtd2VpZ2h0OiBub3JtYWw7IGZpbGw6IHJnYigzNCwgMzYsIDQyKTsiPjx0c3BhbiB5PSIyOS4yMDAwMDAwMDAwMDAwMDMiIHg9IjI2Ij5SZXF1ZXN0IDwvdHNwYW4+PHRzcGFuIHk9IjQzLjYiIHg9IjcuNjY2NjY3OTM4MjMyNDIyIj5Db25maXJtYXRpb24gb2YgPC90c3Bhbj48dHNwYW4geT0iNTgiIHg9IjEwLjY1ODMzMjgyNDcwNzAzMSI+VmVoaWNsZSBEZXRhaWxzPC90c3Bhbj48L3RleHQ+PC9nPjxyZWN0IGhlaWdodD0iODAiIHdpZHRoPSIxMDAiIHk9IjAiIHg9IjAiIGNsYXNzPSJkanMtaGl0IGRqcy1oaXQtYWxsIiBzdHlsZT0iZmlsbDogbm9uZTsgc3Ryb2tlLW9wYWNpdHk6IDA7IHN0cm9rZTogd2hpdGU7IHN0cm9rZS13aWR0aDogMTVweDsiLz48cmVjdCBjbGFzcz0iZGpzLW91dGxpbmUiIHN0eWxlPSJmaWxsOiBub25lOyIgaGVpZ2h0PSI5MCIgd2lkdGg9IjExMCIgcng9IjE0IiB5PSItNSIgeD0iLTUiLz48L2c+PC9nPjxnIGNsYXNzPSJkanMtZ3JvdXAiPjxnIHN0eWxlPSJkaXNwbGF5OiBibG9jazsiIHRyYW5zZm9ybT0ibWF0cml4KDEsIDAsIDAsIDEsIDEzNzAsIDE0MCkiIGRhdGEtZWxlbWVudC1pZD0iQWN0aXZpdHlfMWN5ZzAxcSIgY2xhc3M9ImRqcy1lbGVtZW50IGRqcy1zaGFwZSI+PGcgY2xhc3M9ImRqcy12aXN1YWwiPjxyZWN0IHN0eWxlPSJzdHJva2UtbGluZWNhcDogcm91bmQ7IHN0cm9rZS1saW5lam9pbjogcm91bmQ7IHN0cm9rZTogcmdiKDM0LCAzNiwgNDIpOyBzdHJva2Utd2lkdGg6IDJweDsgZmlsbDogd2hpdGU7IGZpbGwtb3BhY2l0eTogMC45NTsiIHJ5PSIxMCIgcng9IjEwIiBoZWlnaHQ9IjgwIiB3aWR0aD0iMTAwIiB5PSIwIiB4PSIwIi8+PHRleHQgY2xhc3M9ImRqcy1sYWJlbCIgc3R5bGU9ImZvbnQtZmFtaWx5OiBBcmlhbCwgc2Fucy1zZXJpZjsgZm9udC1zaXplOiAxMnB4OyBmb250LXdlaWdodDogbm9ybWFsOyBmaWxsOiByZ2IoMzQsIDM2LCA0Mik7Ij48dHNwYW4geT0iMzYuNCIgeD0iNy45OTE2NjQ4ODY0NzQ2MDkiPkNvbmZpcm0gVmVoaWNsZTwvdHNwYW4+PHRzcGFuIHk9IjUwLjgiIHg9IjMxLjY2NjY2NjAzMDg4Mzc5Ij5EZXRhaWxzPC90c3Bhbj48L3RleHQ+PC9nPjxyZWN0IGhlaWdodD0iODAiIHdpZHRoPSIxMDAiIHk9IjAiIHg9IjAiIGNsYXNzPSJkanMtaGl0IGRqcy1oaXQtYWxsIiBzdHlsZT0iZmlsbDogbm9uZTsgc3Ryb2tlLW9wYWNpdHk6IDA7IHN0cm9rZTogd2hpdGU7IHN0cm9rZS13aWR0aDogMTVweDsiLz48cmVjdCBjbGFzcz0iZGpzLW91dGxpbmUiIHN0eWxlPSJmaWxsOiBub25lOyIgaGVpZ2h0PSI5MCIgd2lkdGg9IjExMCIgcng9IjE0IiB5PSItNSIgeD0iLTUiLz48L2c+PC9nPjxnIGNsYXNzPSJkanMtZ3JvdXAiPjxnIHN0eWxlPSJkaXNwbGF5OiBibG9jazsiIHRyYW5zZm9ybT0ibWF0cml4KDEsIDAsIDAsIDEsIDEzOTUsIDM5NSkiIGRhdGEtZWxlbWVudC1pZD0iR2F0ZXdheV8xdjEyaGc2IiBjbGFzcz0iZGpzLWVsZW1lbnQgZGpzLXNoYXBlIj48ZyBjbGFzcz0iZGpzLXZpc3VhbCI+PHBvbHlnb24gcG9pbnRzPSIyNSwwIDUwLDI1IDI1LDUwIDAsMjUiIHN0eWxlPSJzdHJva2UtbGluZWNhcDogcm91bmQ7IHN0cm9rZS1saW5lam9pbjogcm91bmQ7IHN0cm9rZTogcmdiKDM0LCAzNiwgNDIpOyBzdHJva2Utd2lkdGg6IDJweDsgZmlsbDogd2hpdGU7IGZpbGwtb3BhY2l0eTogMC45NTsiLz48cGF0aCBkPSJtIDE2LDE1IDcuNDI4NTcxNDI4NTcxNDMsOS43MTQyODU3MTQyODU3MTUgLTcuNDI4NTcxNDI4NTcxNDMsOS43MTQyODU3MTQyODU3MTUgMy40Mjg1NzE0Mjg1NzE0MjksMCA1LjcxNDI4NTcxNDI4NTcxNSwtNy40NjQyMjg1NzE0Mjg1NzIgNS43MTQyODU3MTQyODU3MTUsNy40NjQyMjg1NzE0Mjg1NzIgMy40Mjg1NzE0Mjg1NzE0MjksMCAtNy40Mjg1NzE0Mjg1NzE0MywtOS43MTQyODU3MTQyODU3MTUgNy40Mjg1NzE0Mjg1NzE0MywtOS43MTQyODU3MTQyODU3MTUgLTMuNDI4NTcxNDI4NTcxNDI5LDAgLTUuNzE0Mjg1NzE0Mjg1NzE1LDcuNDY0MjI4NTcxNDI4NTcyIC01LjcxNDI4NTcxNDI4NTcxNSwtNy40NjQyMjg1NzE0Mjg1NzIgLTMuNDI4NTcxNDI4NTcxNDI5LDAgeiIgc3R5bGU9ImZpbGw6IHJnYigzNCwgMzYsIDQyKTsgc3Ryb2tlLWxpbmVjYXA6IHJvdW5kOyBzdHJva2UtbGluZWpvaW46IHJvdW5kOyBzdHJva2U6IHJnYigzNCwgMzYsIDQyKTsgc3Ryb2tlLXdpZHRoOiAxcHg7Ii8+PC9nPjxyZWN0IGhlaWdodD0iNTAiIHdpZHRoPSI1MCIgeT0iMCIgeD0iMCIgY2xhc3M9ImRqcy1oaXQgZGpzLWhpdC1hbGwiIHN0eWxlPSJmaWxsOiBub25lOyBzdHJva2Utb3BhY2l0eTogMDsgc3Ryb2tlOiB3aGl0ZTsgc3Ryb2tlLXdpZHRoOiAxNXB4OyIvPjxyZWN0IGNsYXNzPSJkanMtb3V0bGluZSIgaGVpZ2h0PSI0NiIgd2lkdGg9IjQ2IiByeD0iNCIgeT0iMiIgeD0iMiIgc3R5bGU9InRyYW5zZm9ybS1ib3g6IGZpbGwtYm94OyB0cmFuc2Zvcm06IHJvdGF0ZSg0NWRlZyk7IHRyYW5zZm9ybS1vcmlnaW46IGNlbnRlciBjZW50ZXIgMHB4OyBmaWxsOiBub25lOyIvPjwvZz48L2c+PGcgY2xhc3M9ImRqcy1ncm91cCI+PGcgc3R5bGU9ImRpc3BsYXk6IGJsb2NrOyIgdHJhbnNmb3JtPSJtYXRyaXgoMSwgMCwgMCwgMSwgMTQ5MCwgMzgwKSIgZGF0YS1lbGVtZW50LWlkPSJBY3Rpdml0eV8xMWRrbjltIiBjbGFzcz0iZGpzLWVsZW1lbnQgZGpzLXNoYXBlIj48ZyBjbGFzcz0iZGpzLXZpc3VhbCI+PHJlY3Qgc3R5bGU9InN0cm9rZS1saW5lY2FwOiByb3VuZDsgc3Ryb2tlLWxpbmVqb2luOiByb3VuZDsgc3Ryb2tlOiByZ2IoMzQsIDM2LCA0Mik7IHN0cm9rZS13aWR0aDogMnB4OyBmaWxsOiB3aGl0ZTsgZmlsbC1vcGFjaXR5OiAwLjk1OyIgcnk9IjEwIiByeD0iMTAiIGhlaWdodD0iODAiIHdpZHRoPSIxMDAiIHk9IjAiIHg9IjAiLz48dGV4dCBjbGFzcz0iZGpzLWxhYmVsIiBzdHlsZT0iZm9udC1mYW1pbHk6IEFyaWFsLCBzYW5zLXNlcmlmOyBmb250LXNpemU6IDEycHg7IGZvbnQtd2VpZ2h0OiBub3JtYWw7IGZpbGw6IHJnYigzNCwgMzYsIDQyKTsiPjx0c3BhbiB5PSIyOS4yMDAwMDAwMDAwMDAwMDMiIHg9IjEwLjMzMzMzMjA2MTc2NzU3OCI+QXV0by1nZW5lcmF0ZSA8L3RzcGFuPjx0c3BhbiB5PSI0My42IiB4PSI4LjMyNTAwMDc2MjkzOTQ1MyI+VW5pcXVlIFZlaGljbGUgPC90c3Bhbj48dHNwYW4geT0iNTgiIHg9IjI3LjMzMzMzMzk2OTExNjIxIj5TdG9jayBJRDwvdHNwYW4+PC90ZXh0PjwvZz48cmVjdCBoZWlnaHQ9IjgwIiB3aWR0aD0iMTAwIiB5PSIwIiB4PSIwIiBjbGFzcz0iZGpzLWhpdCBkanMtaGl0LWFsbCIgc3R5bGU9ImZpbGw6IG5vbmU7IHN0cm9rZS1vcGFjaXR5OiAwOyBzdHJva2U6IHdoaXRlOyBzdHJva2Utd2lkdGg6IDE1cHg7Ii8+PHJlY3QgY2xhc3M9ImRqcy1vdXRsaW5lIiBzdHlsZT0iZmlsbDogbm9uZTsiIGhlaWdodD0iOTAiIHdpZHRoPSIxMTAiIHJ4PSIxNCIgeT0iLTUiIHg9Ii01Ii8+PC9nPjwvZz48ZyBjbGFzcz0iZGpzLWdyb3VwIj48ZyBzdHlsZT0iZGlzcGxheTogYmxvY2s7IiB0cmFuc2Zvcm09Im1hdHJpeCgxLCAwLCAwLCAxLCAxNjUwLCAzODApIiBkYXRhLWVsZW1lbnQtaWQ9IkFjdGl2aXR5XzFyZzdvNnkiIGNsYXNzPSJkanMtZWxlbWVudCBkanMtc2hhcGUiPjxnIGNsYXNzPSJkanMtdmlzdWFsIj48cmVjdCBzdHlsZT0ic3Ryb2tlLWxpbmVjYXA6IHJvdW5kOyBzdHJva2UtbGluZWpvaW46IHJvdW5kOyBzdHJva2U6IHJnYigzNCwgMzYsIDQyKTsgc3Ryb2tlLXdpZHRoOiAycHg7IGZpbGw6IHdoaXRlOyBmaWxsLW9wYWNpdHk6IDAuOTU7IiByeT0iMTAiIHJ4PSIxMCIgaGVpZ2h0PSI4MCIgd2lkdGg9IjEwMCIgeT0iMCIgeD0iMCIvPjx0ZXh0IGNsYXNzPSJkanMtbGFiZWwiIHN0eWxlPSJmb250LWZhbWlseTogQXJpYWwsIHNhbnMtc2VyaWY7IGZvbnQtc2l6ZTogMTJweDsgZm9udC13ZWlnaHQ6IG5vcm1hbDsgZmlsbDogcmdiKDM0LCAzNiwgNDIpOyI+PHRzcGFuIHk9IjIyIiB4PSIyNiI+UmVxdWVzdCA8L3RzcGFuPjx0c3BhbiB5PSIzNi40IiB4PSI4LjY2NjY2NzkzODIzMjQyMiI+UHVyY2hhc2UgRGF0ZSw8L3RzcGFuPjx0c3BhbiB5PSI1MC44IiB4PSI3LjY2NjY2NzkzODIzMjQyMiI+UHVyY2hhc2UgUHJpY2UsPC90c3Bhbj48dHNwYW4geT0iNjUuMTk5OTk5OTk5OTk5OTkiIHg9IjMzIj5TdGF0dXM8L3RzcGFuPjwvdGV4dD48L2c+PHJlY3QgaGVpZ2h0PSI4MCIgd2lkdGg9IjEwMCIgeT0iMCIgeD0iMCIgY2xhc3M9ImRqcy1oaXQgZGpzLWhpdC1hbGwiIHN0eWxlPSJmaWxsOiBub25lOyBzdHJva2Utb3BhY2l0eTogMDsgc3Ryb2tlOiB3aGl0ZTsgc3Ryb2tlLXdpZHRoOiAxNXB4OyIvPjxyZWN0IGNsYXNzPSJkanMtb3V0bGluZSIgc3R5bGU9ImZpbGw6IG5vbmU7IiBoZWlnaHQ9IjkwIiB3aWR0aD0iMTEwIiByeD0iMTQiIHk9Ii01IiB4PSItNSIvPjwvZz48L2c+PGcgY2xhc3M9ImRqcy1ncm91cCI+PGcgc3R5bGU9ImRpc3BsYXk6IGJsb2NrOyIgdHJhbnNmb3JtPSJtYXRyaXgoMSwgMCwgMCwgMSwgMTY1MCwgMTQwKSIgZGF0YS1lbGVtZW50LWlkPSJBY3Rpdml0eV8xM3gzMHFiIiBjbGFzcz0iZGpzLWVsZW1lbnQgZGpzLXNoYXBlIj48ZyBjbGFzcz0iZGpzLXZpc3VhbCI+PHJlY3Qgc3R5bGU9InN0cm9rZS1saW5lY2FwOiByb3VuZDsgc3Ryb2tlLWxpbmVqb2luOiByb3VuZDsgc3Ryb2tlOiByZ2IoMzQsIDM2LCA0Mik7IHN0cm9rZS13aWR0aDogMnB4OyBmaWxsOiB3aGl0ZTsgZmlsbC1vcGFjaXR5OiAwLjk1OyIgcnk9IjEwIiByeD0iMTAiIGhlaWdodD0iODAiIHdpZHRoPSIxMDAiIHk9IjAiIHg9IjAiLz48dGV4dCBjbGFzcz0iZGpzLWxhYmVsIiBzdHlsZT0iZm9udC1mYW1pbHk6IEFyaWFsLCBzYW5zLXNlcmlmOyBmb250LXNpemU6IDEycHg7IGZvbnQtd2VpZ2h0OiBub3JtYWw7IGZpbGw6IHJnYigzNCwgMzYsIDQyKTsiPjx0c3BhbiB5PSIyOS4yMDAwMDAwMDAwMDAwMDMiIHg9IjguNjY2NjY3OTM4MjMyNDIyIj5FbnRlciBQdXJjaGFzZTwvdHNwYW4+PHRzcGFuIHk9IjQzLjYiIHg9IjguNjY2NjY3OTM4MjMyNDIyIj5EYXRlLCBQdXJjaGFzZTwvdHNwYW4+PHRzcGFuIHk9IjU4IiB4PSIzNi4zMzMzMzMwMTU0NDE4OTUiPlByaWNlPC90c3Bhbj48L3RleHQ+PC9nPjxyZWN0IGhlaWdodD0iODAiIHdpZHRoPSIxMDAiIHk9IjAiIHg9IjAiIGNsYXNzPSJkanMtaGl0IGRqcy1oaXQtYWxsIiBzdHlsZT0iZmlsbDogbm9uZTsgc3Ryb2tlLW9wYWNpdHk6IDA7IHN0cm9rZTogd2hpdGU7IHN0cm9rZS13aWR0aDogMTVweDsiLz48cmVjdCBjbGFzcz0iZGpzLW91dGxpbmUiIHN0eWxlPSJmaWxsOiBub25lOyIgaGVpZ2h0PSI5MCIgd2lkdGg9IjExMCIgcng9IjE0IiB5PSItNSIgeD0iLTUiLz48L2c+PC9nPjxnIGNsYXNzPSJkanMtZ3JvdXAiPjxnIHN0eWxlPSJkaXNwbGF5OiBibG9jazsiIHRyYW5zZm9ybT0ibWF0cml4KDEsIDAsIDAsIDEsIDE4MDAsIDE0MCkiIGRhdGEtZWxlbWVudC1pZD0iQWN0aXZpdHlfMTE2cGJueCIgY2xhc3M9ImRqcy1lbGVtZW50IGRqcy1zaGFwZSI+PGcgY2xhc3M9ImRqcy12aXN1YWwiPjxyZWN0IHN0eWxlPSJzdHJva2UtbGluZWNhcDogcm91bmQ7IHN0cm9rZS1saW5lam9pbjogcm91bmQ7IHN0cm9rZTogcmdiKDM0LCAzNiwgNDIpOyBzdHJva2Utd2lkdGg6IDJweDsgZmlsbDogd2hpdGU7IGZpbGwtb3BhY2l0eTogMC45NTsiIHJ5PSIxMCIgcng9IjEwIiBoZWlnaHQ9IjgwIiB3aWR0aD0iMTAwIiB5PSIwIiB4PSIwIi8+PHRleHQgY2xhc3M9ImRqcy1sYWJlbCIgc3R5bGU9ImZvbnQtZmFtaWx5OiBBcmlhbCwgc2Fucy1zZXJpZjsgZm9udC1zaXplOiAxMnB4OyBmb250LXdlaWdodDogbm9ybWFsOyBmaWxsOiByZ2IoMzQsIDM2LCA0Mik7Ij48dHNwYW4geT0iMzYuNCIgeD0iMTQiPlNldCBTdGF0dXMgdG8gPC90c3Bhbj48dHNwYW4geT0iNTAuOCIgeD0iMjQuMDY2NjY3NTU2NzYyNjk1Ij4iSW4gU3RvY2siPC90c3Bhbj48L3RleHQ+PC9nPjxyZWN0IGhlaWdodD0iODAiIHdpZHRoPSIxMDAiIHk9IjAiIHg9IjAiIGNsYXNzPSJkanMtaGl0IGRqcy1oaXQtYWxsIiBzdHlsZT0iZmlsbDogbm9uZTsgc3Ryb2tlLW9wYWNpdHk6IDA7IHN0cm9rZTogd2hpdGU7IHN0cm9rZS13aWR0aDogMTVweDsiLz48cmVjdCBjbGFzcz0iZGpzLW91dGxpbmUiIHN0eWxlPSJmaWxsOiBub25lOyIgaGVpZ2h0PSI5MCIgd2lkdGg9IjExMCIgcng9IjE0IiB5PSItNSIgeD0iLTUiLz48L2c+PC9nPjxnIGNsYXNzPSJkanMtZ3JvdXAiPjxnIHN0eWxlPSJkaXNwbGF5OiBibG9jazsiIHRyYW5zZm9ybT0ibWF0cml4KDEsIDAsIDAsIDEsIDE4MDAsIDM4MCkiIGRhdGEtZWxlbWVudC1pZD0iQWN0aXZpdHlfMGg3cGRseiIgY2xhc3M9ImRqcy1lbGVtZW50IGRqcy1zaGFwZSI+PGcgY2xhc3M9ImRqcy12aXN1YWwiPjxyZWN0IHN0eWxlPSJzdHJva2UtbGluZWNhcDogcm91bmQ7IHN0cm9rZS1saW5lam9pbjogcm91bmQ7IHN0cm9rZTogcmdiKDM0LCAzNiwgNDIpOyBzdHJva2Utd2lkdGg6IDJweDsgZmlsbDogd2hpdGU7IGZpbGwtb3BhY2l0eTogMC45NTsiIHJ5PSIxMCIgcng9IjEwIiBoZWlnaHQ9IjgwIiB3aWR0aD0iMTAwIiB5PSIwIiB4PSIwIi8+PHRleHQgY2xhc3M9ImRqcy1sYWJlbCIgc3R5bGU9ImZvbnQtZmFtaWx5OiBBcmlhbCwgc2Fucy1zZXJpZjsgZm9udC1zaXplOiAxMnB4OyBmb250LXdlaWdodDogbm9ybWFsOyBmaWxsOiByZ2IoMzQsIDM2LCA0Mik7Ij48dHNwYW4geT0iMjkuMjAwMDAwMDAwMDAwMDAzIiB4PSIyNiI+UmVxdWVzdCA8L3RzcGFuPjx0c3BhbiB5PSI0My42IiB4PSIyMSI+RG9jdW1lbnQgPC90c3Bhbj48dHNwYW4geT0iNTgiIHg9IjMxIj5VcGxvYWQ8L3RzcGFuPjwvdGV4dD48L2c+PHJlY3QgaGVpZ2h0PSI4MCIgd2lkdGg9IjEwMCIgeT0iMCIgeD0iMCIgY2xhc3M9ImRqcy1oaXQgZGpzLWhpdC1hbGwiIHN0eWxlPSJmaWxsOiBub25lOyBzdHJva2Utb3BhY2l0eTogMDsgc3Ryb2tlOiB3aGl0ZTsgc3Ryb2tlLXdpZHRoOiAxNXB4OyIvPjxyZWN0IGNsYXNzPSJkanMtb3V0bGluZSIgc3R5bGU9ImZpbGw6IG5vbmU7IiBoZWlnaHQ9IjkwIiB3aWR0aD0iMTEwIiByeD0iMTQiIHk9Ii01IiB4PSItNSIvPjwvZz48L2c+PGcgY2xhc3M9ImRqcy1ncm91cCI+PGcgc3R5bGU9ImRpc3BsYXk6IGJsb2NrOyIgdHJhbnNmb3JtPSJtYXRyaXgoMSwgMCwgMCwgMSwgMTk1MCwgMTQwKSIgZGF0YS1lbGVtZW50LWlkPSJBY3Rpdml0eV8xNDE3am1mIiBjbGFzcz0iZGpzLWVsZW1lbnQgZGpzLXNoYXBlIj48ZyBjbGFzcz0iZGpzLXZpc3VhbCI+PHJlY3Qgc3R5bGU9InN0cm9rZS1saW5lY2FwOiByb3VuZDsgc3Ryb2tlLWxpbmVqb2luOiByb3VuZDsgc3Ryb2tlOiByZ2IoMzQsIDM2LCA0Mik7IHN0cm9rZS13aWR0aDogMnB4OyBmaWxsOiB3aGl0ZTsgZmlsbC1vcGFjaXR5OiAwLjk1OyIgcnk9IjEwIiByeD0iMTAiIGhlaWdodD0iODAiIHdpZHRoPSIxMDAiIHk9IjAiIHg9IjAiLz48dGV4dCBjbGFzcz0iZGpzLWxhYmVsIiBzdHlsZT0iZm9udC1mYW1pbHk6IEFyaWFsLCBzYW5zLXNlcmlmOyBmb250LXNpemU6IDEycHg7IGZvbnQtd2VpZ2h0OiBub3JtYWw7IGZpbGw6IHJnYigzNCwgMzYsIDQyKTsiPjx0c3BhbiB5PSIzNi40IiB4PSIyOS4zMzMzMzM5NjkxMTYyMSI+VXBsb2FkIDwvdHNwYW4+PHRzcGFuIHk9IjUwLjgiIHg9IjE5LjY2NjY2NjAzMDg4Mzc5Ij5Eb2N1bWVudHM8L3RzcGFuPjwvdGV4dD48L2c+PHJlY3QgaGVpZ2h0PSI4MCIgd2lkdGg9IjEwMCIgeT0iMCIgeD0iMCIgY2xhc3M9ImRqcy1oaXQgZGpzLWhpdC1hbGwiIHN0eWxlPSJmaWxsOiBub25lOyBzdHJva2Utb3BhY2l0eTogMDsgc3Ryb2tlOiB3aGl0ZTsgc3Ryb2tlLXdpZHRoOiAxNXB4OyIvPjxyZWN0IGNsYXNzPSJkanMtb3V0bGluZSIgc3R5bGU9ImZpbGw6IG5vbmU7IiBoZWlnaHQ9IjkwIiB3aWR0aD0iMTEwIiByeD0iMTQiIHk9Ii01IiB4PSItNSIvPjwvZz48L2c+PGcgY2xhc3M9ImRqcy1ncm91cCI+PGcgc3R5bGU9ImRpc3BsYXk6IGJsb2NrOyIgdHJhbnNmb3JtPSJtYXRyaXgoMSwgMCwgMCwgMSwgMTk1MCwgMzgwKSIgZGF0YS1lbGVtZW50LWlkPSJBY3Rpdml0eV8xdmt6ZW95IiBjbGFzcz0iZGpzLWVsZW1lbnQgZGpzLXNoYXBlIj48ZyBjbGFzcz0iZGpzLXZpc3VhbCI+PHJlY3Qgc3R5bGU9InN0cm9rZS1saW5lY2FwOiByb3VuZDsgc3Ryb2tlLWxpbmVqb2luOiByb3VuZDsgc3Ryb2tlOiByZ2IoMzQsIDM2LCA0Mik7IHN0cm9rZS13aWR0aDogMnB4OyBmaWxsOiB3aGl0ZTsgZmlsbC1vcGFjaXR5OiAwLjk1OyIgcnk9IjEwIiByeD0iMTAiIGhlaWdodD0iODAiIHdpZHRoPSIxMDAiIHk9IjAiIHg9IjAiLz48dGV4dCBjbGFzcz0iZGpzLWxhYmVsIiBzdHlsZT0iZm9udC1mYW1pbHk6IEFyaWFsLCBzYW5zLXNlcmlmOyBmb250LXNpemU6IDEycHg7IGZvbnQtd2VpZ2h0OiBub3JtYWw7IGZpbGw6IHJnYigzNCwgMzYsIDQyKTsiPjx0c3BhbiB5PSIzNi40IiB4PSI3LjY2NjY2NzkzODIzMjQyMiI+UmVxdWVzdCBJbWFnZSA8L3RzcGFuPjx0c3BhbiB5PSI1MC44IiB4PSIzMSI+VXBsb2FkPC90c3Bhbj48L3RleHQ+PC9nPjxyZWN0IGhlaWdodD0iODAiIHdpZHRoPSIxMDAiIHk9IjAiIHg9IjAiIGNsYXNzPSJkanMtaGl0IGRqcy1oaXQtYWxsIiBzdHlsZT0iZmlsbDogbm9uZTsgc3Ryb2tlLW9wYWNpdHk6IDA7IHN0cm9rZTogd2hpdGU7IHN0cm9rZS13aWR0aDogMTVweDsiLz48cmVjdCBjbGFzcz0iZGpzLW91dGxpbmUiIHN0eWxlPSJmaWxsOiBub25lOyIgaGVpZ2h0PSI5MCIgd2lkdGg9IjExMCIgcng9IjE0IiB5PSItNSIgeD0iLTUiLz48L2c+PC9nPjxnIGNsYXNzPSJkanMtZ3JvdXAiPjxnIHN0eWxlPSJkaXNwbGF5OiBibG9jazsiIHRyYW5zZm9ybT0ibWF0cml4KDEsIDAsIDAsIDEsIDIxMTAsIDE0MCkiIGRhdGEtZWxlbWVudC1pZD0iQWN0aXZpdHlfMDBobjNpNCIgY2xhc3M9ImRqcy1lbGVtZW50IGRqcy1zaGFwZSI+PGcgY2xhc3M9ImRqcy12aXN1YWwiPjxyZWN0IHN0eWxlPSJzdHJva2UtbGluZWNhcDogcm91bmQ7IHN0cm9rZS1saW5lam9pbjogcm91bmQ7IHN0cm9rZTogcmdiKDM0LCAzNiwgNDIpOyBzdHJva2Utd2lkdGg6IDJweDsgZmlsbDogd2hpdGU7IGZpbGwtb3BhY2l0eTogMC45NTsiIHJ5PSIxMCIgcng9IjEwIiBoZWlnaHQ9IjgwIiB3aWR0aD0iMTAwIiB5PSIwIiB4PSIwIi8+PHRleHQgY2xhc3M9ImRqcy1sYWJlbCIgc3R5bGU9ImZvbnQtZmFtaWx5OiBBcmlhbCwgc2Fucy1zZXJpZjsgZm9udC1zaXplOiAxMnB4OyBmb250LXdlaWdodDogbm9ybWFsOyBmaWxsOiByZ2IoMzQsIDM2LCA0Mik7Ij48dHNwYW4geT0iNDMuNTk5OTk5OTk5OTk5OTk0IiB4PSI5LjY2NjY2NzkzODIzMjQyMiI+VXBsb2FkIEltYWdlczwvdHNwYW4+PC90ZXh0PjwvZz48cmVjdCBoZWlnaHQ9IjgwIiB3aWR0aD0iMTAwIiB5PSIwIiB4PSIwIiBjbGFzcz0iZGpzLWhpdCBkanMtaGl0LWFsbCIgc3R5bGU9ImZpbGw6IG5vbmU7IHN0cm9rZS1vcGFjaXR5OiAwOyBzdHJva2U6IHdoaXRlOyBzdHJva2Utd2lkdGg6IDE1cHg7Ii8+PHJlY3QgY2xhc3M9ImRqcy1vdXRsaW5lIiBzdHlsZT0iZmlsbDogbm9uZTsiIGhlaWdodD0iOTAiIHdpZHRoPSIxMTAiIHJ4PSIxNCIgeT0iLTUiIHg9Ii01Ii8+PC9nPjwvZz48ZyBjbGFzcz0iZGpzLWdyb3VwIj48ZyBzdHlsZT0iZGlzcGxheTogYmxvY2s7IiB0cmFuc2Zvcm09Im1hdHJpeCgxLCAwLCAwLCAxLCAyMjcwLCAxNDApIiBkYXRhLWVsZW1lbnQtaWQ9IkFjdGl2aXR5XzB5MmhtbG4iIGNsYXNzPSJkanMtZWxlbWVudCBkanMtc2hhcGUiPjxnIGNsYXNzPSJkanMtdmlzdWFsIj48cmVjdCBzdHlsZT0ic3Ryb2tlLWxpbmVjYXA6IHJvdW5kOyBzdHJva2UtbGluZWpvaW46IHJvdW5kOyBzdHJva2U6IHJnYigzNCwgMzYsIDQyKTsgc3Ryb2tlLXdpZHRoOiAycHg7IGZpbGw6IHdoaXRlOyBmaWxsLW9wYWNpdHk6IDAuOTU7IiByeT0iMTAiIHJ4PSIxMCIgaGVpZ2h0PSI4MCIgd2lkdGg9IjEwMCIgeT0iMCIgeD0iMCIvPjx0ZXh0IGNsYXNzPSJkanMtbGFiZWwiIHN0eWxlPSJmb250LWZhbWlseTogQXJpYWwsIHNhbnMtc2VyaWY7IGZvbnQtc2l6ZTogMTJweDsgZm9udC13ZWlnaHQ6IG5vcm1hbDsgZmlsbDogcmdiKDM0LCAzNiwgNDIpOyI+PHRzcGFuIHk9IjI5LjIwMDAwMDAwMDAwMDAwMyIgeD0iMTQuMjAwMDAwNzYyOTM5NDUzIj5TZWxlY3QgIlNhdmUgPC90c3Bhbj48dHNwYW4geT0iNDMuNiIgeD0iMjYiPmFuZCBBZGQgPC90c3Bhbj48dHNwYW4geT0iNTgiIHg9IjI4LjUyNDk5OTYxODUzMDI3MyI+VmVoaWNsZSI8L3RzcGFuPjwvdGV4dD48L2c+PHJlY3QgaGVpZ2h0PSI4MCIgd2lkdGg9IjEwMCIgeT0iMCIgeD0iMCIgY2xhc3M9ImRqcy1oaXQgZGpzLWhpdC1hbGwiIHN0eWxlPSJmaWxsOiBub25lOyBzdHJva2Utb3BhY2l0eTogMDsgc3Ryb2tlOiB3aGl0ZTsgc3Ryb2tlLXdpZHRoOiAxNXB4OyIvPjxyZWN0IGNsYXNzPSJkanMtb3V0bGluZSIgc3R5bGU9ImZpbGw6IG5vbmU7IiBoZWlnaHQ9IjkwIiB3aWR0aD0iMTEwIiByeD0iMTQiIHk9Ii01IiB4PSItNSIvPjwvZz48L2c+PGcgY2xhc3M9ImRqcy1ncm91cCI+PGcgc3R5bGU9ImRpc3BsYXk6IGJsb2NrOyIgdHJhbnNmb3JtPSJtYXRyaXgoMSwgMCwgMCwgMSwgMjI3MCwgMzgwKSIgZGF0YS1lbGVtZW50LWlkPSJBY3Rpdml0eV8xYml3dzZrIiBjbGFzcz0iZGpzLWVsZW1lbnQgZGpzLXNoYXBlIj48ZyBjbGFzcz0iZGpzLXZpc3VhbCI+PHJlY3Qgc3R5bGU9InN0cm9rZS1saW5lY2FwOiByb3VuZDsgc3Ryb2tlLWxpbmVqb2luOiByb3VuZDsgc3Ryb2tlOiByZ2IoMzQsIDM2LCA0Mik7IHN0cm9rZS13aWR0aDogMnB4OyBmaWxsOiB3aGl0ZTsgZmlsbC1vcGFjaXR5OiAwLjk1OyIgcnk9IjEwIiByeD0iMTAiIGhlaWdodD0iODAiIHdpZHRoPSIxMDAiIHk9IjAiIHg9IjAiLz48dGV4dCBjbGFzcz0iZGpzLWxhYmVsIiBzdHlsZT0iZm9udC1mYW1pbHk6IEFyaWFsLCBzYW5zLXNlcmlmOyBmb250LXNpemU6IDEycHg7IGZvbnQtd2VpZ2h0OiBub3JtYWw7IGZpbGw6IHJnYigzNCwgMzYsIDQyKTsiPjx0c3BhbiB5PSIyOS4yMDAwMDAwMDAwMDAwMDMiIHg9IjEzLjY1ODMzMjgyNDcwNzAzMSI+U2F2ZSBWZWhpY2xlIDwvdHNwYW4+PHRzcGFuIHk9IjQzLjYiIHg9IjExLjY2NjY2NzkzODIzMjQyMiI+SW5mb3JtYXRpb24gdG8gPC90c3Bhbj48dHNwYW4geT0iNTgiIHg9IjI0LjMzMzMzMzk2OTExNjIxIj5EYXRhYmFzZTwvdHNwYW4+PC90ZXh0PjwvZz48cmVjdCBoZWlnaHQ9IjgwIiB3aWR0aD0iMTAwIiB5PSIwIiB4PSIwIiBjbGFzcz0iZGpzLWhpdCBkanMtaGl0LWFsbCIgc3R5bGU9ImZpbGw6IG5vbmU7IHN0cm9rZS1vcGFjaXR5OiAwOyBzdHJva2U6IHdoaXRlOyBzdHJva2Utd2lkdGg6IDE1cHg7Ii8+PHJlY3QgY2xhc3M9ImRqcy1vdXRsaW5lIiBzdHlsZT0iZmlsbDogbm9uZTsiIGhlaWdodD0iOTAiIHdpZHRoPSIxMTAiIHJ4PSIxNCIgeT0iLTUiIHg9Ii01Ii8+PC9nPjwvZz48ZyBjbGFzcz0iZGpzLWdyb3VwIj48ZyBzdHlsZT0iZGlzcGxheTogYmxvY2s7IiB0cmFuc2Zvcm09Im1hdHJpeCgxLCAwLCAwLCAxLCAyNDIwLCAzODApIiBkYXRhLWVsZW1lbnQtaWQ9IkFjdGl2aXR5XzF0aTZxYmEiIGNsYXNzPSJkanMtZWxlbWVudCBkanMtc2hhcGUiPjxnIGNsYXNzPSJkanMtdmlzdWFsIj48cmVjdCBzdHlsZT0ic3Ryb2tlLWxpbmVjYXA6IHJvdW5kOyBzdHJva2UtbGluZWpvaW46IHJvdW5kOyBzdHJva2U6IHJnYigzNCwgMzYsIDQyKTsgc3Ryb2tlLXdpZHRoOiAycHg7IGZpbGw6IHdoaXRlOyBmaWxsLW9wYWNpdHk6IDAuOTU7IiByeT0iMTAiIHJ4PSIxMCIgaGVpZ2h0PSI4MCIgd2lkdGg9IjEwMCIgeT0iMCIgeD0iMCIvPjx0ZXh0IGNsYXNzPSJkanMtbGFiZWwiIHN0eWxlPSJmb250LWZhbWlseTogQXJpYWwsIHNhbnMtc2VyaWY7IGZvbnQtc2l6ZTogMTJweDsgZm9udC13ZWlnaHQ6IG5vcm1hbDsgZmlsbDogcmdiKDM0LCAzNiwgNDIpOyI+PHRzcGFuIHk9IjI5LjIwMDAwMDAwMDAwMDAwMyIgeD0iMjguNjY2NjY2MDMwODgzNzkiPkRpc3BsYXkgPC90c3Bhbj48dHNwYW4geT0iNDMuNiIgeD0iMjUuNjY2NjY2MDMwODgzNzkiPlN1Y2Nlc3MgPC90c3Bhbj48dHNwYW4geT0iNTgiIHg9IjI1LjY2NjY2NjAzMDg4Mzc5Ij5NZXNzYWdlPC90c3Bhbj48L3RleHQ+PC9nPjxyZWN0IGhlaWdodD0iODAiIHdpZHRoPSIxMDAiIHk9IjAiIHg9IjAiIGNsYXNzPSJkanMtaGl0IGRqcy1oaXQtYWxsIiBzdHlsZT0iZmlsbDogbm9uZTsgc3Ryb2tlLW9wYWNpdHk6IDA7IHN0cm9rZTogd2hpdGU7IHN0cm9rZS13aWR0aDogMTVweDsiLz48cmVjdCBjbGFzcz0iZGpzLW91dGxpbmUiIHN0eWxlPSJmaWxsOiBub25lOyIgaGVpZ2h0PSI5MCIgd2lkdGg9IjExMCIgcng9IjE0IiB5PSItNSIgeD0iLTUiLz48L2c+PC9nPjxnIGNsYXNzPSJkanMtZ3JvdXAiPjxnIHN0eWxlPSJkaXNwbGF5OiBibG9jazsiIHRyYW5zZm9ybT0ibWF0cml4KDEsIDAsIDAsIDEsIDI1NzIsIDQwMikiIGRhdGEtZWxlbWVudC1pZD0iRXZlbnRfMTB3Nzg3eCIgY2xhc3M9ImRqcy1lbGVtZW50IGRqcy1zaGFwZSI+PGcgY2xhc3M9ImRqcy12aXN1YWwiPjxjaXJjbGUgc3R5bGU9InN0cm9rZS1saW5lY2FwOiByb3VuZDsgc3Ryb2tlLWxpbmVqb2luOiByb3VuZDsgc3Ryb2tlOiByZ2IoMzQsIDM2LCA0Mik7IHN0cm9rZS13aWR0aDogNHB4OyBmaWxsOiB3aGl0ZTsgZmlsbC1vcGFjaXR5OiAwLjk1OyIgcj0iMTgiIGN5PSIxOCIgY3g9IjE4Ii8+PC9nPjxyZWN0IGhlaWdodD0iMzYiIHdpZHRoPSIzNiIgeT0iMCIgeD0iMCIgY2xhc3M9ImRqcy1oaXQgZGpzLWhpdC1hbGwiIHN0eWxlPSJmaWxsOiBub25lOyBzdHJva2Utb3BhY2l0eTogMDsgc3Ryb2tlOiB3aGl0ZTsgc3Ryb2tlLXdpZHRoOiAxNXB4OyIvPjxjaXJjbGUgY2xhc3M9ImRqcy1vdXRsaW5lIiBzdHlsZT0iZmlsbDogbm9uZTsiIHI9IjI0IiBjeT0iMTgiIGN4PSIxOCIvPjwvZz48L2c+PGcgY2xhc3M9ImRqcy1ncm91cCI+PGcgc3R5bGU9ImRpc3BsYXk6IGJsb2NrOyIgdHJhbnNmb3JtPSJtYXRyaXgoMSwgMCwgMCwgMSwgMjU1NSwgNDQ1KSIgZGF0YS1lbGVtZW50LWlkPSJFdmVudF8xMHc3ODd4X2xhYmVsIiBjbGFzcz0iZGpzLWVsZW1lbnQgZGpzLXNoYXBlIj48ZyBjbGFzcz0iZGpzLXZpc3VhbCI+PHRleHQgY2xhc3M9ImRqcy1sYWJlbCIgc3R5bGU9ImZvbnQtZmFtaWx5OiBBcmlhbCwgc2Fucy1zZXJpZjsgZm9udC1zaXplOiAxMXB4OyBmb250LXdlaWdodDogbm9ybWFsOyBmaWxsOiByZ2IoMzQsIDM2LCA0Mik7Ij48dHNwYW4geT0iOS44OTk5OTk5OTk5OTk5OTkiIHg9IjAiPlZlaGljbGUgQWRkZWQ8L3RzcGFuPjwvdGV4dD48L2c+PHJlY3QgaGVpZ2h0PSIxNCIgd2lkdGg9IjcxIiB5PSIwIiB4PSIwIiBjbGFzcz0iZGpzLWhpdCBkanMtaGl0LWFsbCIgc3R5bGU9ImZpbGw6IG5vbmU7IHN0cm9rZS1vcGFjaXR5OiAwOyBzdHJva2U6IHdoaXRlOyBzdHJva2Utd2lkdGg6IDE1cHg7Ii8+PHJlY3QgY2xhc3M9ImRqcy1vdXRsaW5lIiBzdHlsZT0iZmlsbDogbm9uZTsiIGhlaWdodD0iMjQiIHdpZHRoPSI4MSIgcng9IjQiIHk9Ii01IiB4PSItNSIvPjwvZz48L2c+PGcgY2xhc3M9ImRqcy1ncm91cCI+PGcgc3R5bGU9ImRpc3BsYXk6IGJsb2NrOyIgdHJhbnNmb3JtPSJtYXRyaXgoMSwgMCwgMCwgMSwgMzc1LCAzOTUpIiBkYXRhLWVsZW1lbnQtaWQ9IkdhdGV3YXlfMDFwbTl4NSIgY2xhc3M9ImRqcy1lbGVtZW50IGRqcy1zaGFwZSI+PGcgY2xhc3M9ImRqcy12aXN1YWwiPjxwb2x5Z29uIHBvaW50cz0iMjUsMCA1MCwyNSAyNSw1MCAwLDI1IiBzdHlsZT0ic3Ryb2tlLWxpbmVjYXA6IHJvdW5kOyBzdHJva2UtbGluZWpvaW46IHJvdW5kOyBzdHJva2U6IHJnYigzNCwgMzYsIDQyKTsgc3Ryb2tlLXdpZHRoOiAycHg7IGZpbGw6IHdoaXRlOyBmaWxsLW9wYWNpdHk6IDAuOTU7Ii8+PHBhdGggZD0ibSAxNiwxNSA3LjQyODU3MTQyODU3MTQzLDkuNzE0Mjg1NzE0Mjg1NzE1IC03LjQyODU3MTQyODU3MTQzLDkuNzE0Mjg1NzE0Mjg1NzE1IDMuNDI4NTcxNDI4NTcxNDI5LDAgNS43MTQyODU3MTQyODU3MTUsLTcuNDY0MjI4NTcxNDI4NTcyIDUuNzE0Mjg1NzE0Mjg1NzE1LDcuNDY0MjI4NTcxNDI4NTcyIDMuNDI4NTcxNDI4NTcxNDI5LDAgLTcuNDI4NTcxNDI4NTcxNDMsLTkuNzE0Mjg1NzE0Mjg1NzE1IDcuNDI4NTcxNDI4NTcxNDMsLTkuNzE0Mjg1NzE0Mjg1NzE1IC0zLjQyODU3MTQyODU3MTQyOSwwIC01LjcxNDI4NTcxNDI4NTcxNSw3LjQ2NDIyODU3MTQyODU3MiAtNS43MTQyODU3MTQyODU3MTUsLTcuNDY0MjI4NTcxNDI4NTcyIC0zLjQyODU3MTQyODU3MTQyOSwwIHoiIHN0eWxlPSJmaWxsOiByZ2IoMzQsIDM2LCA0Mik7IHN0cm9rZS1saW5lY2FwOiByb3VuZDsgc3Ryb2tlLWxpbmVqb2luOiByb3VuZDsgc3Ryb2tlOiByZ2IoMzQsIDM2LCA0Mik7IHN0cm9rZS13aWR0aDogMXB4OyIvPjwvZz48cmVjdCBoZWlnaHQ9IjUwIiB3aWR0aD0iNTAiIHk9IjAiIHg9IjAiIGNsYXNzPSJkanMtaGl0IGRqcy1oaXQtYWxsIiBzdHlsZT0iZmlsbDogbm9uZTsgc3Ryb2tlLW9wYWNpdHk6IDA7IHN0cm9rZTogd2hpdGU7IHN0cm9rZS13aWR0aDogMTVweDsiLz48cmVjdCBjbGFzcz0iZGpzLW91dGxpbmUiIGhlaWdodD0iNDYiIHdpZHRoPSI0NiIgcng9IjQiIHk9IjIiIHg9IjIiIHN0eWxlPSJ0cmFuc2Zvcm0tYm94OiBmaWxsLWJveDsgdHJhbnNmb3JtOiByb3RhdGUoNDVkZWcpOyB0cmFuc2Zvcm0tb3JpZ2luOiBjZW50ZXIgY2VudGVyIDBweDsgZmlsbDogbm9uZTsiLz48L2c+PC9nPjxnIGNsYXNzPSJkanMtZ3JvdXAiPjxnIHN0eWxlPSJkaXNwbGF5OiBibG9jazsiIHRyYW5zZm9ybT0ibWF0cml4KDEsIDAsIDAsIDEsIDUyMCwgMzgwKSIgZGF0YS1lbGVtZW50LWlkPSJBY3Rpdml0eV8wcHVqcWsyIiBjbGFzcz0iZGpzLWVsZW1lbnQgZGpzLXNoYXBlIj48ZyBjbGFzcz0iZGpzLXZpc3VhbCI+PHJlY3Qgc3R5bGU9InN0cm9rZS1saW5lY2FwOiByb3VuZDsgc3Ryb2tlLWxpbmVqb2luOiByb3VuZDsgc3Ryb2tlOiByZ2IoMzQsIDM2LCA0Mik7IHN0cm9rZS13aWR0aDogMnB4OyBmaWxsOiB3aGl0ZTsgZmlsbC1vcGFjaXR5OiAwLjk1OyIgcnk9IjEwIiByeD0iMTAiIGhlaWdodD0iODAiIHdpZHRoPSIxMDAiIHk9IjAiIHg9IjAiLz48dGV4dCBjbGFzcz0iZGpzLWxhYmVsIiBzdHlsZT0iZm9udC1mYW1pbHk6IEFyaWFsLCBzYW5zLXNlcmlmOyBmb250LXNpemU6IDEycHg7IGZvbnQtd2VpZ2h0OiBub3JtYWw7IGZpbGw6IHJnYigzNCwgMzYsIDQyKTsiPjx0c3BhbiB5PSIzNi40IiB4PSIyNiI+UmVxdWVzdCA8L3RzcGFuPjx0c3BhbiB5PSI1MC44IiB4PSIxOC45OTE2NjY3OTM4MjMyNDIiPlZlaGljbGUgVklOPC90c3Bhbj48L3RleHQ+PC9nPjxyZWN0IGhlaWdodD0iODAiIHdpZHRoPSIxMDAiIHk9IjAiIHg9IjAiIGNsYXNzPSJkanMtaGl0IGRqcy1oaXQtYWxsIiBzdHlsZT0iZmlsbDogbm9uZTsgc3Ryb2tlLW9wYWNpdHk6IDA7IHN0cm9rZTogd2hpdGU7IHN0cm9rZS13aWR0aDogMTVweDsiLz48cmVjdCBjbGFzcz0iZGpzLW91dGxpbmUiIHN0eWxlPSJmaWxsOiBub25lOyIgaGVpZ2h0PSI5MCIgd2lkdGg9IjExMCIgcng9IjE0IiB5PSItNSIgeD0iLTUiLz48L2c+PC9nPjxnIGNsYXNzPSJkanMtZ3JvdXAiPjxnIHN0eWxlPSJkaXNwbGF5OiBibG9jazsiIHRyYW5zZm9ybT0ibWF0cml4KDEsIDAsIDAsIDEsIDUyMCwgMTQwKSIgZGF0YS1lbGVtZW50LWlkPSJBY3Rpdml0eV8xZGx5cGt3IiBjbGFzcz0iZGpzLWVsZW1lbnQgZGpzLXNoYXBlIj48ZyBjbGFzcz0iZGpzLXZpc3VhbCI+PHJlY3Qgc3R5bGU9InN0cm9rZS1saW5lY2FwOiByb3VuZDsgc3Ryb2tlLWxpbmVqb2luOiByb3VuZDsgc3Ryb2tlOiByZ2IoMzQsIDM2LCA0Mik7IHN0cm9rZS13aWR0aDogMnB4OyBmaWxsOiB3aGl0ZTsgZmlsbC1vcGFjaXR5OiAwLjk1OyIgcnk9IjEwIiByeD0iMTAiIGhlaWdodD0iODAiIHdpZHRoPSIxMDAiIHk9IjAiIHg9IjAiLz48dGV4dCBjbGFzcz0iZGpzLWxhYmVsIiBzdHlsZT0iZm9udC1mYW1pbHk6IEFyaWFsLCBzYW5zLXNlcmlmOyBmb250LXNpemU6IDEycHg7IGZvbnQtd2VpZ2h0OiBub3JtYWw7IGZpbGw6IHJnYigzNCwgMzYsIDQyKTsiPjx0c3BhbiB5PSI0My41OTk5OTk5OTk5OTk5OTQiIHg9IjI0Ij5FbnRlciBWSU48L3RzcGFuPjwvdGV4dD48L2c+PHJlY3QgaGVpZ2h0PSI4MCIgd2lkdGg9IjEwMCIgeT0iMCIgeD0iMCIgY2xhc3M9ImRqcy1oaXQgZGpzLWhpdC1hbGwiIHN0eWxlPSJmaWxsOiBub25lOyBzdHJva2Utb3BhY2l0eTogMDsgc3Ryb2tlOiB3aGl0ZTsgc3Ryb2tlLXdpZHRoOiAxNXB4OyIvPjxyZWN0IGNsYXNzPSJkanMtb3V0bGluZSIgc3R5bGU9ImZpbGw6IG5vbmU7IiBoZWlnaHQ9IjkwIiB3aWR0aD0iMTEwIiByeD0iMTQiIHk9Ii01IiB4PSItNSIvPjwvZz48L2c+PGcgY2xhc3M9ImRqcy1ncm91cCI+PGcgc3R5bGU9ImRpc3BsYXk6IGJsb2NrOyIgZGF0YS1lbGVtZW50LWlkPSJGbG93XzBxZnFhZGkiIGNsYXNzPSJkanMtZWxlbWVudCBkanMtY29ubmVjdGlvbiI+PGcgY2xhc3M9ImRqcy12aXN1YWwiPjxkZWZzPjxtYXJrZXIgb3JpZW50PSJhdXRvIiBtYXJrZXJIZWlnaHQ9IjEwIiBtYXJrZXJXaWR0aD0iMTAiIHJlZlk9IjEwIiByZWZYPSIxMSIgdmlld0JveD0iMCAwIDIwIDIwIiBpZD0ibWFya2VyLTRrZWp3cXZjYnlnZzNpdTJia29icnRiYnoiPjxwYXRoIHN0eWxlPSJzdHJva2UtbGluZWNhcDogcm91bmQ7IHN0cm9rZS1saW5lam9pbjogcm91bmQ7IHN0cm9rZTogcmdiKDM0LCAzNiwgNDIpOyBzdHJva2Utd2lkdGg6IDFweDsgZmlsbDogcmdiKDM0LCAzNiwgNDIpOyIgZD0iTSAxIDUgTCAxMSAxMCBMIDEgMTUgWiIvPjwvbWFya2VyPjwvZGVmcz48cGF0aCBkPSJNMjk4LDE4MEwzNTAsMTgwIiBkYXRhLWNvcm5lci1yYWRpdXM9IjUiIHN0eWxlPSJmaWxsOiBub25lOyBzdHJva2UtbGluZWNhcDogcm91bmQ7IHN0cm9rZS1saW5lam9pbjogcm91bmQ7IHN0cm9rZTogcmdiKDM0LCAzNiwgNDIpOyBzdHJva2Utd2lkdGg6IDJweDsgbWFya2VyLWVuZDogdXJsKCcjbWFya2VyLTRrZWp3cXZjYnlnZzNpdTJia29icnRiYnonKTsiLz48L2c+PHBhdGggY2xhc3M9ImRqcy1oaXQgZGpzLWhpdC1zdHJva2UiIHN0eWxlPSJmaWxsOiBub25lOyBzdHJva2Utb3BhY2l0eTogMDsgc3Ryb2tlOiB3aGl0ZTsgc3Ryb2tlLXdpZHRoOiAxNXB4OyIgZD0iTTI5OCwxODBMMzUwLDE4MCIvPjxyZWN0IGNsYXNzPSJkanMtb3V0bGluZSIgc3R5bGU9ImZpbGw6IG5vbmU7IiBoZWlnaHQ9IjEwIiB3aWR0aD0iNjIiIHJ4PSI0IiB5PSIxNzUiIHg9IjI5MyIvPjwvZz48L2c+PGcgY2xhc3M9ImRqcy1ncm91cCI+PGcgc3R5bGU9ImRpc3BsYXk6IGJsb2NrOyIgZGF0YS1lbGVtZW50LWlkPSJGbG93XzBreWNkM2UiIGNsYXNzPSJkanMtZWxlbWVudCBkanMtY29ubmVjdGlvbiI+PGcgY2xhc3M9ImRqcy12aXN1YWwiPjxkZWZzPjxtYXJrZXIgb3JpZW50PSJhdXRvIiBtYXJrZXJIZWlnaHQ9IjEwIiBtYXJrZXJXaWR0aD0iMTAiIHJlZlk9IjEwIiByZWZYPSIxMSIgdmlld0JveD0iMCAwIDIwIDIwIiBpZD0ibWFya2VyLTkyZXl2YmQ0NGhiZGxzcDM4YngxcmR0ZzEiPjxwYXRoIHN0eWxlPSJzdHJva2UtbGluZWNhcDogcm91bmQ7IHN0cm9rZS1saW5lam9pbjogcm91bmQ7IHN0cm9rZTogcmdiKDM0LCAzNiwgNDIpOyBzdHJva2Utd2lkdGg6IDFweDsgZmlsbDogcmdiKDM0LCAzNiwgNDIpOyIgZD0iTSAxIDUgTCAxMSAxMCBMIDEgMTUgWiIvPjwvbWFya2VyPjwvZGVmcz48cGF0aCBkPSJNNjIwLDE4MEw2NjUsMTgwQzY2Ny41LDE4MCw2NzAsMTgyLjUsNjcwLDE4NUw2NzAsNDE1QzY3MCw0MTcuNSw2NzIuNSw0MjAsNjc1LDQyMEw3MzAsNDIwIiBkYXRhLWNvcm5lci1yYWRpdXM9IjUiIHN0eWxlPSJmaWxsOiBub25lOyBzdHJva2UtbGluZWNhcDogcm91bmQ7IHN0cm9rZS1saW5lam9pbjogcm91bmQ7IHN0cm9rZTogcmdiKDM0LCAzNiwgNDIpOyBzdHJva2Utd2lkdGg6IDJweDsgbWFya2VyLWVuZDogdXJsKCcjbWFya2VyLTkyZXl2YmQ0NGhiZGxzcDM4YngxcmR0ZzEnKTsiLz48L2c+PHBhdGggY2xhc3M9ImRqcy1oaXQgZGpzLWhpdC1zdHJva2UiIHN0eWxlPSJmaWxsOiBub25lOyBzdHJva2Utb3BhY2l0eTogMDsgc3Ryb2tlOiB3aGl0ZTsgc3Ryb2tlLXdpZHRoOiAxNXB4OyIgZD0iTTYyMCwxODBMNjcwLDE4MEw2NzAsNDIwTDczMCw0MjAiLz48cmVjdCBjbGFzcz0iZGpzLW91dGxpbmUiIHN0eWxlPSJmaWxsOiBub25lOyIgaGVpZ2h0PSIyNTAiIHdpZHRoPSIxMjAiIHJ4PSI0IiB5PSIxNzUiIHg9IjYxNSIvPjwvZz48L2c+PGcgY2xhc3M9ImRqcy1ncm91cCI+PGcgc3R5bGU9ImRpc3BsYXk6IGJsb2NrOyIgZGF0YS1lbGVtZW50LWlkPSJGbG93XzA0aHZ0ZzAiIGNsYXNzPSJkanMtZWxlbWVudCBkanMtY29ubmVjdGlvbiI+PGcgY2xhc3M9ImRqcy12aXN1YWwiPjxkZWZzPjxtYXJrZXIgb3JpZW50PSJhdXRvIiBtYXJrZXJIZWlnaHQ9IjEwIiBtYXJrZXJXaWR0aD0iMTAiIHJlZlk9IjEwIiByZWZYPSIxMSIgdmlld0JveD0iMCAwIDIwIDIwIiBpZD0ibWFya2VyLWVkdG1taTMzNzExdWF6Z3dvbTN4YjQxbWgiPjxwYXRoIHN0eWxlPSJzdHJva2UtbGluZWNhcDogcm91bmQ7IHN0cm9rZS1saW5lam9pbjogcm91bmQ7IHN0cm9rZTogcmdiKDM0LCAzNiwgNDIpOyBzdHJva2Utd2lkdGg6IDFweDsgZmlsbDogcmdiKDM0LCAzNiwgNDIpOyIgZD0iTSAxIDUgTCAxMSAxMCBMIDEgMTUgWiIvPjwvbWFya2VyPjwvZGVmcz48cGF0aCBkPSJNODMwLDQyMEw4ODUsNDIwIiBkYXRhLWNvcm5lci1yYWRpdXM9IjUiIHN0eWxlPSJmaWxsOiBub25lOyBzdHJva2UtbGluZWNhcDogcm91bmQ7IHN0cm9rZS1saW5lam9pbjogcm91bmQ7IHN0cm9rZTogcmdiKDM0LCAzNiwgNDIpOyBzdHJva2Utd2lkdGg6IDJweDsgbWFya2VyLWVuZDogdXJsKCcjbWFya2VyLWVkdG1taTMzNzExdWF6Z3dvbTN4YjQxbWgnKTsiLz48L2c+PHBhdGggY2xhc3M9ImRqcy1oaXQgZGpzLWhpdC1zdHJva2UiIHN0eWxlPSJmaWxsOiBub25lOyBzdHJva2Utb3BhY2l0eTogMDsgc3Ryb2tlOiB3aGl0ZTsgc3Ryb2tlLXdpZHRoOiAxNXB4OyIgZD0iTTgzMCw0MjBMODg1LDQyMCIvPjxyZWN0IGNsYXNzPSJkanMtb3V0bGluZSIgc3R5bGU9ImZpbGw6IG5vbmU7IiBoZWlnaHQ9IjEwIiB3aWR0aD0iNjUiIHJ4PSI0IiB5PSI0MTUiIHg9IjgyNSIvPjwvZz48L2c+PGcgY2xhc3M9ImRqcy1ncm91cCI+PGcgc3R5bGU9ImRpc3BsYXk6IGJsb2NrOyIgZGF0YS1lbGVtZW50LWlkPSJGbG93XzBuaHkwMDIiIGNsYXNzPSJkanMtZWxlbWVudCBkanMtY29ubmVjdGlvbiI+PGcgY2xhc3M9ImRqcy12aXN1YWwiPjxkZWZzPjxtYXJrZXIgb3JpZW50PSJhdXRvIiBtYXJrZXJIZWlnaHQ9IjEwIiBtYXJrZXJXaWR0aD0iMTAiIHJlZlk9IjEwIiByZWZYPSIxMSIgdmlld0JveD0iMCAwIDIwIDIwIiBpZD0ibWFya2VyLTltdTR6MW9kMjV2NGwwZ3cxY3d0eXp3bXciPjxwYXRoIHN0eWxlPSJzdHJva2UtbGluZWNhcDogcm91bmQ7IHN0cm9rZS1saW5lam9pbjogcm91bmQ7IHN0cm9rZTogcmdiKDM0LCAzNiwgNDIpOyBzdHJva2Utd2lkdGg6IDFweDsgZmlsbDogcmdiKDM0LCAzNiwgNDIpOyIgZD0iTSAxIDUgTCAxMSAxMCBMIDEgMTUgWiIvPjwvbWFya2VyPjwvZGVmcz48cGF0aCBkPSJNOTM1LDQyMEwxMDUwLDQyMCIgZGF0YS1jb3JuZXItcmFkaXVzPSI1IiBzdHlsZT0iZmlsbDogbm9uZTsgc3Ryb2tlLWxpbmVjYXA6IHJvdW5kOyBzdHJva2UtbGluZWpvaW46IHJvdW5kOyBzdHJva2U6IHJnYigzNCwgMzYsIDQyKTsgc3Ryb2tlLXdpZHRoOiAycHg7IG1hcmtlci1lbmQ6IHVybCgnI21hcmtlci05bXU0ejFvZDI1djRsMGd3MWN3dHl6d213Jyk7Ii8+PC9nPjxwYXRoIGNsYXNzPSJkanMtaGl0IGRqcy1oaXQtc3Ryb2tlIiBzdHlsZT0iZmlsbDogbm9uZTsgc3Ryb2tlLW9wYWNpdHk6IDA7IHN0cm9rZTogd2hpdGU7IHN0cm9rZS13aWR0aDogMTVweDsiIGQ9Ik05MzUsNDIwTDEwNTAsNDIwIi8+PHJlY3QgY2xhc3M9ImRqcy1vdXRsaW5lIiBzdHlsZT0iZmlsbDogbm9uZTsiIGhlaWdodD0iMTAiIHdpZHRoPSIxMjUiIHJ4PSI0IiB5PSI0MTUiIHg9IjkzMCIvPjwvZz48L2c+PGcgY2xhc3M9ImRqcy1ncm91cCI+PGcgc3R5bGU9ImRpc3BsYXk6IGJsb2NrOyIgdHJhbnNmb3JtPSJtYXRyaXgoMSwgMCwgMCwgMSwgOTcwLCA0MDIpIiBkYXRhLWVsZW1lbnQtaWQ9IkZsb3dfMG5oeTAwMl9sYWJlbCIgY2xhc3M9ImRqcy1lbGVtZW50IGRqcy1zaGFwZSI+PGcgY2xhc3M9ImRqcy12aXN1YWwiPjx0ZXh0IGNsYXNzPSJkanMtbGFiZWwiIHN0eWxlPSJmb250LWZhbWlseTogQXJpYWwsIHNhbnMtc2VyaWY7IGZvbnQtc2l6ZTogMTFweDsgZm9udC13ZWlnaHQ6IG5vcm1hbDsgZmlsbDogcmdiKDM0LCAzNiwgNDIpOyI+PHRzcGFuIHk9IjkuODk5OTk5OTk5OTk5OTk5IiB4PSIwIj5WYWxpZCBWSU48L3RzcGFuPjwvdGV4dD48L2c+PHJlY3QgaGVpZ2h0PSIxNCIgd2lkdGg9IjQ2IiB5PSIwIiB4PSIwIiBjbGFzcz0iZGpzLWhpdCBkanMtaGl0LWFsbCIgc3R5bGU9ImZpbGw6IG5vbmU7IHN0cm9rZS1vcGFjaXR5OiAwOyBzdHJva2U6IHdoaXRlOyBzdHJva2Utd2lkdGg6IDE1cHg7Ii8+PHJlY3QgY2xhc3M9ImRqcy1vdXRsaW5lIiBzdHlsZT0iZmlsbDogbm9uZTsiIGhlaWdodD0iMjQiIHdpZHRoPSI1NiIgcng9IjQiIHk9Ii01IiB4PSItNSIvPjwvZz48L2c+PGcgY2xhc3M9ImRqcy1ncm91cCI+PGcgc3R5bGU9ImRpc3BsYXk6IGJsb2NrOyIgZGF0YS1lbGVtZW50LWlkPSJGbG93XzF5bTRibmoiIGNsYXNzPSJkanMtZWxlbWVudCBkanMtY29ubmVjdGlvbiI+PGcgY2xhc3M9ImRqcy12aXN1YWwiPjxkZWZzPjxtYXJrZXIgb3JpZW50PSJhdXRvIiBtYXJrZXJIZWlnaHQ9IjEwIiBtYXJrZXJXaWR0aD0iMTAiIHJlZlk9IjEwIiByZWZYPSIxMSIgdmlld0JveD0iMCAwIDIwIDIwIiBpZD0ibWFya2VyLTJwaWduZ3h1OHhvMzYxdzFnYThuNzJ0d3UiPjxwYXRoIHN0eWxlPSJzdHJva2UtbGluZWNhcDogcm91bmQ7IHN0cm9rZS1saW5lam9pbjogcm91bmQ7IHN0cm9rZTogcmdiKDM0LCAzNiwgNDIpOyBzdHJva2Utd2lkdGg6IDFweDsgZmlsbDogcmdiKDM0LCAzNiwgNDIpOyIgZD0iTSAxIDUgTCAxMSAxMCBMIDEgMTUgWiIvPjwvbWFya2VyPjwvZGVmcz48cGF0aCBkPSJNMTE1MCw0MjBMMTIzMCw0MjAiIGRhdGEtY29ybmVyLXJhZGl1cz0iNSIgc3R5bGU9ImZpbGw6IG5vbmU7IHN0cm9rZS1saW5lY2FwOiByb3VuZDsgc3Ryb2tlLWxpbmVqb2luOiByb3VuZDsgc3Ryb2tlOiByZ2IoMzQsIDM2LCA0Mik7IHN0cm9rZS13aWR0aDogMnB4OyBtYXJrZXItZW5kOiB1cmwoJyNtYXJrZXItMnBpZ25neHU4eG8zNjF3MWdhOG43MnR3dScpOyIvPjwvZz48cGF0aCBjbGFzcz0iZGpzLWhpdCBkanMtaGl0LXN0cm9rZSIgc3R5bGU9ImZpbGw6IG5vbmU7IHN0cm9rZS1vcGFjaXR5OiAwOyBzdHJva2U6IHdoaXRlOyBzdHJva2Utd2lkdGg6IDE1cHg7IiBkPSJNMTE1MCw0MjBMMTIzMCw0MjAiLz48cmVjdCBjbGFzcz0iZGpzLW91dGxpbmUiIHN0eWxlPSJmaWxsOiBub25lOyIgaGVpZ2h0PSIxMCIgd2lkdGg9IjkwIiByeD0iNCIgeT0iNDE1IiB4PSIxMTQ1Ii8+PC9nPjwvZz48ZyBjbGFzcz0iZGpzLWdyb3VwIj48ZyBzdHlsZT0iZGlzcGxheTogYmxvY2s7IiBkYXRhLWVsZW1lbnQtaWQ9IkZsb3dfMGloeW11ZSIgY2xhc3M9ImRqcy1lbGVtZW50IGRqcy1jb25uZWN0aW9uIj48ZyBjbGFzcz0iZGpzLXZpc3VhbCI+PGRlZnM+PG1hcmtlciBvcmllbnQ9ImF1dG8iIG1hcmtlckhlaWdodD0iMTAiIG1hcmtlcldpZHRoPSIxMCIgcmVmWT0iMTAiIHJlZlg9IjExIiB2aWV3Qm94PSIwIDAgMjAgMjAiIGlkPSJtYXJrZXItZXlxMWF2MTN6OHd6M2lvc3YxM2kyeGs0dSI+PHBhdGggc3R5bGU9InN0cm9rZS1saW5lY2FwOiByb3VuZDsgc3Ryb2tlLWxpbmVqb2luOiByb3VuZDsgc3Ryb2tlOiByZ2IoMzQsIDM2LCA0Mik7IHN0cm9rZS13aWR0aDogMXB4OyBmaWxsOiByZ2IoMzQsIDM2LCA0Mik7IiBkPSJNIDEgNSBMIDExIDEwIEwgMSAxNSBaIi8+PC9tYXJrZXI+PC9kZWZzPjxwYXRoIGQ9Ik0xMzMwLDQyMEwxMzk1LDQyMCIgZGF0YS1jb3JuZXItcmFkaXVzPSI1IiBzdHlsZT0iZmlsbDogbm9uZTsgc3Ryb2tlLWxpbmVjYXA6IHJvdW5kOyBzdHJva2UtbGluZWpvaW46IHJvdW5kOyBzdHJva2U6IHJnYigzNCwgMzYsIDQyKTsgc3Ryb2tlLXdpZHRoOiAycHg7IG1hcmtlci1lbmQ6IHVybCgnI21hcmtlci1leXExYXYxM3o4d3ozaW9zdjEzaTJ4azR1Jyk7Ii8+PC9nPjxwYXRoIGNsYXNzPSJkanMtaGl0IGRqcy1oaXQtc3Ryb2tlIiBzdHlsZT0iZmlsbDogbm9uZTsgc3Ryb2tlLW9wYWNpdHk6IDA7IHN0cm9rZTogd2hpdGU7IHN0cm9rZS13aWR0aDogMTVweDsiIGQ9Ik0xMzMwLDQyMEwxMzk1LDQyMCIvPjxyZWN0IGNsYXNzPSJkanMtb3V0bGluZSIgc3R5bGU9ImZpbGw6IG5vbmU7IiBoZWlnaHQ9IjEwIiB3aWR0aD0iNzUiIHJ4PSI0IiB5PSI0MTUiIHg9IjEzMjUiLz48L2c+PC9nPjxnIGNsYXNzPSJkanMtZ3JvdXAiPjxnIHN0eWxlPSJkaXNwbGF5OiBibG9jazsiIGRhdGEtZWxlbWVudC1pZD0iRmxvd18xbTJ6bGJ3IiBjbGFzcz0iZGpzLWVsZW1lbnQgZGpzLWNvbm5lY3Rpb24iPjxnIGNsYXNzPSJkanMtdmlzdWFsIj48ZGVmcz48bWFya2VyIG9yaWVudD0iYXV0byIgbWFya2VySGVpZ2h0PSIxMCIgbWFya2VyV2lkdGg9IjEwIiByZWZZPSIxMCIgcmVmWD0iMTEiIHZpZXdCb3g9IjAgMCAyMCAyMCIgaWQ9Im1hcmtlci1kZ3Fnc2Z4a3Q4cmM3eWY0NWQ3bm95cmM3Ij48cGF0aCBzdHlsZT0ic3Ryb2tlLWxpbmVjYXA6IHJvdW5kOyBzdHJva2UtbGluZWpvaW46IHJvdW5kOyBzdHJva2U6IHJnYigzNCwgMzYsIDQyKTsgc3Ryb2tlLXdpZHRoOiAxcHg7IGZpbGw6IHJnYigzNCwgMzYsIDQyKTsiIGQ9Ik0gMSA1IEwgMTEgMTAgTCAxIDE1IFoiLz48L21hcmtlcj48L2RlZnM+PHBhdGggZD0iTTE0MjAsMzk1TDE0MjAsMjIwIiBkYXRhLWNvcm5lci1yYWRpdXM9IjUiIHN0eWxlPSJmaWxsOiBub25lOyBzdHJva2UtbGluZWNhcDogcm91bmQ7IHN0cm9rZS1saW5lam9pbjogcm91bmQ7IHN0cm9rZTogcmdiKDM0LCAzNiwgNDIpOyBzdHJva2Utd2lkdGg6IDJweDsgbWFya2VyLWVuZDogdXJsKCcjbWFya2VyLWRncWdzZnhrdDhyYzd5ZjQ1ZDdub3lyYzcnKTsiLz48L2c+PHBhdGggY2xhc3M9ImRqcy1oaXQgZGpzLWhpdC1zdHJva2UiIHN0eWxlPSJmaWxsOiBub25lOyBzdHJva2Utb3BhY2l0eTogMDsgc3Ryb2tlOiB3aGl0ZTsgc3Ryb2tlLXdpZHRoOiAxNXB4OyIgZD0iTTE0MjAsMzk1TDE0MjAsMjIwIi8+PHJlY3QgY2xhc3M9ImRqcy1vdXRsaW5lIiBzdHlsZT0iZmlsbDogbm9uZTsiIGhlaWdodD0iMTg1IiB3aWR0aD0iMTAiIHJ4PSI0IiB5PSIyMTUiIHg9IjE0MTUiLz48L2c+PC9nPjxnIGNsYXNzPSJkanMtZ3JvdXAiPjxnIHN0eWxlPSJkaXNwbGF5OiBibG9jazsiIHRyYW5zZm9ybT0ibWF0cml4KDEsIDAsIDAsIDEsIDEzNzIsIDI2MykiIGRhdGEtZWxlbWVudC1pZD0iRmxvd18xbTJ6bGJ3X2xhYmVsIiBjbGFzcz0iZGpzLWVsZW1lbnQgZGpzLXNoYXBlIj48ZyBjbGFzcz0iZGpzLXZpc3VhbCI+PHRleHQgY2xhc3M9ImRqcy1sYWJlbCIgc3R5bGU9ImZvbnQtZmFtaWx5OiBBcmlhbCwgc2Fucy1zZXJpZjsgZm9udC1zaXplOiAxMXB4OyBmb250LXdlaWdodDogbm9ybWFsOyBmaWxsOiByZ2IoMzQsIDM2LCA0Mik7Ij48dHNwYW4geT0iOS44OTk5OTk5OTk5OTk5OTkiIHg9IjEuMjE2NjY1MjY3OTQ0MzM2Ij5EZXRhaWxzPC90c3Bhbj48dHNwYW4geT0iMjMuMDk5OTk5OTk5OTk5OTk4IiB4PSIwIj5Db3JyZWN0PC90c3Bhbj48L3RleHQ+PC9nPjxyZWN0IGhlaWdodD0iMjciIHdpZHRoPSIzNyIgeT0iMCIgeD0iMCIgY2xhc3M9ImRqcy1oaXQgZGpzLWhpdC1hbGwiIHN0eWxlPSJmaWxsOiBub25lOyBzdHJva2Utb3BhY2l0eTogMDsgc3Ryb2tlOiB3aGl0ZTsgc3Ryb2tlLXdpZHRoOiAxNXB4OyIvPjxyZWN0IGNsYXNzPSJkanMtb3V0bGluZSIgc3R5bGU9ImZpbGw6IG5vbmU7IiBoZWlnaHQ9IjM3IiB3aWR0aD0iNDciIHJ4PSI0IiB5PSItNSIgeD0iLTUiLz48L2c+PC9nPjxnIGNsYXNzPSJkanMtZ3JvdXAiPjxnIHN0eWxlPSJkaXNwbGF5OiBibG9jazsiIGRhdGEtZWxlbWVudC1pZD0iRmxvd18wdXl0cmZ4IiBjbGFzcz0iZGpzLWVsZW1lbnQgZGpzLWNvbm5lY3Rpb24iPjxnIGNsYXNzPSJkanMtdmlzdWFsIj48ZGVmcz48bWFya2VyIG9yaWVudD0iYXV0byIgbWFya2VySGVpZ2h0PSIxMCIgbWFya2VyV2lkdGg9IjEwIiByZWZZPSIxMCIgcmVmWD0iMTEiIHZpZXdCb3g9IjAgMCAyMCAyMCIgaWQ9Im1hcmtlci01ZGl5Zmxlc2lxa25sbjk1bXJjdjlibnNnIj48cGF0aCBzdHlsZT0ic3Ryb2tlLWxpbmVjYXA6IHJvdW5kOyBzdHJva2UtbGluZWpvaW46IHJvdW5kOyBzdHJva2U6IHJnYigzNCwgMzYsIDQyKTsgc3Ryb2tlLXdpZHRoOiAxcHg7IGZpbGw6IHJnYigzNCwgMzYsIDQyKTsiIGQ9Ik0gMSA1IEwgMTEgMTAgTCAxIDE1IFoiLz48L21hcmtlcj48L2RlZnM+PHBhdGggZD0iTTE0NzAsMTgwTDE1MzUsMTgwQzE1MzcuNSwxODAsMTU0MCwxODIuNSwxNTQwLDE4NUwxNTQwLDM4MCIgZGF0YS1jb3JuZXItcmFkaXVzPSI1IiBzdHlsZT0iZmlsbDogbm9uZTsgc3Ryb2tlLWxpbmVjYXA6IHJvdW5kOyBzdHJva2UtbGluZWpvaW46IHJvdW5kOyBzdHJva2U6IHJnYigzNCwgMzYsIDQyKTsgc3Ryb2tlLXdpZHRoOiAycHg7IG1hcmtlci1lbmQ6IHVybCgnI21hcmtlci01ZGl5Zmxlc2lxa25sbjk1bXJjdjlibnNnJyk7Ii8+PC9nPjxwYXRoIGNsYXNzPSJkanMtaGl0IGRqcy1oaXQtc3Ryb2tlIiBzdHlsZT0iZmlsbDogbm9uZTsgc3Ryb2tlLW9wYWNpdHk6IDA7IHN0cm9rZTogd2hpdGU7IHN0cm9rZS13aWR0aDogMTVweDsiIGQ9Ik0xNDcwLDE4MEwxNTQwLDE4MEwxNTQwLDM4MCIvPjxyZWN0IGNsYXNzPSJkanMtb3V0bGluZSIgc3R5bGU9ImZpbGw6IG5vbmU7IiBoZWlnaHQ9IjIxMCIgd2lkdGg9IjgwIiByeD0iNCIgeT0iMTc1IiB4PSIxNDY1Ii8+PC9nPjwvZz48ZyBjbGFzcz0iZGpzLWdyb3VwIj48ZyBzdHlsZT0iZGlzcGxheTogYmxvY2s7IiBkYXRhLWVsZW1lbnQtaWQ9IkZsb3dfMXMzd24zMiIgY2xhc3M9ImRqcy1lbGVtZW50IGRqcy1jb25uZWN0aW9uIj48ZyBjbGFzcz0iZGpzLXZpc3VhbCI+PGRlZnM+PG1hcmtlciBvcmllbnQ9ImF1dG8iIG1hcmtlckhlaWdodD0iMTAiIG1hcmtlcldpZHRoPSIxMCIgcmVmWT0iMTAiIHJlZlg9IjExIiB2aWV3Qm94PSIwIDAgMjAgMjAiIGlkPSJtYXJrZXItMjZoN25yN2tydW1mem51N3R5d2F4NDhodiI+PHBhdGggc3R5bGU9InN0cm9rZS1saW5lY2FwOiByb3VuZDsgc3Ryb2tlLWxpbmVqb2luOiByb3VuZDsgc3Ryb2tlOiByZ2IoMzQsIDM2LCA0Mik7IHN0cm9rZS13aWR0aDogMXB4OyBmaWxsOiByZ2IoMzQsIDM2LCA0Mik7IiBkPSJNIDEgNSBMIDExIDEwIEwgMSAxNSBaIi8+PC9tYXJrZXI+PC9kZWZzPjxwYXRoIGQ9Ik0xNDIwLDQ0NUwxNDIwLDYwNUMxNDIwLDYwNy41LDE0MTcuNSw2MTAsMTQxNSw2MTBMMzA1LDYxMEMzMDIuNSw2MTAsMzAwLDYwNy41LDMwMCw2MDVMMzAwLDQyNUMzMDAsNDIyLjUsMzAyLjUsNDIwLDMwNSw0MjBMMzc1LDQyMCIgZGF0YS1jb3JuZXItcmFkaXVzPSI1IiBzdHlsZT0iZmlsbDogbm9uZTsgc3Ryb2tlLWxpbmVjYXA6IHJvdW5kOyBzdHJva2UtbGluZWpvaW46IHJvdW5kOyBzdHJva2U6IHJnYigzNCwgMzYsIDQyKTsgc3Ryb2tlLXdpZHRoOiAycHg7IG1hcmtlci1lbmQ6IHVybCgnI21hcmtlci0yNmg3bnI3a3J1bWZ6bnU3dHl3YXg0OGh2Jyk7Ii8+PC9nPjxwYXRoIGNsYXNzPSJkanMtaGl0IGRqcy1oaXQtc3Ryb2tlIiBzdHlsZT0iZmlsbDogbm9uZTsgc3Ryb2tlLW9wYWNpdHk6IDA7IHN0cm9rZTogd2hpdGU7IHN0cm9rZS13aWR0aDogMTVweDsiIGQ9Ik0xNDIwLDQ0NUwxNDIwLDYxMEwzMDAsNjEwTDMwMCw0MjBMMzc1LDQyMCIvPjxyZWN0IGNsYXNzPSJkanMtb3V0bGluZSIgc3R5bGU9ImZpbGw6IG5vbmU7IiBoZWlnaHQ9IjIwMCIgd2lkdGg9IjExMzAiIHJ4PSI0IiB5PSI0MTUiIHg9IjI5NSIvPjwvZz48L2c+PGcgY2xhc3M9ImRqcy1ncm91cCI+PGcgc3R5bGU9ImRpc3BsYXk6IGJsb2NrOyIgdHJhbnNmb3JtPSJtYXRyaXgoMSwgMCwgMCwgMSwgMTM2OSwgNTA0KSIgZGF0YS1lbGVtZW50LWlkPSJGbG93XzFzM3duMzJfbGFiZWwiIGNsYXNzPSJkanMtZWxlbWVudCBkanMtc2hhcGUiPjxnIGNsYXNzPSJkanMtdmlzdWFsIj48dGV4dCBjbGFzcz0iZGpzLWxhYmVsIiBzdHlsZT0iZm9udC1mYW1pbHk6IEFyaWFsLCBzYW5zLXNlcmlmOyBmb250LXNpemU6IDExcHg7IGZvbnQtd2VpZ2h0OiBub3JtYWw7IGZpbGw6IHJnYigzNCwgMzYsIDQyKTsiPjx0c3BhbiB5PSI5Ljg5OTk5OTk5OTk5OTk5OSIgeD0iNC41NzQ5OTg4NTU1OTA4MiI+RGV0YWlsczwvdHNwYW4+PHRzcGFuIHk9IjIzLjA5OTk5OTk5OTk5OTk5OCIgeD0iMCI+SW5jb3JyZWN0PC90c3Bhbj48L3RleHQ+PC9nPjxyZWN0IGhlaWdodD0iMjciIHdpZHRoPSI0MyIgeT0iMCIgeD0iMCIgY2xhc3M9ImRqcy1oaXQgZGpzLWhpdC1hbGwiIHN0eWxlPSJmaWxsOiBub25lOyBzdHJva2Utb3BhY2l0eTogMDsgc3Ryb2tlOiB3aGl0ZTsgc3Ryb2tlLXdpZHRoOiAxNXB4OyIvPjxyZWN0IGNsYXNzPSJkanMtb3V0bGluZSIgc3R5bGU9ImZpbGw6IG5vbmU7IiBoZWlnaHQ9IjM3IiB3aWR0aD0iNTMiIHJ4PSI0IiB5PSItNSIgeD0iLTUiLz48L2c+PC9nPjxnIGNsYXNzPSJkanMtZ3JvdXAiPjxnIHN0eWxlPSJkaXNwbGF5OiBibG9jazsiIGRhdGEtZWxlbWVudC1pZD0iRmxvd18wdmM0dTV1IiBjbGFzcz0iZGpzLWVsZW1lbnQgZGpzLWNvbm5lY3Rpb24iPjxnIGNsYXNzPSJkanMtdmlzdWFsIj48ZGVmcz48bWFya2VyIG9yaWVudD0iYXV0byIgbWFya2VySGVpZ2h0PSIxMCIgbWFya2VyV2lkdGg9IjEwIiByZWZZPSIxMCIgcmVmWD0iMTEiIHZpZXdCb3g9IjAgMCAyMCAyMCIgaWQ9Im1hcmtlci01YzJpdnBubGdyNXl5cWF1bHl2bW81ZTNjIj48cGF0aCBzdHlsZT0ic3Ryb2tlLWxpbmVjYXA6IHJvdW5kOyBzdHJva2UtbGluZWpvaW46IHJvdW5kOyBzdHJva2U6IHJnYigzNCwgMzYsIDQyKTsgc3Ryb2tlLXdpZHRoOiAxcHg7IGZpbGw6IHJnYigzNCwgMzYsIDQyKTsiIGQ9Ik0gMSA1IEwgMTEgMTAgTCAxIDE1IFoiLz48L21hcmtlcj48L2RlZnM+PHBhdGggZD0iTTE1OTAsNDIwTDE2NTAsNDIwIiBkYXRhLWNvcm5lci1yYWRpdXM9IjUiIHN0eWxlPSJmaWxsOiBub25lOyBzdHJva2UtbGluZWNhcDogcm91bmQ7IHN0cm9rZS1saW5lam9pbjogcm91bmQ7IHN0cm9rZTogcmdiKDM0LCAzNiwgNDIpOyBzdHJva2Utd2lkdGg6IDJweDsgbWFya2VyLWVuZDogdXJsKCcjbWFya2VyLTVjMml2cG5sZ3I1eXlxYXVseXZtbzVlM2MnKTsiLz48L2c+PHBhdGggY2xhc3M9ImRqcy1oaXQgZGpzLWhpdC1zdHJva2UiIHN0eWxlPSJmaWxsOiBub25lOyBzdHJva2Utb3BhY2l0eTogMDsgc3Ryb2tlOiB3aGl0ZTsgc3Ryb2tlLXdpZHRoOiAxNXB4OyIgZD0iTTE1OTAsNDIwTDE2NTAsNDIwIi8+PHJlY3QgY2xhc3M9ImRqcy1vdXRsaW5lIiBzdHlsZT0iZmlsbDogbm9uZTsiIGhlaWdodD0iMTAiIHdpZHRoPSI3MCIgcng9IjQiIHk9IjQxNSIgeD0iMTU4NSIvPjwvZz48L2c+PGcgY2xhc3M9ImRqcy1ncm91cCI+PGcgc3R5bGU9ImRpc3BsYXk6IGJsb2NrOyIgZGF0YS1lbGVtZW50LWlkPSJGbG93XzBva3g5ZXgiIGNsYXNzPSJkanMtZWxlbWVudCBkanMtY29ubmVjdGlvbiI+PGcgY2xhc3M9ImRqcy12aXN1YWwiPjxkZWZzPjxtYXJrZXIgb3JpZW50PSJhdXRvIiBtYXJrZXJIZWlnaHQ9IjEwIiBtYXJrZXJXaWR0aD0iMTAiIHJlZlk9IjEwIiByZWZYPSIxMSIgdmlld0JveD0iMCAwIDIwIDIwIiBpZD0ibWFya2VyLWR5cXVnaDZvbWVqODduNjFtMnRnYjJuc2EiPjxwYXRoIHN0eWxlPSJzdHJva2UtbGluZWNhcDogcm91bmQ7IHN0cm9rZS1saW5lam9pbjogcm91bmQ7IHN0cm9rZTogcmdiKDM0LCAzNiwgNDIpOyBzdHJva2Utd2lkdGg6IDFweDsgZmlsbDogcmdiKDM0LCAzNiwgNDIpOyIgZD0iTSAxIDUgTCAxMSAxMCBMIDEgMTUgWiIvPjwvbWFya2VyPjwvZGVmcz48cGF0aCBkPSJNMTcwMCwzODBMMTcwMCwyMjAiIGRhdGEtY29ybmVyLXJhZGl1cz0iNSIgc3R5bGU9ImZpbGw6IG5vbmU7IHN0cm9rZS1saW5lY2FwOiByb3VuZDsgc3Ryb2tlLWxpbmVqb2luOiByb3VuZDsgc3Ryb2tlOiByZ2IoMzQsIDM2LCA0Mik7IHN0cm9rZS13aWR0aDogMnB4OyBtYXJrZXItZW5kOiB1cmwoJyNtYXJrZXItZHlxdWdoNm9tZWo4N242MW0ydGdiMm5zYScpOyIvPjwvZz48cGF0aCBjbGFzcz0iZGpzLWhpdCBkanMtaGl0LXN0cm9rZSIgc3R5bGU9ImZpbGw6IG5vbmU7IHN0cm9rZS1vcGFjaXR5OiAwOyBzdHJva2U6IHdoaXRlOyBzdHJva2Utd2lkdGg6IDE1cHg7IiBkPSJNMTcwMCwzODBMMTcwMCwyMjAiLz48cmVjdCBjbGFzcz0iZGpzLW91dGxpbmUiIHN0eWxlPSJmaWxsOiBub25lOyIgaGVpZ2h0PSIxNzAiIHdpZHRoPSIxMCIgcng9IjQiIHk9IjIxNSIgeD0iMTY5NSIvPjwvZz48L2c+PGcgY2xhc3M9ImRqcy1ncm91cCI+PGcgc3R5bGU9ImRpc3BsYXk6IGJsb2NrOyIgZGF0YS1lbGVtZW50LWlkPSJGbG93XzBmc2UxcDgiIGNsYXNzPSJkanMtZWxlbWVudCBkanMtY29ubmVjdGlvbiI+PGcgY2xhc3M9ImRqcy12aXN1YWwiPjxkZWZzPjxtYXJrZXIgb3JpZW50PSJhdXRvIiBtYXJrZXJIZWlnaHQ9IjEwIiBtYXJrZXJXaWR0aD0iMTAiIHJlZlk9IjEwIiByZWZYPSIxMSIgdmlld0JveD0iMCAwIDIwIDIwIiBpZD0ibWFya2VyLTI2aDJwemJuaHF6OHNxOWRzbWNwaW96ZTciPjxwYXRoIHN0eWxlPSJzdHJva2UtbGluZWNhcDogcm91bmQ7IHN0cm9rZS1saW5lam9pbjogcm91bmQ7IHN0cm9rZTogcmdiKDM0LCAzNiwgNDIpOyBzdHJva2Utd2lkdGg6IDFweDsgZmlsbDogcmdiKDM0LCAzNiwgNDIpOyIgZD0iTSAxIDUgTCAxMSAxMCBMIDEgMTUgWiIvPjwvbWFya2VyPjwvZGVmcz48cGF0aCBkPSJNMTc1MCwxODBMMTgwMCwxODAiIGRhdGEtY29ybmVyLXJhZGl1cz0iNSIgc3R5bGU9ImZpbGw6IG5vbmU7IHN0cm9rZS1saW5lY2FwOiByb3VuZDsgc3Ryb2tlLWxpbmVqb2luOiByb3VuZDsgc3Ryb2tlOiByZ2IoMzQsIDM2LCA0Mik7IHN0cm9rZS13aWR0aDogMnB4OyBtYXJrZXItZW5kOiB1cmwoJyNtYXJrZXItMjZoMnB6Ym5ocXo4c3E5ZHNtY3Bpb3plNycpOyIvPjwvZz48cGF0aCBjbGFzcz0iZGpzLWhpdCBkanMtaGl0LXN0cm9rZSIgc3R5bGU9ImZpbGw6IG5vbmU7IHN0cm9rZS1vcGFjaXR5OiAwOyBzdHJva2U6IHdoaXRlOyBzdHJva2Utd2lkdGg6IDE1cHg7IiBkPSJNMTc1MCwxODBMMTgwMCwxODAiLz48cmVjdCBjbGFzcz0iZGpzLW91dGxpbmUiIHN0eWxlPSJmaWxsOiBub25lOyIgaGVpZ2h0PSIxMCIgd2lkdGg9IjYwIiByeD0iNCIgeT0iMTc1IiB4PSIxNzQ1Ii8+PC9nPjwvZz48ZyBjbGFzcz0iZGpzLWdyb3VwIj48ZyBzdHlsZT0iZGlzcGxheTogYmxvY2s7IiBkYXRhLWVsZW1lbnQtaWQ9IkZsb3dfMHpvNXFicSIgY2xhc3M9ImRqcy1lbGVtZW50IGRqcy1jb25uZWN0aW9uIj48ZyBjbGFzcz0iZGpzLXZpc3VhbCI+PGRlZnM+PG1hcmtlciBvcmllbnQ9ImF1dG8iIG1hcmtlckhlaWdodD0iMTAiIG1hcmtlcldpZHRoPSIxMCIgcmVmWT0iMTAiIHJlZlg9IjExIiB2aWV3Qm94PSIwIDAgMjAgMjAiIGlkPSJtYXJrZXItZXpjYXBlcXFkbzlqazIxM2xoY3B2bjUxZSI+PHBhdGggc3R5bGU9InN0cm9rZS1saW5lY2FwOiByb3VuZDsgc3Ryb2tlLWxpbmVqb2luOiByb3VuZDsgc3Ryb2tlOiByZ2IoMzQsIDM2LCA0Mik7IHN0cm9rZS13aWR0aDogMXB4OyBmaWxsOiByZ2IoMzQsIDM2LCA0Mik7IiBkPSJNIDEgNSBMIDExIDEwIEwgMSAxNSBaIi8+PC9tYXJrZXI+PC9kZWZzPjxwYXRoIGQ9Ik0xODUwLDIyMEwxODUwLDM4MCIgZGF0YS1jb3JuZXItcmFkaXVzPSI1IiBzdHlsZT0iZmlsbDogbm9uZTsgc3Ryb2tlLWxpbmVjYXA6IHJvdW5kOyBzdHJva2UtbGluZWpvaW46IHJvdW5kOyBzdHJva2U6IHJnYigzNCwgMzYsIDQyKTsgc3Ryb2tlLXdpZHRoOiAycHg7IG1hcmtlci1lbmQ6IHVybCgnI21hcmtlci1lemNhcGVxcWRvOWprMjEzbGhjcHZuNTFlJyk7Ii8+PC9nPjxwYXRoIGNsYXNzPSJkanMtaGl0IGRqcy1oaXQtc3Ryb2tlIiBzdHlsZT0iZmlsbDogbm9uZTsgc3Ryb2tlLW9wYWNpdHk6IDA7IHN0cm9rZTogd2hpdGU7IHN0cm9rZS13aWR0aDogMTVweDsiIGQ9Ik0xODUwLDIyMEwxODUwLDM4MCIvPjxyZWN0IGNsYXNzPSJkanMtb3V0bGluZSIgc3R5bGU9ImZpbGw6IG5vbmU7IiBoZWlnaHQ9IjE3MCIgd2lkdGg9IjEwIiByeD0iNCIgeT0iMjE1IiB4PSIxODQ1Ii8+PC9nPjwvZz48ZyBjbGFzcz0iZGpzLWdyb3VwIj48ZyBzdHlsZT0iZGlzcGxheTogYmxvY2s7IiBkYXRhLWVsZW1lbnQtaWQ9IkZsb3dfMG91enppeiIgY2xhc3M9ImRqcy1lbGVtZW50IGRqcy1jb25uZWN0aW9uIj48ZyBjbGFzcz0iZGpzLXZpc3VhbCI+PGRlZnM+PG1hcmtlciBvcmllbnQ9ImF1dG8iIG1hcmtlckhlaWdodD0iMTAiIG1hcmtlcldpZHRoPSIxMCIgcmVmWT0iMTAiIHJlZlg9IjExIiB2aWV3Qm94PSIwIDAgMjAgMjAiIGlkPSJtYXJrZXItMGFiYjNsZTlnODFybXZmYWQ1MjRiamJpNiI+PHBhdGggc3R5bGU9InN0cm9rZS1saW5lY2FwOiByb3VuZDsgc3Ryb2tlLWxpbmVqb2luOiByb3VuZDsgc3Ryb2tlOiByZ2IoMzQsIDM2LCA0Mik7IHN0cm9rZS13aWR0aDogMXB4OyBmaWxsOiByZ2IoMzQsIDM2LCA0Mik7IiBkPSJNIDEgNSBMIDExIDEwIEwgMSAxNSBaIi8+PC9tYXJrZXI+PC9kZWZzPjxwYXRoIGQ9Ik0xOTAwLDQyMEwxOTIwLDQyMEMxOTIyLjUsNDIwLDE5MjUsNDE3LjUsMTkyNSw0MTVMMTkyNSwxODVDMTkyNSwxODIuNSwxOTI3LjUsMTgwLDE5MzAsMTgwTDE5NTAsMTgwIiBkYXRhLWNvcm5lci1yYWRpdXM9IjUiIHN0eWxlPSJmaWxsOiBub25lOyBzdHJva2UtbGluZWNhcDogcm91bmQ7IHN0cm9rZS1saW5lam9pbjogcm91bmQ7IHN0cm9rZTogcmdiKDM0LCAzNiwgNDIpOyBzdHJva2Utd2lkdGg6IDJweDsgbWFya2VyLWVuZDogdXJsKCcjbWFya2VyLTBhYmIzbGU5Zzgxcm12ZmFkNTI0YmpiaTYnKTsiLz48L2c+PHBhdGggY2xhc3M9ImRqcy1oaXQgZGpzLWhpdC1zdHJva2UiIHN0eWxlPSJmaWxsOiBub25lOyBzdHJva2Utb3BhY2l0eTogMDsgc3Ryb2tlOiB3aGl0ZTsgc3Ryb2tlLXdpZHRoOiAxNXB4OyIgZD0iTTE5MDAsNDIwTDE5MjUsNDIwTDE5MjUsMTgwTDE5NTAsMTgwIi8+PHJlY3QgY2xhc3M9ImRqcy1vdXRsaW5lIiBzdHlsZT0iZmlsbDogbm9uZTsiIGhlaWdodD0iMjUwIiB3aWR0aD0iNjAiIHJ4PSI0IiB5PSIxNzUiIHg9IjE4OTUiLz48L2c+PC9nPjxnIGNsYXNzPSJkanMtZ3JvdXAiPjxnIHN0eWxlPSJkaXNwbGF5OiBibG9jazsiIGRhdGEtZWxlbWVudC1pZD0iRmxvd18xcDVnaWp2IiBjbGFzcz0iZGpzLWVsZW1lbnQgZGpzLWNvbm5lY3Rpb24iPjxnIGNsYXNzPSJkanMtdmlzdWFsIj48ZGVmcz48bWFya2VyIG9yaWVudD0iYXV0byIgbWFya2VySGVpZ2h0PSIxMCIgbWFya2VyV2lkdGg9IjEwIiByZWZZPSIxMCIgcmVmWD0iMTEiIHZpZXdCb3g9IjAgMCAyMCAyMCIgaWQ9Im1hcmtlci01MHg5bmZ4ZWphZzJ6ZDJ6ZGM0djAwdDZxIj48cGF0aCBzdHlsZT0ic3Ryb2tlLWxpbmVjYXA6IHJvdW5kOyBzdHJva2UtbGluZWpvaW46IHJvdW5kOyBzdHJva2U6IHJnYigzNCwgMzYsIDQyKTsgc3Ryb2tlLXdpZHRoOiAxcHg7IGZpbGw6IHJnYigzNCwgMzYsIDQyKTsiIGQ9Ik0gMSA1IEwgMTEgMTAgTCAxIDE1IFoiLz48L21hcmtlcj48L2RlZnM+PHBhdGggZD0iTTIwMDAsMjIwTDIwMDAsMzgwIiBkYXRhLWNvcm5lci1yYWRpdXM9IjUiIHN0eWxlPSJmaWxsOiBub25lOyBzdHJva2UtbGluZWNhcDogcm91bmQ7IHN0cm9rZS1saW5lam9pbjogcm91bmQ7IHN0cm9rZTogcmdiKDM0LCAzNiwgNDIpOyBzdHJva2Utd2lkdGg6IDJweDsgbWFya2VyLWVuZDogdXJsKCcjbWFya2VyLTUweDluZnhlamFnMnpkMnpkYzR2MDB0NnEnKTsiLz48L2c+PHBhdGggY2xhc3M9ImRqcy1oaXQgZGpzLWhpdC1zdHJva2UiIHN0eWxlPSJmaWxsOiBub25lOyBzdHJva2Utb3BhY2l0eTogMDsgc3Ryb2tlOiB3aGl0ZTsgc3Ryb2tlLXdpZHRoOiAxNXB4OyIgZD0iTTIwMDAsMjIwTDIwMDAsMzgwIi8+PHJlY3QgY2xhc3M9ImRqcy1vdXRsaW5lIiBzdHlsZT0iZmlsbDogbm9uZTsiIGhlaWdodD0iMTcwIiB3aWR0aD0iMTAiIHJ4PSI0IiB5PSIyMTUiIHg9IjE5OTUiLz48L2c+PC9nPjxnIGNsYXNzPSJkanMtZ3JvdXAiPjxnIHN0eWxlPSJkaXNwbGF5OiBibG9jazsiIGRhdGEtZWxlbWVudC1pZD0iRmxvd18xYmltMjV0IiBjbGFzcz0iZGpzLWVsZW1lbnQgZGpzLWNvbm5lY3Rpb24iPjxnIGNsYXNzPSJkanMtdmlzdWFsIj48ZGVmcz48bWFya2VyIG9yaWVudD0iYXV0byIgbWFya2VySGVpZ2h0PSIxMCIgbWFya2VyV2lkdGg9IjEwIiByZWZZPSIxMCIgcmVmWD0iMTEiIHZpZXdCb3g9IjAgMCAyMCAyMCIgaWQ9Im1hcmtlci0wcWY5Ymh2OG5mNGRiN3diZTMxY2NwcWI1Ij48cGF0aCBzdHlsZT0ic3Ryb2tlLWxpbmVjYXA6IHJvdW5kOyBzdHJva2UtbGluZWpvaW46IHJvdW5kOyBzdHJva2U6IHJnYigzNCwgMzYsIDQyKTsgc3Ryb2tlLXdpZHRoOiAxcHg7IGZpbGw6IHJnYigzNCwgMzYsIDQyKTsiIGQ9Ik0gMSA1IEwgMTEgMTAgTCAxIDE1IFoiLz48L21hcmtlcj48L2RlZnM+PHBhdGggZD0iTTIwNTAsNDIwTDIwNzUsNDIwQzIwNzcuNSw0MjAsMjA4MCw0MTcuNSwyMDgwLDQxNUwyMDgwLDE4NUMyMDgwLDE4Mi41LDIwODIuNSwxODAsMjA4NSwxODBMMjExMCwxODAiIGRhdGEtY29ybmVyLXJhZGl1cz0iNSIgc3R5bGU9ImZpbGw6IG5vbmU7IHN0cm9rZS1saW5lY2FwOiByb3VuZDsgc3Ryb2tlLWxpbmVqb2luOiByb3VuZDsgc3Ryb2tlOiByZ2IoMzQsIDM2LCA0Mik7IHN0cm9rZS13aWR0aDogMnB4OyBtYXJrZXItZW5kOiB1cmwoJyNtYXJrZXItMHFmOWJodjhuZjRkYjd3YmUzMWNjcHFiNScpOyIvPjwvZz48cGF0aCBjbGFzcz0iZGpzLWhpdCBkanMtaGl0LXN0cm9rZSIgc3R5bGU9ImZpbGw6IG5vbmU7IHN0cm9rZS1vcGFjaXR5OiAwOyBzdHJva2U6IHdoaXRlOyBzdHJva2Utd2lkdGg6IDE1cHg7IiBkPSJNMjA1MCw0MjBMMjA4MCw0MjBMMjA4MCwxODBMMjExMCwxODAiLz48cmVjdCBjbGFzcz0iZGpzLW91dGxpbmUiIHN0eWxlPSJmaWxsOiBub25lOyIgaGVpZ2h0PSIyNTAiIHdpZHRoPSI3MCIgcng9IjQiIHk9IjE3NSIgeD0iMjA0NSIvPjwvZz48L2c+PGcgY2xhc3M9ImRqcy1ncm91cCI+PGcgc3R5bGU9ImRpc3BsYXk6IGJsb2NrOyIgZGF0YS1lbGVtZW50LWlkPSJGbG93XzF1b3c5bWciIGNsYXNzPSJkanMtZWxlbWVudCBkanMtY29ubmVjdGlvbiI+PGcgY2xhc3M9ImRqcy12aXN1YWwiPjxkZWZzPjxtYXJrZXIgb3JpZW50PSJhdXRvIiBtYXJrZXJIZWlnaHQ9IjEwIiBtYXJrZXJXaWR0aD0iMTAiIHJlZlk9IjEwIiByZWZYPSIxMSIgdmlld0JveD0iMCAwIDIwIDIwIiBpZD0ibWFya2VyLTNxYnh6MDJxcDYwbnNyazM0Z21sMmQ2cWoiPjxwYXRoIHN0eWxlPSJzdHJva2UtbGluZWNhcDogcm91bmQ7IHN0cm9rZS1saW5lam9pbjogcm91bmQ7IHN0cm9rZTogcmdiKDM0LCAzNiwgNDIpOyBzdHJva2Utd2lkdGg6IDFweDsgZmlsbDogcmdiKDM0LCAzNiwgNDIpOyIgZD0iTSAxIDUgTCAxMSAxMCBMIDEgMTUgWiIvPjwvbWFya2VyPjwvZGVmcz48cGF0aCBkPSJNMjIxMCwxODBMMjI3MCwxODAiIGRhdGEtY29ybmVyLXJhZGl1cz0iNSIgc3R5bGU9ImZpbGw6IG5vbmU7IHN0cm9rZS1saW5lY2FwOiByb3VuZDsgc3Ryb2tlLWxpbmVqb2luOiByb3VuZDsgc3Ryb2tlOiByZ2IoMzQsIDM2LCA0Mik7IHN0cm9rZS13aWR0aDogMnB4OyBtYXJrZXItZW5kOiB1cmwoJyNtYXJrZXItM3FieHowMnFwNjBuc3JrMzRnbWwyZDZxaicpOyIvPjwvZz48cGF0aCBjbGFzcz0iZGpzLWhpdCBkanMtaGl0LXN0cm9rZSIgc3R5bGU9ImZpbGw6IG5vbmU7IHN0cm9rZS1vcGFjaXR5OiAwOyBzdHJva2U6IHdoaXRlOyBzdHJva2Utd2lkdGg6IDE1cHg7IiBkPSJNMjIxMCwxODBMMjI3MCwxODAiLz48cmVjdCBjbGFzcz0iZGpzLW91dGxpbmUiIHN0eWxlPSJmaWxsOiBub25lOyIgaGVpZ2h0PSIxMCIgd2lkdGg9IjcwIiByeD0iNCIgeT0iMTc1IiB4PSIyMjA1Ii8+PC9nPjwvZz48ZyBjbGFzcz0iZGpzLWdyb3VwIj48ZyBzdHlsZT0iZGlzcGxheTogYmxvY2s7IiBkYXRhLWVsZW1lbnQtaWQ9IkZsb3dfMHI0aWZveCIgY2xhc3M9ImRqcy1lbGVtZW50IGRqcy1jb25uZWN0aW9uIj48ZyBjbGFzcz0iZGpzLXZpc3VhbCI+PGRlZnM+PG1hcmtlciBvcmllbnQ9ImF1dG8iIG1hcmtlckhlaWdodD0iMTAiIG1hcmtlcldpZHRoPSIxMCIgcmVmWT0iMTAiIHJlZlg9IjExIiB2aWV3Qm94PSIwIDAgMjAgMjAiIGlkPSJtYXJrZXItY3gxcTBvZWJlZ2xjdW83MHUya3JrcWtjaCI+PHBhdGggc3R5bGU9InN0cm9rZS1saW5lY2FwOiByb3VuZDsgc3Ryb2tlLWxpbmVqb2luOiByb3VuZDsgc3Ryb2tlOiByZ2IoMzQsIDM2LCA0Mik7IHN0cm9rZS13aWR0aDogMXB4OyBmaWxsOiByZ2IoMzQsIDM2LCA0Mik7IiBkPSJNIDEgNSBMIDExIDEwIEwgMSAxNSBaIi8+PC9tYXJrZXI+PC9kZWZzPjxwYXRoIGQ9Ik0yMzIwLDIyMEwyMzIwLDM4MCIgZGF0YS1jb3JuZXItcmFkaXVzPSI1IiBzdHlsZT0iZmlsbDogbm9uZTsgc3Ryb2tlLWxpbmVjYXA6IHJvdW5kOyBzdHJva2UtbGluZWpvaW46IHJvdW5kOyBzdHJva2U6IHJnYigzNCwgMzYsIDQyKTsgc3Ryb2tlLXdpZHRoOiAycHg7IG1hcmtlci1lbmQ6IHVybCgnI21hcmtlci1jeDFxMG9lYmVnbGN1bzcwdTJrcmtxa2NoJyk7Ii8+PC9nPjxwYXRoIGNsYXNzPSJkanMtaGl0IGRqcy1oaXQtc3Ryb2tlIiBzdHlsZT0iZmlsbDogbm9uZTsgc3Ryb2tlLW9wYWNpdHk6IDA7IHN0cm9rZTogd2hpdGU7IHN0cm9rZS13aWR0aDogMTVweDsiIGQ9Ik0yMzIwLDIyMEwyMzIwLDM4MCIvPjxyZWN0IGNsYXNzPSJkanMtb3V0bGluZSIgc3R5bGU9ImZpbGw6IG5vbmU7IiBoZWlnaHQ9IjE3MCIgd2lkdGg9IjEwIiByeD0iNCIgeT0iMjE1IiB4PSIyMzE1Ii8+PC9nPjwvZz48ZyBjbGFzcz0iZGpzLWdyb3VwIj48ZyBzdHlsZT0iZGlzcGxheTogYmxvY2s7IiBkYXRhLWVsZW1lbnQtaWQ9IkZsb3dfMTRrZTJ5NyIgY2xhc3M9ImRqcy1lbGVtZW50IGRqcy1jb25uZWN0aW9uIj48ZyBjbGFzcz0iZGpzLXZpc3VhbCI+PGRlZnM+PG1hcmtlciBvcmllbnQ9ImF1dG8iIG1hcmtlckhlaWdodD0iMTAiIG1hcmtlcldpZHRoPSIxMCIgcmVmWT0iMTAiIHJlZlg9IjExIiB2aWV3Qm94PSIwIDAgMjAgMjAiIGlkPSJtYXJrZXItYmJvZ2N0a2FmMGwyZ292a3Y2NjM5amcyZSI+PHBhdGggc3R5bGU9InN0cm9rZS1saW5lY2FwOiByb3VuZDsgc3Ryb2tlLWxpbmVqb2luOiByb3VuZDsgc3Ryb2tlOiByZ2IoMzQsIDM2LCA0Mik7IHN0cm9rZS13aWR0aDogMXB4OyBmaWxsOiByZ2IoMzQsIDM2LCA0Mik7IiBkPSJNIDEgNSBMIDExIDEwIEwgMSAxNSBaIi8+PC9tYXJrZXI+PC9kZWZzPjxwYXRoIGQ9Ik0yMzcwLDQyMEwyNDIwLDQyMCIgZGF0YS1jb3JuZXItcmFkaXVzPSI1IiBzdHlsZT0iZmlsbDogbm9uZTsgc3Ryb2tlLWxpbmVjYXA6IHJvdW5kOyBzdHJva2UtbGluZWpvaW46IHJvdW5kOyBzdHJva2U6IHJnYigzNCwgMzYsIDQyKTsgc3Ryb2tlLXdpZHRoOiAycHg7IG1hcmtlci1lbmQ6IHVybCgnI21hcmtlci1iYm9nY3RrYWYwbDJnb3ZrdjY2MzlqZzJlJyk7Ii8+PC9nPjxwYXRoIGNsYXNzPSJkanMtaGl0IGRqcy1oaXQtc3Ryb2tlIiBzdHlsZT0iZmlsbDogbm9uZTsgc3Ryb2tlLW9wYWNpdHk6IDA7IHN0cm9rZTogd2hpdGU7IHN0cm9rZS13aWR0aDogMTVweDsiIGQ9Ik0yMzcwLDQyMEwyNDIwLDQyMCIvPjxyZWN0IGNsYXNzPSJkanMtb3V0bGluZSIgc3R5bGU9ImZpbGw6IG5vbmU7IiBoZWlnaHQ9IjEwIiB3aWR0aD0iNjAiIHJ4PSI0IiB5PSI0MTUiIHg9IjIzNjUiLz48L2c+PC9nPjxnIGNsYXNzPSJkanMtZ3JvdXAiPjxnIHN0eWxlPSJkaXNwbGF5OiBibG9jazsiIGRhdGEtZWxlbWVudC1pZD0iRmxvd18xOXNuM3NxIiBjbGFzcz0iZGpzLWVsZW1lbnQgZGpzLWNvbm5lY3Rpb24iPjxnIGNsYXNzPSJkanMtdmlzdWFsIj48ZGVmcz48bWFya2VyIG9yaWVudD0iYXV0byIgbWFya2VySGVpZ2h0PSIxMCIgbWFya2VyV2lkdGg9IjEwIiByZWZZPSIxMCIgcmVmWD0iMTEiIHZpZXdCb3g9IjAgMCAyMCAyMCIgaWQ9Im1hcmtlci0ycWhlNmd6NG9pemtsNjhjZ3p6eGZjd3ZkIj48cGF0aCBzdHlsZT0ic3Ryb2tlLWxpbmVjYXA6IHJvdW5kOyBzdHJva2UtbGluZWpvaW46IHJvdW5kOyBzdHJva2U6IHJnYigzNCwgMzYsIDQyKTsgc3Ryb2tlLXdpZHRoOiAxcHg7IGZpbGw6IHJnYigzNCwgMzYsIDQyKTsiIGQ9Ik0gMSA1IEwgMTEgMTAgTCAxIDE1IFoiLz48L21hcmtlcj48L2RlZnM+PHBhdGggZD0iTTI1MjAsNDIwTDI1NzIsNDIwIiBkYXRhLWNvcm5lci1yYWRpdXM9IjUiIHN0eWxlPSJmaWxsOiBub25lOyBzdHJva2UtbGluZWNhcDogcm91bmQ7IHN0cm9rZS1saW5lam9pbjogcm91bmQ7IHN0cm9rZTogcmdiKDM0LCAzNiwgNDIpOyBzdHJva2Utd2lkdGg6IDJweDsgbWFya2VyLWVuZDogdXJsKCcjbWFya2VyLTJxaGU2Z3o0b2l6a2w2OGNnenp4ZmN3dmQnKTsiLz48L2c+PHBhdGggY2xhc3M9ImRqcy1oaXQgZGpzLWhpdC1zdHJva2UiIHN0eWxlPSJmaWxsOiBub25lOyBzdHJva2Utb3BhY2l0eTogMDsgc3Ryb2tlOiB3aGl0ZTsgc3Ryb2tlLXdpZHRoOiAxNXB4OyIgZD0iTTI1MjAsNDIwTDI1NzIsNDIwIi8+PHJlY3QgY2xhc3M9ImRqcy1vdXRsaW5lIiBzdHlsZT0iZmlsbDogbm9uZTsiIGhlaWdodD0iMTAiIHdpZHRoPSI2MiIgcng9IjQiIHk9IjQxNSIgeD0iMjUxNSIvPjwvZz48L2c+PGcgY2xhc3M9ImRqcy1ncm91cCI+PGcgc3R5bGU9ImRpc3BsYXk6IGJsb2NrOyIgZGF0YS1lbGVtZW50LWlkPSJGbG93XzFhcG8xMGciIGNsYXNzPSJkanMtZWxlbWVudCBkanMtY29ubmVjdGlvbiI+PGcgY2xhc3M9ImRqcy12aXN1YWwiPjxkZWZzPjxtYXJrZXIgb3JpZW50PSJhdXRvIiBtYXJrZXJIZWlnaHQ9IjEwIiBtYXJrZXJXaWR0aD0iMTAiIHJlZlk9IjEwIiByZWZYPSIxMSIgdmlld0JveD0iMCAwIDIwIDIwIiBpZD0ibWFya2VyLTc0OWVwaXJodjA1Nzlqam5lcXA4eTFpeG0iPjxwYXRoIHN0eWxlPSJzdHJva2UtbGluZWNhcDogcm91bmQ7IHN0cm9rZS1saW5lam9pbjogcm91bmQ7IHN0cm9rZTogcmdiKDM0LCAzNiwgNDIpOyBzdHJva2Utd2lkdGg6IDFweDsgZmlsbDogcmdiKDM0LCAzNiwgNDIpOyIgZD0iTSAxIDUgTCAxMSAxMCBMIDEgMTUgWiIvPjwvbWFya2VyPjwvZGVmcz48cGF0aCBkPSJNNDAwLDIyMEw0MDAsMzk1IiBkYXRhLWNvcm5lci1yYWRpdXM9IjUiIHN0eWxlPSJmaWxsOiBub25lOyBzdHJva2UtbGluZWNhcDogcm91bmQ7IHN0cm9rZS1saW5lam9pbjogcm91bmQ7IHN0cm9rZTogcmdiKDM0LCAzNiwgNDIpOyBzdHJva2Utd2lkdGg6IDJweDsgbWFya2VyLWVuZDogdXJsKCcjbWFya2VyLTc0OWVwaXJodjA1Nzlqam5lcXA4eTFpeG0nKTsiLz48L2c+PHBhdGggY2xhc3M9ImRqcy1oaXQgZGpzLWhpdC1zdHJva2UiIHN0eWxlPSJmaWxsOiBub25lOyBzdHJva2Utb3BhY2l0eTogMDsgc3Ryb2tlOiB3aGl0ZTsgc3Ryb2tlLXdpZHRoOiAxNXB4OyIgZD0iTTQwMCwyMjBMNDAwLDM5NSIvPjxyZWN0IGNsYXNzPSJkanMtb3V0bGluZSIgc3R5bGU9ImZpbGw6IG5vbmU7IiBoZWlnaHQ9IjE4NSIgd2lkdGg9IjEwIiByeD0iNCIgeT0iMjE1IiB4PSIzOTUiLz48L2c+PC9nPjxnIGNsYXNzPSJkanMtZ3JvdXAiPjxnIHN0eWxlPSJkaXNwbGF5OiBibG9jazsiIGRhdGEtZWxlbWVudC1pZD0iRmxvd18xM216NW9yIiBjbGFzcz0iZGpzLWVsZW1lbnQgZGpzLWNvbm5lY3Rpb24iPjxnIGNsYXNzPSJkanMtdmlzdWFsIj48ZGVmcz48bWFya2VyIG9yaWVudD0iYXV0byIgbWFya2VySGVpZ2h0PSIxMCIgbWFya2VyV2lkdGg9IjEwIiByZWZZPSIxMCIgcmVmWD0iMTEiIHZpZXdCb3g9IjAgMCAyMCAyMCIgaWQ9Im1hcmtlci01Nzg1bjlna3Q1MGF2MDdjejkyczlqa2owIj48cGF0aCBzdHlsZT0ic3Ryb2tlLWxpbmVjYXA6IHJvdW5kOyBzdHJva2UtbGluZWpvaW46IHJvdW5kOyBzdHJva2U6IHJnYigzNCwgMzYsIDQyKTsgc3Ryb2tlLXdpZHRoOiAxcHg7IGZpbGw6IHJnYigzNCwgMzYsIDQyKTsiIGQ9Ik0gMSA1IEwgMTEgMTAgTCAxIDE1IFoiLz48L21hcmtlcj48L2RlZnM+PHBhdGggZD0iTTQyNSw0MjBMNTIwLDQyMCIgZGF0YS1jb3JuZXItcmFkaXVzPSI1IiBzdHlsZT0iZmlsbDogbm9uZTsgc3Ryb2tlLWxpbmVjYXA6IHJvdW5kOyBzdHJva2UtbGluZWpvaW46IHJvdW5kOyBzdHJva2U6IHJnYigzNCwgMzYsIDQyKTsgc3Ryb2tlLXdpZHRoOiAycHg7IG1hcmtlci1lbmQ6IHVybCgnI21hcmtlci01Nzg1bjlna3Q1MGF2MDdjejkyczlqa2owJyk7Ii8+PC9nPjxwYXRoIGNsYXNzPSJkanMtaGl0IGRqcy1oaXQtc3Ryb2tlIiBzdHlsZT0iZmlsbDogbm9uZTsgc3Ryb2tlLW9wYWNpdHk6IDA7IHN0cm9rZTogd2hpdGU7IHN0cm9rZS13aWR0aDogMTVweDsiIGQ9Ik00MjUsNDIwTDUyMCw0MjAiLz48cmVjdCBjbGFzcz0iZGpzLW91dGxpbmUiIHN0eWxlPSJmaWxsOiBub25lOyIgaGVpZ2h0PSIxMCIgd2lkdGg9IjEwNSIgcng9IjQiIHk9IjQxNSIgeD0iNDIwIi8+PC9nPjwvZz48ZyBjbGFzcz0iZGpzLWdyb3VwIj48ZyBzdHlsZT0iZGlzcGxheTogYmxvY2s7IiBkYXRhLWVsZW1lbnQtaWQ9IkZsb3dfMWt4cWR3bCIgY2xhc3M9ImRqcy1lbGVtZW50IGRqcy1jb25uZWN0aW9uIj48ZyBjbGFzcz0iZGpzLXZpc3VhbCI+PGRlZnM+PG1hcmtlciBvcmllbnQ9ImF1dG8iIG1hcmtlckhlaWdodD0iMTAiIG1hcmtlcldpZHRoPSIxMCIgcmVmWT0iMTAiIHJlZlg9IjExIiB2aWV3Qm94PSIwIDAgMjAgMjAiIGlkPSJtYXJrZXItNTVvcTRoazhkdTI3a2p4bGltNGZwejIxMCI+PHBhdGggc3R5bGU9InN0cm9rZS1saW5lY2FwOiByb3VuZDsgc3Ryb2tlLWxpbmVqb2luOiByb3VuZDsgc3Ryb2tlOiByZ2IoMzQsIDM2LCA0Mik7IHN0cm9rZS13aWR0aDogMXB4OyBmaWxsOiByZ2IoMzQsIDM2LCA0Mik7IiBkPSJNIDEgNSBMIDExIDEwIEwgMSAxNSBaIi8+PC9tYXJrZXI+PC9kZWZzPjxwYXRoIGQ9Ik01NzAsMzgwTDU3MCwyMjAiIGRhdGEtY29ybmVyLXJhZGl1cz0iNSIgc3R5bGU9ImZpbGw6IG5vbmU7IHN0cm9rZS1saW5lY2FwOiByb3VuZDsgc3Ryb2tlLWxpbmVqb2luOiByb3VuZDsgc3Ryb2tlOiByZ2IoMzQsIDM2LCA0Mik7IHN0cm9rZS13aWR0aDogMnB4OyBtYXJrZXItZW5kOiB1cmwoJyNtYXJrZXItNTVvcTRoazhkdTI3a2p4bGltNGZwejIxMCcpOyIvPjwvZz48cGF0aCBjbGFzcz0iZGpzLWhpdCBkanMtaGl0LXN0cm9rZSIgc3R5bGU9ImZpbGw6IG5vbmU7IHN0cm9rZS1vcGFjaXR5OiAwOyBzdHJva2U6IHdoaXRlOyBzdHJva2Utd2lkdGg6IDE1cHg7IiBkPSJNNTcwLDM4MEw1NzAsMjIwIi8+PHJlY3QgY2xhc3M9ImRqcy1vdXRsaW5lIiBzdHlsZT0iZmlsbDogbm9uZTsiIGhlaWdodD0iMTcwIiB3aWR0aD0iMTAiIHJ4PSI0IiB5PSIyMTUiIHg9IjU2NSIvPjwvZz48L2c+PGcgY2xhc3M9ImRqcy1ncm91cCI+PGcgc3R5bGU9ImRpc3BsYXk6IGJsb2NrOyIgZGF0YS1lbGVtZW50LWlkPSJGbG93XzE0cXYxMzIiIGNsYXNzPSJkanMtZWxlbWVudCBkanMtY29ubmVjdGlvbiI+PGcgY2xhc3M9ImRqcy12aXN1YWwiPjxkZWZzPjxtYXJrZXIgb3JpZW50PSJhdXRvIiBtYXJrZXJIZWlnaHQ9IjEwIiBtYXJrZXJXaWR0aD0iMTAiIHJlZlk9IjEwIiByZWZYPSIxMSIgdmlld0JveD0iMCAwIDIwIDIwIiBpZD0ibWFya2VyLWUzd3FibDQ1ZGM4N2trYzJtMmM0dHVxMHQiPjxwYXRoIHN0eWxlPSJzdHJva2UtbGluZWNhcDogcm91bmQ7IHN0cm9rZS1saW5lam9pbjogcm91bmQ7IHN0cm9rZTogcmdiKDM0LCAzNiwgNDIpOyBzdHJva2Utd2lkdGg6IDFweDsgZmlsbDogcmdiKDM0LCAzNiwgNDIpOyIgZD0iTSAxIDUgTCAxMSAxMCBMIDEgMTUgWiIvPjwvbWFya2VyPjwvZGVmcz48cGF0aCBkPSJNOTEwLDQ0NUw5MTAsNTM1QzkxMCw1MzcuNSw5MDcuNSw1NDAsOTA1LDU0MEw0MDUsNTQwQzQwMi41LDU0MCw0MDAsNTM3LjUsNDAwLDUzNUw0MDAsNDQ1IiBkYXRhLWNvcm5lci1yYWRpdXM9IjUiIHN0eWxlPSJmaWxsOiBub25lOyBzdHJva2UtbGluZWNhcDogcm91bmQ7IHN0cm9rZS1saW5lam9pbjogcm91bmQ7IHN0cm9rZTogcmdiKDM0LCAzNiwgNDIpOyBzdHJva2Utd2lkdGg6IDJweDsgbWFya2VyLWVuZDogdXJsKCcjbWFya2VyLWUzd3FibDQ1ZGM4N2trYzJtMmM0dHVxMHQnKTsiLz48L2c+PHBhdGggY2xhc3M9ImRqcy1oaXQgZGpzLWhpdC1zdHJva2UiIHN0eWxlPSJmaWxsOiBub25lOyBzdHJva2Utb3BhY2l0eTogMDsgc3Ryb2tlOiB3aGl0ZTsgc3Ryb2tlLXdpZHRoOiAxNXB4OyIgZD0iTTkxMCw0NDVMOTEwLDU0MEw0MDAsNTQwTDQwMCw0NDUiLz48cmVjdCBjbGFzcz0iZGpzLW91dGxpbmUiIHN0eWxlPSJmaWxsOiBub25lOyIgaGVpZ2h0PSIxMDUiIHdpZHRoPSI1MjAiIHJ4PSI0IiB5PSI0NDAiIHg9IjM5NSIvPjwvZz48L2c+PGcgY2xhc3M9ImRqcy1ncm91cCI+PGcgc3R5bGU9ImRpc3BsYXk6IGJsb2NrOyIgdHJhbnNmb3JtPSJtYXRyaXgoMSwgMCwgMCwgMSwgNjI4LCA1MjIpIiBkYXRhLWVsZW1lbnQtaWQ9IkZsb3dfMTRxdjEzMl9sYWJlbCIgY2xhc3M9ImRqcy1lbGVtZW50IGRqcy1zaGFwZSI+PGcgY2xhc3M9ImRqcy12aXN1YWwiPjx0ZXh0IGNsYXNzPSJkanMtbGFiZWwiIHN0eWxlPSJmb250LWZhbWlseTogQXJpYWwsIHNhbnMtc2VyaWY7IGZvbnQtc2l6ZTogMTFweDsgZm9udC13ZWlnaHQ6IG5vcm1hbDsgZmlsbDogcmdiKDM0LCAzNiwgNDIpOyI+PHRzcGFuIHk9IjkuODk5OTk5OTk5OTk5OTk5IiB4PSIwIj5JbnZhbGlkIFZJTjwvdHNwYW4+PC90ZXh0PjwvZz48cmVjdCBoZWlnaHQ9IjE0IiB3aWR0aD0iNTQiIHk9IjAiIHg9IjAiIGNsYXNzPSJkanMtaGl0IGRqcy1oaXQtYWxsIiBzdHlsZT0iZmlsbDogbm9uZTsgc3Ryb2tlLW9wYWNpdHk6IDA7IHN0cm9rZTogd2hpdGU7IHN0cm9rZS13aWR0aDogMTVweDsiLz48cmVjdCBjbGFzcz0iZGpzLW91dGxpbmUiIHN0eWxlPSJmaWxsOiBub25lOyIgaGVpZ2h0PSIyNCIgd2lkdGg9IjY0IiByeD0iNCIgeT0iLTUiIHg9Ii01Ii8+PC9nPjwvZz48L2c+PC9nPjwvc3ZnPg==;" vertex="1" parent="1">
          <mxGeometry x="-1070" y="310" width="1887.64" height="420" as="geometry" />
        </mxCell>
      </root>
    </mxGraphModel>
  </diagram>
  <diagram id="k3d7ausSc85JzI9FLcyG" name="Record Sale">
    <mxGraphModel grid="1" page="1" gridSize="10" guides="1" tooltips="1" connect="1" arrows="1" fold="1" pageScale="1" pageWidth="850" pageHeight="1100" math="0" shadow="0">
      <root>
        <mxCell id="0" />
        <mxCell id="1" parent="0" />
        <mxCell id="4JLsvGPDuSj3MTwpGtPv-1" value="Sayyarat canada" style="swimlane;childLayout=stackLayout;resizeParent=1;resizeParentMax=0;horizontal=0;startSize=20;horizontalStack=0;html=1;" vertex="1" parent="1">
          <mxGeometry x="60" y="500" width="1780" height="560" as="geometry" />
        </mxCell>
        <mxCell id="4JLsvGPDuSj3MTwpGtPv-2" value="Employee" style="swimlane;startSize=20;horizontal=0;html=1;" vertex="1" parent="4JLsvGPDuSj3MTwpGtPv-1">
          <mxGeometry x="20" width="1760" height="220" as="geometry" />
        </mxCell>
        <mxCell id="mj9J9oxynzxWSdTMkl1h-4" value="Enter sales information/upload documents" style="points=[[0.25,0,0],[0.5,0,0],[0.75,0,0],[1,0.25,0],[1,0.5,0],[1,0.75,0],[0.75,1,0],[0.5,1,0],[0.25,1,0],[0,0.75,0],[0,0.5,0],[0,0.25,0]];shape=mxgraph.bpmn.task2;whiteSpace=wrap;rectStyle=rounded;size=10;html=1;container=1;expand=0;collapsible=0;taskMarker=abstract;" vertex="1" parent="4JLsvGPDuSj3MTwpGtPv-2">
          <mxGeometry x="650" y="50" width="120" height="80" as="geometry" />
        </mxCell>
        <mxCell id="4JLsvGPDuSj3MTwpGtPv-3" value="Dealership managment system" style="swimlane;startSize=20;horizontal=0;html=1;" vertex="1" parent="4JLsvGPDuSj3MTwpGtPv-1">
          <mxGeometry x="20" y="220" width="1760" height="340" as="geometry" />
        </mxCell>
        <mxCell id="VdZXbC9iMobXy-UVsa2M-1" value="Select Record Sale" style="points=[[0.145,0.145,0],[0.5,0,0],[0.855,0.145,0],[1,0.5,0],[0.855,0.855,0],[0.5,1,0],[0.145,0.855,0],[0,0.5,0]];shape=mxgraph.bpmn.event;html=1;verticalLabelPosition=bottom;labelBackgroundColor=#ffffff;verticalAlign=top;align=center;perimeter=ellipsePerimeter;outlineConnect=0;aspect=fixed;outline=standard;symbol=general;" vertex="1" parent="4JLsvGPDuSj3MTwpGtPv-3">
          <mxGeometry x="80" y="-155" width="50" height="50" as="geometry" />
        </mxCell>
        <mxCell id="VdZXbC9iMobXy-UVsa2M-2" value="DMS database" style="shape=datastore;html=1;labelPosition=center;verticalLabelPosition=bottom;align=center;verticalAlign=top;" vertex="1" parent="4JLsvGPDuSj3MTwpGtPv-3">
          <mxGeometry x="1300" y="240" width="100" height="70" as="geometry" />
        </mxCell>
        <mxCell id="VdZXbC9iMobXy-UVsa2M-3" value="Select vehicle" style="points=[[0.25,0,0],[0.5,0,0],[0.75,0,0],[1,0.25,0],[1,0.5,0],[1,0.75,0],[0.75,1,0],[0.5,1,0],[0.25,1,0],[0,0.75,0],[0,0.5,0],[0,0.25,0]];shape=mxgraph.bpmn.task2;whiteSpace=wrap;rectStyle=rounded;size=10;html=1;container=1;expand=0;collapsible=0;taskMarker=abstract;" vertex="1" parent="4JLsvGPDuSj3MTwpGtPv-3">
          <mxGeometry x="330" y="-170" width="120" height="80" as="geometry" />
        </mxCell>
        <mxCell id="VdZXbC9iMobXy-UVsa2M-4" value="Display list of current vehicle" style="points=[[0.25,0,0],[0.5,0,0],[0.75,0,0],[1,0.25,0],[1,0.5,0],[1,0.75,0],[0.75,1,0],[0.5,1,0],[0.25,1,0],[0,0.75,0],[0,0.5,0],[0,0.25,0]];shape=mxgraph.bpmn.task2;whiteSpace=wrap;rectStyle=rounded;size=10;html=1;container=1;expand=0;collapsible=0;taskMarker=abstract;" vertex="1" parent="4JLsvGPDuSj3MTwpGtPv-3">
          <mxGeometry x="190" y="30" width="120" height="80" as="geometry" />
        </mxCell>
        <mxCell id="VdZXbC9iMobXy-UVsa2M-5" value="Validate Values" style="points=[[0.25,0,0],[0.5,0,0],[0.75,0,0],[1,0.25,0],[1,0.5,0],[1,0.75,0],[0.75,1,0],[0.5,1,0],[0.25,1,0],[0,0.75,0],[0,0.5,0],[0,0.25,0]];shape=mxgraph.bpmn.task2;whiteSpace=wrap;rectStyle=rounded;size=10;html=1;container=1;expand=0;collapsible=0;taskMarker=abstract;" vertex="1" parent="4JLsvGPDuSj3MTwpGtPv-3">
          <mxGeometry x="840" y="30" width="120" height="80" as="geometry" />
        </mxCell>
        <mxCell id="VdZXbC9iMobXy-UVsa2M-6" value="" style="points=[[0.25,0.25,0],[0.5,0,0],[0.75,0.25,0],[1,0.5,0],[0.75,0.75,0],[0.5,1,0],[0.25,0.75,0],[0,0.5,0]];shape=mxgraph.bpmn.gateway2;html=1;verticalLabelPosition=bottom;labelBackgroundColor=#ffffff;verticalAlign=top;align=center;perimeter=rhombusPerimeter;outlineConnect=0;outline=none;symbol=none;gwType=exclusive;" vertex="1" parent="4JLsvGPDuSj3MTwpGtPv-3">
          <mxGeometry x="1050" y="45" width="50" height="50" as="geometry" />
        </mxCell>
        <mxCell id="VdZXbC9iMobXy-UVsa2M-7" style="edgeStyle=orthogonalEdgeStyle;rounded=0;orthogonalLoop=1;jettySize=auto;html=1;exitX=1;exitY=0.5;exitDx=0;exitDy=0;exitPerimeter=0;entryX=0;entryY=0.5;entryDx=0;entryDy=0;entryPerimeter=0;" edge="1" parent="4JLsvGPDuSj3MTwpGtPv-3" source="VdZXbC9iMobXy-UVsa2M-5" target="VdZXbC9iMobXy-UVsa2M-6">
          <mxGeometry relative="1" as="geometry" />
        </mxCell>
        <mxCell id="VdZXbC9iMobXy-UVsa2M-8" style="edgeStyle=orthogonalEdgeStyle;rounded=0;orthogonalLoop=1;jettySize=auto;html=1;exitX=0.5;exitY=1;exitDx=0;exitDy=0;exitPerimeter=0;entryX=0.5;entryY=0;entryDx=0;entryDy=0;entryPerimeter=0;" edge="1" parent="4JLsvGPDuSj3MTwpGtPv-3" source="VdZXbC9iMobXy-UVsa2M-6" target="VdZXbC9iMobXy-UVsa2M-16">
          <mxGeometry relative="1" as="geometry">
            <mxPoint x="1070" y="170" as="targetPoint" />
          </mxGeometry>
        </mxCell>
        <mxCell id="VdZXbC9iMobXy-UVsa2M-9" value="Invalid values" style="edgeLabel;html=1;align=center;verticalAlign=middle;resizable=0;points=[];" connectable="0" vertex="1" parent="VdZXbC9iMobXy-UVsa2M-8">
          <mxGeometry x="-0.6549" y="1" relative="1" as="geometry">
            <mxPoint x="-1" y="19" as="offset" />
          </mxGeometry>
        </mxCell>
        <mxCell id="VdZXbC9iMobXy-UVsa2M-10" value="Save information to database" style="points=[[0.25,0,0],[0.5,0,0],[0.75,0,0],[1,0.25,0],[1,0.5,0],[1,0.75,0],[0.75,1,0],[0.5,1,0],[0.25,1,0],[0,0.75,0],[0,0.5,0],[0,0.25,0]];shape=mxgraph.bpmn.task2;whiteSpace=wrap;rectStyle=rounded;size=10;html=1;container=1;expand=0;collapsible=0;taskMarker=abstract;" vertex="1" parent="4JLsvGPDuSj3MTwpGtPv-3">
          <mxGeometry x="1210" y="30" width="120" height="80" as="geometry" />
        </mxCell>
        <mxCell id="VdZXbC9iMobXy-UVsa2M-11" style="edgeStyle=orthogonalEdgeStyle;rounded=0;orthogonalLoop=1;jettySize=auto;html=1;exitX=1;exitY=0.5;exitDx=0;exitDy=0;exitPerimeter=0;entryX=0;entryY=0.5;entryDx=0;entryDy=0;entryPerimeter=0;" edge="1" parent="4JLsvGPDuSj3MTwpGtPv-3" source="VdZXbC9iMobXy-UVsa2M-6" target="VdZXbC9iMobXy-UVsa2M-10">
          <mxGeometry relative="1" as="geometry" />
        </mxCell>
        <mxCell id="VdZXbC9iMobXy-UVsa2M-12" value="Valid" style="edgeLabel;html=1;align=center;verticalAlign=middle;resizable=0;points=[];" connectable="0" vertex="1" parent="VdZXbC9iMobXy-UVsa2M-11">
          <mxGeometry x="-0.3091" y="-1" relative="1" as="geometry">
            <mxPoint as="offset" />
          </mxGeometry>
        </mxCell>
        <mxCell id="VdZXbC9iMobXy-UVsa2M-14" value="Sale Recorded" style="points=[[0.145,0.145,0],[0.5,0,0],[0.855,0.145,0],[1,0.5,0],[0.855,0.855,0],[0.5,1,0],[0.145,0.855,0],[0,0.5,0]];shape=mxgraph.bpmn.event;html=1;verticalLabelPosition=bottom;labelBackgroundColor=#ffffff;verticalAlign=top;align=center;perimeter=ellipsePerimeter;outlineConnect=0;aspect=fixed;outline=end;symbol=terminate2;" vertex="1" parent="4JLsvGPDuSj3MTwpGtPv-3">
          <mxGeometry x="1590" y="45" width="50" height="50" as="geometry" />
        </mxCell>
        <mxCell id="VdZXbC9iMobXy-UVsa2M-15" value="" style="edgeStyle=elbowEdgeStyle;fontSize=12;html=1;endFill=0;startFill=0;endSize=6;startSize=6;dashed=1;dashPattern=1 4;endArrow=openThin;startArrow=none;rounded=0;exitX=0.5;exitY=1;exitDx=0;exitDy=0;exitPerimeter=0;entryX=0;entryY=0.5;entryDx=0;entryDy=0;" edge="1" parent="4JLsvGPDuSj3MTwpGtPv-3" source="VdZXbC9iMobXy-UVsa2M-10">
          <mxGeometry width="160" relative="1" as="geometry">
            <mxPoint x="1240" y="190" as="sourcePoint" />
            <mxPoint x="1300" y="275" as="targetPoint" />
            <Array as="points">
              <mxPoint x="1250" y="170" />
            </Array>
          </mxGeometry>
        </mxCell>
        <mxCell id="VdZXbC9iMobXy-UVsa2M-16" value="Display Errors" style="points=[[0.25,0,0],[0.5,0,0],[0.75,0,0],[1,0.25,0],[1,0.5,0],[1,0.75,0],[0.75,1,0],[0.5,1,0],[0.25,1,0],[0,0.75,0],[0,0.5,0],[0,0.25,0]];shape=mxgraph.bpmn.task2;whiteSpace=wrap;rectStyle=rounded;size=10;html=1;container=1;expand=0;collapsible=0;taskMarker=abstract;" vertex="1" parent="4JLsvGPDuSj3MTwpGtPv-3">
          <mxGeometry x="1015" y="190" width="120" height="80" as="geometry" />
        </mxCell>
        <mxCell id="VdZXbC9iMobXy-UVsa2M-17" style="edgeStyle=orthogonalEdgeStyle;rounded=0;orthogonalLoop=1;jettySize=auto;html=1;exitX=0;exitY=0.5;exitDx=0;exitDy=0;exitPerimeter=0;entryX=0.5;entryY=1;entryDx=0;entryDy=0;entryPerimeter=0;" edge="1" parent="4JLsvGPDuSj3MTwpGtPv-3" source="VdZXbC9iMobXy-UVsa2M-16" target="mj9J9oxynzxWSdTMkl1h-1">
          <mxGeometry relative="1" as="geometry" />
        </mxCell>
        <mxCell id="VdZXbC9iMobXy-UVsa2M-18" style="edgeStyle=orthogonalEdgeStyle;rounded=0;orthogonalLoop=1;jettySize=auto;html=1;exitX=1;exitY=0.5;exitDx=0;exitDy=0;exitPerimeter=0;entryX=0.5;entryY=1;entryDx=0;entryDy=0;entryPerimeter=0;" edge="1" parent="4JLsvGPDuSj3MTwpGtPv-3" source="VdZXbC9iMobXy-UVsa2M-4" target="VdZXbC9iMobXy-UVsa2M-3">
          <mxGeometry relative="1" as="geometry" />
        </mxCell>
        <mxCell id="VdZXbC9iMobXy-UVsa2M-20" style="edgeStyle=orthogonalEdgeStyle;rounded=0;orthogonalLoop=1;jettySize=auto;html=1;exitX=1;exitY=0.5;exitDx=0;exitDy=0;exitPerimeter=0;entryX=0.5;entryY=0;entryDx=0;entryDy=0;entryPerimeter=0;" edge="1" parent="4JLsvGPDuSj3MTwpGtPv-3" source="VdZXbC9iMobXy-UVsa2M-1" target="VdZXbC9iMobXy-UVsa2M-4">
          <mxGeometry relative="1" as="geometry">
            <mxPoint x="200" y="-110" as="sourcePoint" />
          </mxGeometry>
        </mxCell>
        <mxCell id="mj9J9oxynzxWSdTMkl1h-1" value="request sales information" style="points=[[0.25,0,0],[0.5,0,0],[0.75,0,0],[1,0.25,0],[1,0.5,0],[1,0.75,0],[0.75,1,0],[0.5,1,0],[0.25,1,0],[0,0.75,0],[0,0.5,0],[0,0.25,0]];shape=mxgraph.bpmn.task2;whiteSpace=wrap;rectStyle=rounded;size=10;html=1;container=1;expand=0;collapsible=0;taskMarker=abstract;" vertex="1" parent="4JLsvGPDuSj3MTwpGtPv-3">
          <mxGeometry x="490" y="40" width="120" height="80" as="geometry" />
        </mxCell>
        <mxCell id="mj9J9oxynzxWSdTMkl1h-3" style="edgeStyle=orthogonalEdgeStyle;rounded=0;orthogonalLoop=1;jettySize=auto;html=1;exitX=1;exitY=0.5;exitDx=0;exitDy=0;exitPerimeter=0;entryX=0;entryY=0.5;entryDx=0;entryDy=0;entryPerimeter=0;" edge="1" parent="4JLsvGPDuSj3MTwpGtPv-3" source="VdZXbC9iMobXy-UVsa2M-3" target="mj9J9oxynzxWSdTMkl1h-1">
          <mxGeometry relative="1" as="geometry" />
        </mxCell>
        <mxCell id="MeufBmz2E9CbgsvYsts2-1" value="Display success" style="points=[[0.25,0,0],[0.5,0,0],[0.75,0,0],[1,0.25,0],[1,0.5,0],[1,0.75,0],[0.75,1,0],[0.5,1,0],[0.25,1,0],[0,0.75,0],[0,0.5,0],[0,0.25,0]];shape=mxgraph.bpmn.task2;whiteSpace=wrap;rectStyle=rounded;size=10;html=1;container=1;expand=0;collapsible=0;taskMarker=abstract;" vertex="1" parent="4JLsvGPDuSj3MTwpGtPv-3">
          <mxGeometry x="1400" y="30" width="120" height="80" as="geometry" />
        </mxCell>
        <mxCell id="MeufBmz2E9CbgsvYsts2-2" style="edgeStyle=orthogonalEdgeStyle;rounded=0;orthogonalLoop=1;jettySize=auto;html=1;exitX=1;exitY=0.5;exitDx=0;exitDy=0;exitPerimeter=0;entryX=0;entryY=0.5;entryDx=0;entryDy=0;entryPerimeter=0;" edge="1" parent="4JLsvGPDuSj3MTwpGtPv-3" source="VdZXbC9iMobXy-UVsa2M-10" target="MeufBmz2E9CbgsvYsts2-1">
          <mxGeometry relative="1" as="geometry" />
        </mxCell>
        <mxCell id="MeufBmz2E9CbgsvYsts2-3" style="edgeStyle=orthogonalEdgeStyle;rounded=0;orthogonalLoop=1;jettySize=auto;html=1;exitX=1;exitY=0.5;exitDx=0;exitDy=0;exitPerimeter=0;entryX=0;entryY=0.5;entryDx=0;entryDy=0;entryPerimeter=0;" edge="1" parent="4JLsvGPDuSj3MTwpGtPv-3" source="MeufBmz2E9CbgsvYsts2-1" target="VdZXbC9iMobXy-UVsa2M-14">
          <mxGeometry relative="1" as="geometry" />
        </mxCell>
        <mxCell id="mj9J9oxynzxWSdTMkl1h-5" style="edgeStyle=orthogonalEdgeStyle;rounded=0;orthogonalLoop=1;jettySize=auto;html=1;exitX=1;exitY=0.5;exitDx=0;exitDy=0;exitPerimeter=0;entryX=0;entryY=0.5;entryDx=0;entryDy=0;entryPerimeter=0;" edge="1" parent="4JLsvGPDuSj3MTwpGtPv-1" source="mj9J9oxynzxWSdTMkl1h-1" target="mj9J9oxynzxWSdTMkl1h-4">
          <mxGeometry relative="1" as="geometry" />
        </mxCell>
        <mxCell id="mj9J9oxynzxWSdTMkl1h-6" style="edgeStyle=orthogonalEdgeStyle;rounded=0;orthogonalLoop=1;jettySize=auto;html=1;exitX=1;exitY=0.5;exitDx=0;exitDy=0;exitPerimeter=0;entryX=0;entryY=0.5;entryDx=0;entryDy=0;entryPerimeter=0;" edge="1" parent="4JLsvGPDuSj3MTwpGtPv-1" source="mj9J9oxynzxWSdTMkl1h-4" target="VdZXbC9iMobXy-UVsa2M-5">
          <mxGeometry relative="1" as="geometry" />
        </mxCell>
      </root>
    </mxGraphModel>
  </diagram>
  <diagram id="_IN_siHVIUoUM1OGt6kI" name="Generate reports">
    <mxGraphModel grid="1" page="1" gridSize="10" guides="1" tooltips="1" connect="1" arrows="1" fold="1" pageScale="1" pageWidth="850" pageHeight="1100" math="0" shadow="0">
      <root>
        <mxCell id="0" />
        <mxCell id="1" parent="0" />
        <mxCell id="cGPf7heiZKaI3KtQXobz-1" value="Sayyarat Canada" style="swimlane;html=1;childLayout=stackLayout;resizeParent=1;resizeParentMax=0;horizontal=0;startSize=20;horizontalStack=0;whiteSpace=wrap;" vertex="1" parent="1">
          <mxGeometry x="-1490" y="210" width="2330" height="590" as="geometry" />
        </mxCell>
        <mxCell id="cGPf7heiZKaI3KtQXobz-2" value="Employees" style="swimlane;html=1;startSize=20;horizontal=0;" vertex="1" parent="cGPf7heiZKaI3KtQXobz-1">
          <mxGeometry x="20" width="2310" height="290" as="geometry" />
        </mxCell>
        <mxCell id="2nOwLXs2zbcVcpe6wVe3-1" value="Select generate report" style="points=[[0.145,0.145,0],[0.5,0,0],[0.855,0.145,0],[1,0.5,0],[0.855,0.855,0],[0.5,1,0],[0.145,0.855,0],[0,0.5,0]];shape=mxgraph.bpmn.event;html=1;verticalLabelPosition=bottom;labelBackgroundColor=#ffffff;verticalAlign=top;align=center;perimeter=ellipsePerimeter;outlineConnect=0;aspect=fixed;outline=standard;symbol=general;" vertex="1" parent="cGPf7heiZKaI3KtQXobz-2">
          <mxGeometry x="90" y="120" width="50" height="50" as="geometry" />
        </mxCell>
        <mxCell id="2nOwLXs2zbcVcpe6wVe3-4" value="Select desired report" style="points=[[0.25,0,0],[0.5,0,0],[0.75,0,0],[1,0.25,0],[1,0.5,0],[1,0.75,0],[0.75,1,0],[0.5,1,0],[0.25,1,0],[0,0.75,0],[0,0.5,0],[0,0.25,0]];shape=mxgraph.bpmn.task2;whiteSpace=wrap;rectStyle=rounded;size=10;html=1;container=1;expand=0;collapsible=0;taskMarker=abstract;" vertex="1" parent="cGPf7heiZKaI3KtQXobz-2">
          <mxGeometry x="390" y="120" width="120" height="80" as="geometry" />
        </mxCell>
        <mxCell id="2nOwLXs2zbcVcpe6wVe3-8" value="Apply needed filters to report" style="points=[[0.25,0,0],[0.5,0,0],[0.75,0,0],[1,0.25,0],[1,0.5,0],[1,0.75,0],[0.75,1,0],[0.5,1,0],[0.25,1,0],[0,0.75,0],[0,0.5,0],[0,0.25,0]];shape=mxgraph.bpmn.task2;whiteSpace=wrap;rectStyle=rounded;size=10;html=1;container=1;expand=0;collapsible=0;taskMarker=abstract;" vertex="1" parent="cGPf7heiZKaI3KtQXobz-2">
          <mxGeometry x="740" y="120" width="120" height="80" as="geometry" />
        </mxCell>
        <mxCell id="2nOwLXs2zbcVcpe6wVe3-14" value="review report" style="points=[[0.25,0,0],[0.5,0,0],[0.75,0,0],[1,0.25,0],[1,0.5,0],[1,0.75,0],[0.75,1,0],[0.5,1,0],[0.25,1,0],[0,0.75,0],[0,0.5,0],[0,0.25,0]];shape=mxgraph.bpmn.task2;whiteSpace=wrap;rectStyle=rounded;size=10;html=1;container=1;expand=0;collapsible=0;taskMarker=abstract;" vertex="1" parent="cGPf7heiZKaI3KtQXobz-2">
          <mxGeometry x="1140" y="120" width="120" height="80" as="geometry" />
        </mxCell>
        <mxCell id="dn54jaXT9u-q0-h5svgj-2" value="" style="points=[[0.25,0.25,0],[0.5,0,0],[0.75,0.25,0],[1,0.5,0],[0.75,0.75,0],[0.5,1,0],[0.25,0.75,0],[0,0.5,0]];shape=mxgraph.bpmn.gateway2;html=1;verticalLabelPosition=bottom;labelBackgroundColor=#ffffff;verticalAlign=top;align=center;perimeter=rhombusPerimeter;outlineConnect=0;outline=none;symbol=none;gwType=exclusive;" vertex="1" parent="cGPf7heiZKaI3KtQXobz-2">
          <mxGeometry x="1390" y="135" width="50" height="50" as="geometry" />
        </mxCell>
        <mxCell id="dn54jaXT9u-q0-h5svgj-3" style="edgeStyle=orthogonalEdgeStyle;rounded=0;orthogonalLoop=1;jettySize=auto;html=1;exitX=1;exitY=0.5;exitDx=0;exitDy=0;exitPerimeter=0;entryX=0;entryY=0.5;entryDx=0;entryDy=0;entryPerimeter=0;" edge="1" parent="cGPf7heiZKaI3KtQXobz-2" source="2nOwLXs2zbcVcpe6wVe3-14" target="dn54jaXT9u-q0-h5svgj-2">
          <mxGeometry relative="1" as="geometry" />
        </mxCell>
        <mxCell id="dn54jaXT9u-q0-h5svgj-4" value="Report generated" style="points=[[0.145,0.145,0],[0.5,0,0],[0.855,0.145,0],[1,0.5,0],[0.855,0.855,0],[0.5,1,0],[0.145,0.855,0],[0,0.5,0]];shape=mxgraph.bpmn.event;html=1;verticalLabelPosition=bottom;labelBackgroundColor=#ffffff;verticalAlign=top;align=center;perimeter=ellipsePerimeter;outlineConnect=0;aspect=fixed;outline=end;symbol=terminate2;" vertex="1" parent="cGPf7heiZKaI3KtQXobz-2">
          <mxGeometry x="1540" y="30" width="50" height="50" as="geometry" />
        </mxCell>
        <mxCell id="dn54jaXT9u-q0-h5svgj-5" style="edgeStyle=orthogonalEdgeStyle;rounded=0;orthogonalLoop=1;jettySize=auto;html=1;exitX=0.5;exitY=0;exitDx=0;exitDy=0;exitPerimeter=0;entryX=0;entryY=0.5;entryDx=0;entryDy=0;entryPerimeter=0;" edge="1" parent="cGPf7heiZKaI3KtQXobz-2" source="dn54jaXT9u-q0-h5svgj-2" target="dn54jaXT9u-q0-h5svgj-4">
          <mxGeometry relative="1" as="geometry" />
        </mxCell>
        <mxCell id="dn54jaXT9u-q0-h5svgj-6" value="Dont Download" style="edgeLabel;html=1;align=center;verticalAlign=middle;resizable=0;points=[];" connectable="0" vertex="1" parent="dn54jaXT9u-q0-h5svgj-5">
          <mxGeometry x="-0.1512" y="1" relative="1" as="geometry">
            <mxPoint as="offset" />
          </mxGeometry>
        </mxCell>
        <mxCell id="dn54jaXT9u-q0-h5svgj-12" value="Select file type" style="points=[[0.25,0,0],[0.5,0,0],[0.75,0,0],[1,0.25,0],[1,0.5,0],[1,0.75,0],[0.75,1,0],[0.5,1,0],[0.25,1,0],[0,0.75,0],[0,0.5,0],[0,0.25,0]];shape=mxgraph.bpmn.task2;whiteSpace=wrap;rectStyle=rounded;size=10;html=1;container=1;expand=0;collapsible=0;taskMarker=abstract;" vertex="1" parent="cGPf7heiZKaI3KtQXobz-2">
          <mxGeometry x="1560" y="185" width="120" height="80" as="geometry" />
        </mxCell>
        <mxCell id="cGPf7heiZKaI3KtQXobz-4" value="Dealership managment system" style="swimlane;html=1;startSize=20;horizontal=0;" vertex="1" parent="cGPf7heiZKaI3KtQXobz-1">
          <mxGeometry x="20" y="290" width="2310" height="300" as="geometry" />
        </mxCell>
        <mxCell id="2nOwLXs2zbcVcpe6wVe3-2" value="Display list of available reports" style="points=[[0.25,0,0],[0.5,0,0],[0.75,0,0],[1,0.25,0],[1,0.5,0],[1,0.75,0],[0.75,1,0],[0.5,1,0],[0.25,1,0],[0,0.75,0],[0,0.5,0],[0,0.25,0]];shape=mxgraph.bpmn.task2;whiteSpace=wrap;rectStyle=rounded;size=10;html=1;container=1;expand=0;collapsible=0;taskMarker=abstract;" vertex="1" parent="cGPf7heiZKaI3KtQXobz-4">
          <mxGeometry x="210" y="100" width="120" height="80" as="geometry" />
        </mxCell>
        <mxCell id="2nOwLXs2zbcVcpe6wVe3-6" value="Display selected report type" style="points=[[0.25,0,0],[0.5,0,0],[0.75,0,0],[1,0.25,0],[1,0.5,0],[1,0.75,0],[0.75,1,0],[0.5,1,0],[0.25,1,0],[0,0.75,0],[0,0.5,0],[0,0.25,0]];shape=mxgraph.bpmn.task2;whiteSpace=wrap;rectStyle=rounded;size=10;html=1;container=1;expand=0;collapsible=0;taskMarker=abstract;" vertex="1" parent="cGPf7heiZKaI3KtQXobz-4">
          <mxGeometry x="580" y="90" width="120" height="80" as="geometry" />
        </mxCell>
        <mxCell id="2nOwLXs2zbcVcpe6wVe3-10" value="Process filters" style="points=[[0.25,0,0],[0.5,0,0],[0.75,0,0],[1,0.25,0],[1,0.5,0],[1,0.75,0],[0.75,1,0],[0.5,1,0],[0.25,1,0],[0,0.75,0],[0,0.5,0],[0,0.25,0]];shape=mxgraph.bpmn.task2;whiteSpace=wrap;rectStyle=rounded;size=10;html=1;container=1;expand=0;collapsible=0;taskMarker=abstract;" vertex="1" parent="cGPf7heiZKaI3KtQXobz-4">
          <mxGeometry x="920" y="80" width="120" height="80" as="geometry" />
        </mxCell>
        <mxCell id="2nOwLXs2zbcVcpe6wVe3-12" value="Display report" style="points=[[0.25,0,0],[0.5,0,0],[0.75,0,0],[1,0.25,0],[1,0.5,0],[1,0.75,0],[0.75,1,0],[0.5,1,0],[0.25,1,0],[0,0.75,0],[0,0.5,0],[0,0.25,0]];shape=mxgraph.bpmn.task2;whiteSpace=wrap;rectStyle=rounded;size=10;html=1;container=1;expand=0;collapsible=0;taskMarker=abstract;" vertex="1" parent="cGPf7heiZKaI3KtQXobz-4">
          <mxGeometry x="1140" y="80" width="120" height="80" as="geometry" />
        </mxCell>
        <mxCell id="2nOwLXs2zbcVcpe6wVe3-13" style="edgeStyle=orthogonalEdgeStyle;rounded=0;orthogonalLoop=1;jettySize=auto;html=1;exitX=1;exitY=0.5;exitDx=0;exitDy=0;exitPerimeter=0;entryX=0;entryY=0.5;entryDx=0;entryDy=0;entryPerimeter=0;" edge="1" parent="cGPf7heiZKaI3KtQXobz-4" source="2nOwLXs2zbcVcpe6wVe3-10" target="2nOwLXs2zbcVcpe6wVe3-12">
          <mxGeometry relative="1" as="geometry" />
        </mxCell>
        <mxCell id="dn54jaXT9u-q0-h5svgj-7" value="Initiate dowload" style="points=[[0.25,0,0],[0.5,0,0],[0.75,0,0],[1,0.25,0],[1,0.5,0],[1,0.75,0],[0.75,1,0],[0.5,1,0],[0.25,1,0],[0,0.75,0],[0,0.5,0],[0,0.25,0]];shape=mxgraph.bpmn.task2;whiteSpace=wrap;rectStyle=rounded;size=10;html=1;container=1;expand=0;collapsible=0;taskMarker=abstract;" vertex="1" parent="cGPf7heiZKaI3KtQXobz-4">
          <mxGeometry x="1355" y="80" width="120" height="80" as="geometry" />
        </mxCell>
        <mxCell id="dn54jaXT9u-q0-h5svgj-10" value="Request file type" style="points=[[0.25,0,0],[0.5,0,0],[0.75,0,0],[1,0.25,0],[1,0.5,0],[1,0.75,0],[0.75,1,0],[0.5,1,0],[0.25,1,0],[0,0.75,0],[0,0.5,0],[0,0.25,0]];shape=mxgraph.bpmn.task2;whiteSpace=wrap;rectStyle=rounded;size=10;html=1;container=1;expand=0;collapsible=0;taskMarker=abstract;" vertex="1" parent="cGPf7heiZKaI3KtQXobz-4">
          <mxGeometry x="1560" y="80" width="120" height="80" as="geometry" />
        </mxCell>
        <mxCell id="dn54jaXT9u-q0-h5svgj-11" style="edgeStyle=orthogonalEdgeStyle;rounded=0;orthogonalLoop=1;jettySize=auto;html=1;exitX=1;exitY=0.5;exitDx=0;exitDy=0;exitPerimeter=0;entryX=0;entryY=0.5;entryDx=0;entryDy=0;entryPerimeter=0;" edge="1" parent="cGPf7heiZKaI3KtQXobz-4" source="dn54jaXT9u-q0-h5svgj-7" target="dn54jaXT9u-q0-h5svgj-10">
          <mxGeometry relative="1" as="geometry" />
        </mxCell>
        <mxCell id="dn54jaXT9u-q0-h5svgj-14" value="Generate report in file type" style="points=[[0.25,0,0],[0.5,0,0],[0.75,0,0],[1,0.25,0],[1,0.5,0],[1,0.75,0],[0.75,1,0],[0.5,1,0],[0.25,1,0],[0,0.75,0],[0,0.5,0],[0,0.25,0]];shape=mxgraph.bpmn.task2;whiteSpace=wrap;rectStyle=rounded;size=10;html=1;container=1;expand=0;collapsible=0;taskMarker=abstract;" vertex="1" parent="cGPf7heiZKaI3KtQXobz-4">
          <mxGeometry x="1770" y="80" width="120" height="80" as="geometry" />
        </mxCell>
        <mxCell id="dn54jaXT9u-q0-h5svgj-16" value="Download file to user machine" style="points=[[0.25,0,0],[0.5,0,0],[0.75,0,0],[1,0.25,0],[1,0.5,0],[1,0.75,0],[0.75,1,0],[0.5,1,0],[0.25,1,0],[0,0.75,0],[0,0.5,0],[0,0.25,0]];shape=mxgraph.bpmn.task2;whiteSpace=wrap;rectStyle=rounded;size=10;html=1;container=1;expand=0;collapsible=0;taskMarker=abstract;" vertex="1" parent="cGPf7heiZKaI3KtQXobz-4">
          <mxGeometry x="1980" y="80" width="120" height="80" as="geometry" />
        </mxCell>
        <mxCell id="dn54jaXT9u-q0-h5svgj-17" style="edgeStyle=orthogonalEdgeStyle;rounded=0;orthogonalLoop=1;jettySize=auto;html=1;exitX=1;exitY=0.5;exitDx=0;exitDy=0;exitPerimeter=0;entryX=0;entryY=0.5;entryDx=0;entryDy=0;entryPerimeter=0;" edge="1" parent="cGPf7heiZKaI3KtQXobz-4" source="dn54jaXT9u-q0-h5svgj-14" target="dn54jaXT9u-q0-h5svgj-16">
          <mxGeometry relative="1" as="geometry" />
        </mxCell>
        <mxCell id="dn54jaXT9u-q0-h5svgj-18" value="Report generated" style="points=[[0.145,0.145,0],[0.5,0,0],[0.855,0.145,0],[1,0.5,0],[0.855,0.855,0],[0.5,1,0],[0.145,0.855,0],[0,0.5,0]];shape=mxgraph.bpmn.event;html=1;verticalLabelPosition=bottom;labelBackgroundColor=#ffffff;verticalAlign=top;align=center;perimeter=ellipsePerimeter;outlineConnect=0;aspect=fixed;outline=end;symbol=terminate2;" vertex="1" parent="cGPf7heiZKaI3KtQXobz-4">
          <mxGeometry x="2200" y="95" width="50" height="50" as="geometry" />
        </mxCell>
        <mxCell id="dn54jaXT9u-q0-h5svgj-19" style="edgeStyle=orthogonalEdgeStyle;rounded=0;orthogonalLoop=1;jettySize=auto;html=1;exitX=1;exitY=0.5;exitDx=0;exitDy=0;exitPerimeter=0;entryX=0;entryY=0.5;entryDx=0;entryDy=0;entryPerimeter=0;" edge="1" parent="cGPf7heiZKaI3KtQXobz-4" source="dn54jaXT9u-q0-h5svgj-16" target="dn54jaXT9u-q0-h5svgj-18">
          <mxGeometry relative="1" as="geometry" />
        </mxCell>
        <mxCell id="2nOwLXs2zbcVcpe6wVe3-3" style="edgeStyle=orthogonalEdgeStyle;rounded=0;orthogonalLoop=1;jettySize=auto;html=1;exitX=1;exitY=0.5;exitDx=0;exitDy=0;exitPerimeter=0;entryX=0;entryY=0.5;entryDx=0;entryDy=0;entryPerimeter=0;" edge="1" parent="cGPf7heiZKaI3KtQXobz-1" source="2nOwLXs2zbcVcpe6wVe3-1" target="2nOwLXs2zbcVcpe6wVe3-2">
          <mxGeometry relative="1" as="geometry" />
        </mxCell>
        <mxCell id="2nOwLXs2zbcVcpe6wVe3-5" style="edgeStyle=orthogonalEdgeStyle;rounded=0;orthogonalLoop=1;jettySize=auto;html=1;exitX=1;exitY=0.5;exitDx=0;exitDy=0;exitPerimeter=0;entryX=0;entryY=0.5;entryDx=0;entryDy=0;entryPerimeter=0;" edge="1" parent="cGPf7heiZKaI3KtQXobz-1" source="2nOwLXs2zbcVcpe6wVe3-2" target="2nOwLXs2zbcVcpe6wVe3-4">
          <mxGeometry relative="1" as="geometry" />
        </mxCell>
        <mxCell id="2nOwLXs2zbcVcpe6wVe3-7" style="edgeStyle=orthogonalEdgeStyle;rounded=0;orthogonalLoop=1;jettySize=auto;html=1;exitX=1;exitY=0.5;exitDx=0;exitDy=0;exitPerimeter=0;entryX=0;entryY=0.5;entryDx=0;entryDy=0;entryPerimeter=0;" edge="1" parent="cGPf7heiZKaI3KtQXobz-1" source="2nOwLXs2zbcVcpe6wVe3-4" target="2nOwLXs2zbcVcpe6wVe3-6">
          <mxGeometry relative="1" as="geometry" />
        </mxCell>
        <mxCell id="2nOwLXs2zbcVcpe6wVe3-9" style="edgeStyle=orthogonalEdgeStyle;rounded=0;orthogonalLoop=1;jettySize=auto;html=1;exitX=1;exitY=0.5;exitDx=0;exitDy=0;exitPerimeter=0;entryX=0;entryY=0.5;entryDx=0;entryDy=0;entryPerimeter=0;" edge="1" parent="cGPf7heiZKaI3KtQXobz-1" source="2nOwLXs2zbcVcpe6wVe3-6" target="2nOwLXs2zbcVcpe6wVe3-8">
          <mxGeometry relative="1" as="geometry" />
        </mxCell>
        <mxCell id="2nOwLXs2zbcVcpe6wVe3-11" style="edgeStyle=orthogonalEdgeStyle;rounded=0;orthogonalLoop=1;jettySize=auto;html=1;exitX=1;exitY=0.5;exitDx=0;exitDy=0;exitPerimeter=0;entryX=0;entryY=0.5;entryDx=0;entryDy=0;entryPerimeter=0;" edge="1" parent="cGPf7heiZKaI3KtQXobz-1" source="2nOwLXs2zbcVcpe6wVe3-8" target="2nOwLXs2zbcVcpe6wVe3-10">
          <mxGeometry relative="1" as="geometry" />
        </mxCell>
        <mxCell id="dn54jaXT9u-q0-h5svgj-1" style="edgeStyle=orthogonalEdgeStyle;rounded=0;orthogonalLoop=1;jettySize=auto;html=1;exitX=0.5;exitY=0;exitDx=0;exitDy=0;exitPerimeter=0;entryX=0.5;entryY=1;entryDx=0;entryDy=0;entryPerimeter=0;" edge="1" parent="cGPf7heiZKaI3KtQXobz-1" source="2nOwLXs2zbcVcpe6wVe3-12" target="2nOwLXs2zbcVcpe6wVe3-14">
          <mxGeometry relative="1" as="geometry" />
        </mxCell>
        <mxCell id="dn54jaXT9u-q0-h5svgj-8" style="edgeStyle=orthogonalEdgeStyle;rounded=0;orthogonalLoop=1;jettySize=auto;html=1;exitX=0.5;exitY=1;exitDx=0;exitDy=0;exitPerimeter=0;entryX=0.5;entryY=0;entryDx=0;entryDy=0;entryPerimeter=0;" edge="1" parent="cGPf7heiZKaI3KtQXobz-1" source="dn54jaXT9u-q0-h5svgj-2" target="dn54jaXT9u-q0-h5svgj-7">
          <mxGeometry relative="1" as="geometry" />
        </mxCell>
        <mxCell id="dn54jaXT9u-q0-h5svgj-9" value="Download report" style="edgeLabel;html=1;align=center;verticalAlign=middle;resizable=0;points=[];" connectable="0" vertex="1" parent="dn54jaXT9u-q0-h5svgj-8">
          <mxGeometry x="-0.2541" relative="1" as="geometry">
            <mxPoint as="offset" />
          </mxGeometry>
        </mxCell>
        <mxCell id="dn54jaXT9u-q0-h5svgj-13" style="edgeStyle=orthogonalEdgeStyle;rounded=0;orthogonalLoop=1;jettySize=auto;html=1;exitX=0.5;exitY=0;exitDx=0;exitDy=0;exitPerimeter=0;entryX=0.5;entryY=1;entryDx=0;entryDy=0;entryPerimeter=0;" edge="1" parent="cGPf7heiZKaI3KtQXobz-1" source="dn54jaXT9u-q0-h5svgj-10" target="dn54jaXT9u-q0-h5svgj-12">
          <mxGeometry relative="1" as="geometry" />
        </mxCell>
        <mxCell id="dn54jaXT9u-q0-h5svgj-15" style="edgeStyle=orthogonalEdgeStyle;rounded=0;orthogonalLoop=1;jettySize=auto;html=1;exitX=1;exitY=0.5;exitDx=0;exitDy=0;exitPerimeter=0;entryX=0.5;entryY=0;entryDx=0;entryDy=0;entryPerimeter=0;" edge="1" parent="cGPf7heiZKaI3KtQXobz-1" source="dn54jaXT9u-q0-h5svgj-12" target="dn54jaXT9u-q0-h5svgj-14">
          <mxGeometry relative="1" as="geometry" />
        </mxCell>
      </root>
    </mxGraphModel>
  </diagram>
  <diagram id="rXjWYGkZIFdYI1hJlovl" name="Update Vehicle details">
    <mxGraphModel grid="1" page="1" gridSize="10" guides="1" tooltips="1" connect="1" arrows="1" fold="1" pageScale="1" pageWidth="850" pageHeight="1100" math="0" shadow="0">
      <root>
        <mxCell id="0" />
        <mxCell id="1" parent="0" />
        <mxCell id="N5O7RK4zjQXhAoIar_7C-1" value="Sayyarat Canada" style="swimlane;html=1;childLayout=stackLayout;resizeParent=1;resizeParentMax=0;horizontal=0;startSize=20;horizontalStack=0;whiteSpace=wrap;" vertex="1" parent="1">
          <mxGeometry x="-600" y="160" width="1850" height="540" as="geometry" />
        </mxCell>
        <mxCell id="N5O7RK4zjQXhAoIar_7C-2" value="Employee" style="swimlane;html=1;startSize=20;horizontal=0;" vertex="1" parent="N5O7RK4zjQXhAoIar_7C-1">
          <mxGeometry x="20" width="1830" height="280" as="geometry" />
        </mxCell>
        <mxCell id="5pPt70h6ZtZA28uvzjkA-2" value="Search for specific vehicle" style="points=[[0.145,0.145,0],[0.5,0,0],[0.855,0.145,0],[1,0.5,0],[0.855,0.855,0],[0.5,1,0],[0.145,0.855,0],[0,0.5,0]];shape=mxgraph.bpmn.event;html=1;verticalLabelPosition=bottom;labelBackgroundColor=#ffffff;verticalAlign=top;align=center;perimeter=ellipsePerimeter;outlineConnect=0;aspect=fixed;outline=standard;symbol=general;" vertex="1" parent="N5O7RK4zjQXhAoIar_7C-2">
          <mxGeometry x="85" y="115" width="50" height="50" as="geometry" />
        </mxCell>
        <mxCell id="2npQI5A1plY02lu15hYH-3" value="Select edit vehicle" style="points=[[0.25,0,0],[0.5,0,0],[0.75,0,0],[1,0.25,0],[1,0.5,0],[1,0.75,0],[0.75,1,0],[0.5,1,0],[0.25,1,0],[0,0.75,0],[0,0.5,0],[0,0.25,0]];shape=mxgraph.bpmn.task2;whiteSpace=wrap;rectStyle=rounded;size=10;html=1;container=1;expand=0;collapsible=0;taskMarker=abstract;" vertex="1" parent="N5O7RK4zjQXhAoIar_7C-2">
          <mxGeometry x="390" y="110" width="120" height="80" as="geometry" />
        </mxCell>
        <mxCell id="2npQI5A1plY02lu15hYH-7" value="Make changes" style="points=[[0.25,0,0],[0.5,0,0],[0.75,0,0],[1,0.25,0],[1,0.5,0],[1,0.75,0],[0.75,1,0],[0.5,1,0],[0.25,1,0],[0,0.75,0],[0,0.5,0],[0,0.25,0]];shape=mxgraph.bpmn.task2;whiteSpace=wrap;rectStyle=rounded;size=10;html=1;container=1;expand=0;collapsible=0;taskMarker=abstract;" vertex="1" parent="N5O7RK4zjQXhAoIar_7C-2">
          <mxGeometry x="730" y="115" width="120" height="80" as="geometry" />
        </mxCell>
        <mxCell id="N5O7RK4zjQXhAoIar_7C-4" value="Dealership managment system" style="swimlane;html=1;startSize=20;horizontal=0;" vertex="1" parent="N5O7RK4zjQXhAoIar_7C-1">
          <mxGeometry x="20" y="280" width="1830" height="260" as="geometry" />
        </mxCell>
        <mxCell id="2npQI5A1plY02lu15hYH-1" value="Display vehicle details" style="points=[[0.25,0,0],[0.5,0,0],[0.75,0,0],[1,0.25,0],[1,0.5,0],[1,0.75,0],[0.75,1,0],[0.5,1,0],[0.25,1,0],[0,0.75,0],[0,0.5,0],[0,0.25,0]];shape=mxgraph.bpmn.task2;whiteSpace=wrap;rectStyle=rounded;size=10;html=1;container=1;expand=0;collapsible=0;taskMarker=abstract;" vertex="1" parent="N5O7RK4zjQXhAoIar_7C-4">
          <mxGeometry x="230" y="70" width="120" height="80" as="geometry" />
        </mxCell>
        <mxCell id="2npQI5A1plY02lu15hYH-5" value="Display editable vehicle information" style="points=[[0.25,0,0],[0.5,0,0],[0.75,0,0],[1,0.25,0],[1,0.5,0],[1,0.75,0],[0.75,1,0],[0.5,1,0],[0.25,1,0],[0,0.75,0],[0,0.5,0],[0,0.25,0]];shape=mxgraph.bpmn.task2;whiteSpace=wrap;rectStyle=rounded;size=10;html=1;container=1;expand=0;collapsible=0;taskMarker=abstract;" vertex="1" parent="N5O7RK4zjQXhAoIar_7C-4">
          <mxGeometry x="550" y="60" width="120" height="80" as="geometry" />
        </mxCell>
        <mxCell id="2npQI5A1plY02lu15hYH-9" value="Validate new inputs" style="points=[[0.25,0,0],[0.5,0,0],[0.75,0,0],[1,0.25,0],[1,0.5,0],[1,0.75,0],[0.75,1,0],[0.5,1,0],[0.25,1,0],[0,0.75,0],[0,0.5,0],[0,0.25,0]];shape=mxgraph.bpmn.task2;whiteSpace=wrap;rectStyle=rounded;size=10;html=1;container=1;expand=0;collapsible=0;taskMarker=abstract;" vertex="1" parent="N5O7RK4zjQXhAoIar_7C-4">
          <mxGeometry x="920" y="50" width="120" height="80" as="geometry" />
        </mxCell>
        <mxCell id="2npQI5A1plY02lu15hYH-11" value="" style="points=[[0.25,0.25,0],[0.5,0,0],[0.75,0.25,0],[1,0.5,0],[0.75,0.75,0],[0.5,1,0],[0.25,0.75,0],[0,0.5,0]];shape=mxgraph.bpmn.gateway2;html=1;verticalLabelPosition=bottom;labelBackgroundColor=#ffffff;verticalAlign=top;align=center;perimeter=rhombusPerimeter;outlineConnect=0;outline=none;symbol=none;gwType=exclusive;" vertex="1" parent="N5O7RK4zjQXhAoIar_7C-4">
          <mxGeometry x="1130" y="65" width="50" height="50" as="geometry" />
        </mxCell>
        <mxCell id="2npQI5A1plY02lu15hYH-12" style="edgeStyle=orthogonalEdgeStyle;rounded=0;orthogonalLoop=1;jettySize=auto;html=1;exitX=1;exitY=0.5;exitDx=0;exitDy=0;exitPerimeter=0;entryX=0;entryY=0.5;entryDx=0;entryDy=0;entryPerimeter=0;" edge="1" parent="N5O7RK4zjQXhAoIar_7C-4" source="2npQI5A1plY02lu15hYH-9" target="2npQI5A1plY02lu15hYH-11">
          <mxGeometry relative="1" as="geometry" />
        </mxCell>
        <mxCell id="2npQI5A1plY02lu15hYH-13" value="Display Errors" style="points=[[0.25,0,0],[0.5,0,0],[0.75,0,0],[1,0.25,0],[1,0.5,0],[1,0.75,0],[0.75,1,0],[0.5,1,0],[0.25,1,0],[0,0.75,0],[0,0.5,0],[0,0.25,0]];shape=mxgraph.bpmn.task2;whiteSpace=wrap;rectStyle=rounded;size=10;html=1;container=1;expand=0;collapsible=0;taskMarker=abstract;" vertex="1" parent="N5O7RK4zjQXhAoIar_7C-4">
          <mxGeometry x="815" y="160" width="120" height="80" as="geometry" />
        </mxCell>
        <mxCell id="2npQI5A1plY02lu15hYH-14" style="edgeStyle=orthogonalEdgeStyle;rounded=0;orthogonalLoop=1;jettySize=auto;html=1;exitX=0.5;exitY=1;exitDx=0;exitDy=0;exitPerimeter=0;entryX=1;entryY=0.5;entryDx=0;entryDy=0;entryPerimeter=0;" edge="1" parent="N5O7RK4zjQXhAoIar_7C-4" source="2npQI5A1plY02lu15hYH-11" target="2npQI5A1plY02lu15hYH-13">
          <mxGeometry relative="1" as="geometry" />
        </mxCell>
        <mxCell id="2npQI5A1plY02lu15hYH-15" value="Invalid" style="edgeLabel;html=1;align=center;verticalAlign=middle;resizable=0;points=[];" connectable="0" vertex="1" parent="2npQI5A1plY02lu15hYH-14">
          <mxGeometry x="-0.06" y="-4" relative="1" as="geometry">
            <mxPoint as="offset" />
          </mxGeometry>
        </mxCell>
        <mxCell id="2npQI5A1plY02lu15hYH-16" style="edgeStyle=orthogonalEdgeStyle;rounded=0;orthogonalLoop=1;jettySize=auto;html=1;exitX=0;exitY=0.5;exitDx=0;exitDy=0;exitPerimeter=0;entryX=0.5;entryY=1;entryDx=0;entryDy=0;entryPerimeter=0;" edge="1" parent="N5O7RK4zjQXhAoIar_7C-4" source="2npQI5A1plY02lu15hYH-13" target="2npQI5A1plY02lu15hYH-5">
          <mxGeometry relative="1" as="geometry" />
        </mxCell>
        <mxCell id="2npQI5A1plY02lu15hYH-17" value="Save changes" style="points=[[0.25,0,0],[0.5,0,0],[0.75,0,0],[1,0.25,0],[1,0.5,0],[1,0.75,0],[0.75,1,0],[0.5,1,0],[0.25,1,0],[0,0.75,0],[0,0.5,0],[0,0.25,0]];shape=mxgraph.bpmn.task2;whiteSpace=wrap;rectStyle=rounded;size=10;html=1;container=1;expand=0;collapsible=0;taskMarker=abstract;" vertex="1" parent="N5O7RK4zjQXhAoIar_7C-4">
          <mxGeometry x="1280" y="50" width="120" height="80" as="geometry" />
        </mxCell>
        <mxCell id="2npQI5A1plY02lu15hYH-18" style="edgeStyle=orthogonalEdgeStyle;rounded=0;orthogonalLoop=1;jettySize=auto;html=1;exitX=1;exitY=0.5;exitDx=0;exitDy=0;exitPerimeter=0;entryX=0;entryY=0.5;entryDx=0;entryDy=0;entryPerimeter=0;" edge="1" parent="N5O7RK4zjQXhAoIar_7C-4" source="2npQI5A1plY02lu15hYH-11" target="2npQI5A1plY02lu15hYH-17">
          <mxGeometry relative="1" as="geometry" />
        </mxCell>
        <mxCell id="2npQI5A1plY02lu15hYH-19" value="Display Success" style="points=[[0.25,0,0],[0.5,0,0],[0.75,0,0],[1,0.25,0],[1,0.5,0],[1,0.75,0],[0.75,1,0],[0.5,1,0],[0.25,1,0],[0,0.75,0],[0,0.5,0],[0,0.25,0]];shape=mxgraph.bpmn.task2;whiteSpace=wrap;rectStyle=rounded;size=10;html=1;container=1;expand=0;collapsible=0;taskMarker=abstract;" vertex="1" parent="N5O7RK4zjQXhAoIar_7C-4">
          <mxGeometry x="1500" y="50" width="120" height="80" as="geometry" />
        </mxCell>
        <mxCell id="2npQI5A1plY02lu15hYH-20" style="edgeStyle=orthogonalEdgeStyle;rounded=0;orthogonalLoop=1;jettySize=auto;html=1;exitX=1;exitY=0.5;exitDx=0;exitDy=0;exitPerimeter=0;entryX=0;entryY=0.5;entryDx=0;entryDy=0;entryPerimeter=0;" edge="1" parent="N5O7RK4zjQXhAoIar_7C-4" source="2npQI5A1plY02lu15hYH-17" target="2npQI5A1plY02lu15hYH-19">
          <mxGeometry relative="1" as="geometry" />
        </mxCell>
        <mxCell id="2npQI5A1plY02lu15hYH-22" value="Edit complete" style="points=[[0.145,0.145,0],[0.5,0,0],[0.855,0.145,0],[1,0.5,0],[0.855,0.855,0],[0.5,1,0],[0.145,0.855,0],[0,0.5,0]];shape=mxgraph.bpmn.event;html=1;verticalLabelPosition=bottom;labelBackgroundColor=#ffffff;verticalAlign=top;align=center;perimeter=ellipsePerimeter;outlineConnect=0;aspect=fixed;outline=end;symbol=terminate2;" vertex="1" parent="N5O7RK4zjQXhAoIar_7C-4">
          <mxGeometry x="1730" y="65" width="50" height="50" as="geometry" />
        </mxCell>
        <mxCell id="2npQI5A1plY02lu15hYH-23" style="edgeStyle=orthogonalEdgeStyle;rounded=0;orthogonalLoop=1;jettySize=auto;html=1;exitX=1;exitY=0.5;exitDx=0;exitDy=0;exitPerimeter=0;entryX=0;entryY=0.5;entryDx=0;entryDy=0;entryPerimeter=0;" edge="1" parent="N5O7RK4zjQXhAoIar_7C-4" source="2npQI5A1plY02lu15hYH-19" target="2npQI5A1plY02lu15hYH-22">
          <mxGeometry relative="1" as="geometry" />
        </mxCell>
        <mxCell id="Qpv8mFTmMc2YD2kSRqaL-1" value="" style="edgeStyle=elbowEdgeStyle;fontSize=12;html=1;endFill=0;startFill=0;endSize=6;startSize=6;dashed=1;dashPattern=1 4;endArrow=openThin;startArrow=none;rounded=0;exitX=0.5;exitY=1;exitDx=0;exitDy=0;exitPerimeter=0;entryX=0;entryY=0.5;entryDx=0;entryDy=0;" edge="1" parent="N5O7RK4zjQXhAoIar_7C-4" source="2npQI5A1plY02lu15hYH-17" target="Qpv8mFTmMc2YD2kSRqaL-2">
          <mxGeometry width="160" relative="1" as="geometry">
            <mxPoint x="1320" y="190" as="sourcePoint" />
            <mxPoint x="1350" y="220" as="targetPoint" />
          </mxGeometry>
        </mxCell>
        <mxCell id="Qpv8mFTmMc2YD2kSRqaL-2" value="DMS database" style="shape=datastore;html=1;labelPosition=center;verticalLabelPosition=bottom;align=center;verticalAlign=top;" vertex="1" parent="N5O7RK4zjQXhAoIar_7C-4">
          <mxGeometry x="1390" y="150" width="100" height="80" as="geometry" />
        </mxCell>
        <mxCell id="2npQI5A1plY02lu15hYH-2" style="edgeStyle=orthogonalEdgeStyle;rounded=0;orthogonalLoop=1;jettySize=auto;html=1;exitX=1;exitY=0.5;exitDx=0;exitDy=0;exitPerimeter=0;entryX=0;entryY=0.5;entryDx=0;entryDy=0;entryPerimeter=0;" edge="1" parent="N5O7RK4zjQXhAoIar_7C-1" source="5pPt70h6ZtZA28uvzjkA-2" target="2npQI5A1plY02lu15hYH-1">
          <mxGeometry relative="1" as="geometry" />
        </mxCell>
        <mxCell id="2npQI5A1plY02lu15hYH-4" style="edgeStyle=orthogonalEdgeStyle;rounded=0;orthogonalLoop=1;jettySize=auto;html=1;exitX=1;exitY=0.5;exitDx=0;exitDy=0;exitPerimeter=0;entryX=0;entryY=0.5;entryDx=0;entryDy=0;entryPerimeter=0;" edge="1" parent="N5O7RK4zjQXhAoIar_7C-1" source="2npQI5A1plY02lu15hYH-1" target="2npQI5A1plY02lu15hYH-3">
          <mxGeometry relative="1" as="geometry" />
        </mxCell>
        <mxCell id="2npQI5A1plY02lu15hYH-6" style="edgeStyle=orthogonalEdgeStyle;rounded=0;orthogonalLoop=1;jettySize=auto;html=1;exitX=1;exitY=0.5;exitDx=0;exitDy=0;exitPerimeter=0;entryX=0;entryY=0.5;entryDx=0;entryDy=0;entryPerimeter=0;" edge="1" parent="N5O7RK4zjQXhAoIar_7C-1" source="2npQI5A1plY02lu15hYH-3" target="2npQI5A1plY02lu15hYH-5">
          <mxGeometry relative="1" as="geometry" />
        </mxCell>
        <mxCell id="2npQI5A1plY02lu15hYH-8" style="edgeStyle=orthogonalEdgeStyle;rounded=0;orthogonalLoop=1;jettySize=auto;html=1;exitX=1;exitY=0.5;exitDx=0;exitDy=0;exitPerimeter=0;entryX=0;entryY=0.5;entryDx=0;entryDy=0;entryPerimeter=0;" edge="1" parent="N5O7RK4zjQXhAoIar_7C-1" source="2npQI5A1plY02lu15hYH-5" target="2npQI5A1plY02lu15hYH-7">
          <mxGeometry relative="1" as="geometry" />
        </mxCell>
        <mxCell id="2npQI5A1plY02lu15hYH-10" style="edgeStyle=orthogonalEdgeStyle;rounded=0;orthogonalLoop=1;jettySize=auto;html=1;exitX=1;exitY=0.5;exitDx=0;exitDy=0;exitPerimeter=0;entryX=0;entryY=0.5;entryDx=0;entryDy=0;entryPerimeter=0;" edge="1" parent="N5O7RK4zjQXhAoIar_7C-1" source="2npQI5A1plY02lu15hYH-7" target="2npQI5A1plY02lu15hYH-9">
          <mxGeometry relative="1" as="geometry" />
        </mxCell>
      </root>
    </mxGraphModel>
  </diagram>
</mxfile>
